<mxfile host="app.diagrams.net" modified="2023-07-27T08:30:41.247Z" agent="Mozilla/5.0 (Windows NT 10.0; Win64; x64) AppleWebKit/537.36 (KHTML, like Gecko) Chrome/115.0.0.0 Safari/537.36 Edg/115.0.1901.183" etag="xpgmxen8L8AagbZkrPHB" version="21.6.5" type="device" pages="2">
  <diagram id="R2lEEEUBdFMjLlhIrx00" name="Page-1">
    <mxGraphModel dx="2633" dy="2857" grid="1" gridSize="10" guides="1" tooltips="1" connect="1" arrows="1" fold="1" page="1" pageScale="1" pageWidth="850" pageHeight="1100" math="0" shadow="0" extFonts="Permanent Marker^https://fonts.googleapis.com/css?family=Permanent+Marker">
      <root>
        <mxCell id="0" />
        <mxCell id="1" parent="0" />
        <mxCell id="OMsYIrX4x_dslvz2iAFP-1" value="Tour" style="whiteSpace=wrap;html=1;align=center;sketch=1;hachureGap=4;jiggle=2;curveFitting=1;fontFamily=Architects Daughter;fontSource=https%3A%2F%2Ffonts.googleapis.com%2Fcss%3Ffamily%3DArchitects%2BDaughter;fontSize=20;" vertex="1" parent="1">
          <mxGeometry x="160" y="90" width="100" height="40" as="geometry" />
        </mxCell>
        <mxCell id="OMsYIrX4x_dslvz2iAFP-2" value="Customer" style="whiteSpace=wrap;html=1;align=center;sketch=1;hachureGap=4;jiggle=2;curveFitting=1;fontFamily=Architects Daughter;fontSource=https%3A%2F%2Ffonts.googleapis.com%2Fcss%3Ffamily%3DArchitects%2BDaughter;fontSize=20;" vertex="1" parent="1">
          <mxGeometry x="510" y="50" width="100" height="40" as="geometry" />
        </mxCell>
        <mxCell id="OMsYIrX4x_dslvz2iAFP-3" value="TourEquipment" style="whiteSpace=wrap;html=1;align=center;sketch=1;hachureGap=4;jiggle=2;curveFitting=1;fontFamily=Architects Daughter;fontSource=https%3A%2F%2Ffonts.googleapis.com%2Fcss%3Ffamily%3DArchitects%2BDaughter;fontSize=20;" vertex="1" parent="1">
          <mxGeometry x="830" y="47.420000000000016" width="140" height="40" as="geometry" />
        </mxCell>
        <mxCell id="OMsYIrX4x_dslvz2iAFP-4" value="PartnerHotel" style="whiteSpace=wrap;html=1;align=center;sketch=1;hachureGap=4;jiggle=2;curveFitting=1;fontFamily=Architects Daughter;fontSource=https%3A%2F%2Ffonts.googleapis.com%2Fcss%3Ffamily%3DArchitects%2BDaughter;fontSize=20;" vertex="1" parent="1">
          <mxGeometry x="510" y="720" width="150" height="40" as="geometry" />
        </mxCell>
        <mxCell id="OMsYIrX4x_dslvz2iAFP-5" value="TourCoordinator" style="whiteSpace=wrap;html=1;align=center;sketch=1;hachureGap=4;jiggle=2;curveFitting=1;fontFamily=Architects Daughter;fontSource=https%3A%2F%2Ffonts.googleapis.com%2Fcss%3Ffamily%3DArchitects%2BDaughter;fontSize=20;" vertex="1" parent="1">
          <mxGeometry x="35" y="520" width="170" height="40" as="geometry" />
        </mxCell>
        <mxCell id="OMsYIrX4x_dslvz2iAFP-6" value="TID" style="ellipse;whiteSpace=wrap;html=1;align=center;fontStyle=4;sketch=1;hachureGap=4;jiggle=2;curveFitting=1;fontFamily=Architects Daughter;fontSource=https%3A%2F%2Ffonts.googleapis.com%2Fcss%3Ffamily%3DArchitects%2BDaughter;fontSize=20;" vertex="1" parent="1">
          <mxGeometry x="40" y="20" width="100" height="40" as="geometry" />
        </mxCell>
        <mxCell id="OMsYIrX4x_dslvz2iAFP-7" value="Rate" style="ellipse;whiteSpace=wrap;html=1;align=center;sketch=1;hachureGap=4;jiggle=2;curveFitting=1;fontFamily=Architects Daughter;fontSource=https%3A%2F%2Ffonts.googleapis.com%2Fcss%3Ffamily%3DArchitects%2BDaughter;fontSize=20;" vertex="1" parent="1">
          <mxGeometry x="10" y="150" width="100" height="40" as="geometry" />
        </mxCell>
        <mxCell id="OMsYIrX4x_dslvz2iAFP-8" value="Location" style="ellipse;whiteSpace=wrap;html=1;align=center;sketch=1;hachureGap=4;jiggle=2;curveFitting=1;fontFamily=Architects Daughter;fontSource=https%3A%2F%2Ffonts.googleapis.com%2Fcss%3Ffamily%3DArchitects%2BDaughter;fontSize=20;" vertex="1" parent="1">
          <mxGeometry x="40" y="210" width="100" height="40" as="geometry" />
        </mxCell>
        <mxCell id="OMsYIrX4x_dslvz2iAFP-9" value="Catagery" style="ellipse;whiteSpace=wrap;html=1;align=center;sketch=1;hachureGap=4;jiggle=2;curveFitting=1;fontFamily=Architects Daughter;fontSource=https%3A%2F%2Ffonts.googleapis.com%2Fcss%3Ffamily%3DArchitects%2BDaughter;fontSize=20;" vertex="1" parent="1">
          <mxGeometry y="80" width="100" height="40" as="geometry" />
        </mxCell>
        <mxCell id="OMsYIrX4x_dslvz2iAFP-10" value="Date" style="ellipse;whiteSpace=wrap;html=1;align=center;sketch=1;hachureGap=4;jiggle=2;curveFitting=1;fontFamily=Architects Daughter;fontSource=https%3A%2F%2Ffonts.googleapis.com%2Fcss%3Ffamily%3DArchitects%2BDaughter;fontSize=20;" vertex="1" parent="1">
          <mxGeometry x="290" y="20" width="100" height="40" as="geometry" />
        </mxCell>
        <mxCell id="OMsYIrX4x_dslvz2iAFP-11" value="Name" style="ellipse;whiteSpace=wrap;html=1;align=center;sketch=1;hachureGap=4;jiggle=2;curveFitting=1;fontFamily=Architects Daughter;fontSource=https%3A%2F%2Ffonts.googleapis.com%2Fcss%3Ffamily%3DArchitects%2BDaughter;fontSize=20;" vertex="1" parent="1">
          <mxGeometry x="170" y="20" width="100" height="40" as="geometry" />
        </mxCell>
        <mxCell id="OMsYIrX4x_dslvz2iAFP-13" value="Maximum" style="ellipse;whiteSpace=wrap;html=1;align=center;sketch=1;hachureGap=4;jiggle=2;curveFitting=1;fontFamily=Architects Daughter;fontSource=https%3A%2F%2Ffonts.googleapis.com%2Fcss%3Ffamily%3DArchitects%2BDaughter;fontSize=20;" vertex="1" parent="1">
          <mxGeometry x="300" y="130" width="100" height="40" as="geometry" />
        </mxCell>
        <mxCell id="OMsYIrX4x_dslvz2iAFP-14" style="edgeStyle=none;curved=1;rounded=0;sketch=1;hachureGap=4;jiggle=2;curveFitting=1;orthogonalLoop=1;jettySize=auto;html=1;exitX=0.5;exitY=1;exitDx=0;exitDy=0;fontFamily=Architects Daughter;fontSource=https%3A%2F%2Ffonts.googleapis.com%2Fcss%3Ffamily%3DArchitects%2BDaughter;fontSize=16;startSize=8;endSize=8;" edge="1" parent="1" source="OMsYIrX4x_dslvz2iAFP-7" target="OMsYIrX4x_dslvz2iAFP-7">
          <mxGeometry relative="1" as="geometry" />
        </mxCell>
        <mxCell id="OMsYIrX4x_dslvz2iAFP-15" value="Coordinates" style="shape=rhombus;perimeter=rhombusPerimeter;whiteSpace=wrap;html=1;align=center;sketch=1;hachureGap=4;jiggle=2;curveFitting=1;fontFamily=Architects Daughter;fontSource=https%3A%2F%2Ffonts.googleapis.com%2Fcss%3Ffamily%3DArchitects%2BDaughter;fontSize=20;" vertex="1" parent="1">
          <mxGeometry x="40" y="320" width="160" height="60" as="geometry" />
        </mxCell>
        <mxCell id="OMsYIrX4x_dslvz2iAFP-16" value="Is assigned" style="shape=rhombus;perimeter=rhombusPerimeter;whiteSpace=wrap;html=1;align=center;sketch=1;hachureGap=4;jiggle=2;curveFitting=1;fontFamily=Architects Daughter;fontSource=https%3A%2F%2Ffonts.googleapis.com%2Fcss%3Ffamily%3DArchitects%2BDaughter;fontSize=20;" vertex="1" parent="1">
          <mxGeometry x="220" y="230" width="120" height="60" as="geometry" />
        </mxCell>
        <mxCell id="OMsYIrX4x_dslvz2iAFP-17" value="Books" style="shape=rhombus;perimeter=rhombusPerimeter;whiteSpace=wrap;html=1;align=center;sketch=1;hachureGap=4;jiggle=2;curveFitting=1;fontFamily=Architects Daughter;fontSource=https%3A%2F%2Ffonts.googleapis.com%2Fcss%3Ffamily%3DArchitects%2BDaughter;fontSize=20;" vertex="1" parent="1">
          <mxGeometry x="350" y="70" width="120" height="60" as="geometry" />
        </mxCell>
        <mxCell id="OMsYIrX4x_dslvz2iAFP-18" value="Books" style="shape=rhombus;perimeter=rhombusPerimeter;whiteSpace=wrap;html=1;align=center;sketch=1;hachureGap=4;jiggle=2;curveFitting=1;fontFamily=Architects Daughter;fontSource=https%3A%2F%2Ffonts.googleapis.com%2Fcss%3Ffamily%3DArchitects%2BDaughter;fontSize=20;" vertex="1" parent="1">
          <mxGeometry x="303.58" y="650" width="120" height="60" as="geometry" />
        </mxCell>
        <mxCell id="OMsYIrX4x_dslvz2iAFP-19" value="Rents" style="shape=rhombus;perimeter=rhombusPerimeter;whiteSpace=wrap;html=1;align=center;sketch=1;hachureGap=4;jiggle=2;curveFitting=1;fontFamily=Architects Daughter;fontSource=https%3A%2F%2Ffonts.googleapis.com%2Fcss%3Ffamily%3DArchitects%2BDaughter;fontSize=20;" vertex="1" parent="1">
          <mxGeometry x="660" y="45.129999999999995" width="120" height="60" as="geometry" />
        </mxCell>
        <mxCell id="OMsYIrX4x_dslvz2iAFP-20" value="TourGuide" style="rounded=1;arcSize=10;whiteSpace=wrap;html=1;align=center;sketch=1;hachureGap=4;jiggle=2;curveFitting=1;fontFamily=Architects Daughter;fontSource=https%3A%2F%2Ffonts.googleapis.com%2Fcss%3Ffamily%3DArchitects%2BDaughter;fontSize=20;" vertex="1" parent="1">
          <mxGeometry x="310" y="390" width="100" height="40" as="geometry" />
        </mxCell>
        <mxCell id="OMsYIrX4x_dslvz2iAFP-21" value="" style="shape=stencil(lVfJctswDP0aXTHgIoI8p+l/ZCZO7akbZxyny98XqoaOCErP9Y0S8Yh9G8LD+/7pbTd4fr+cT993vw7Pl/0QvgzeH173u/PhoqchPA7h4eV03n07nz5en+fvt6eJcjr9OP2cXvg94zw5N4E8/5l/MDn59+PrTH48vC7IE6XckHtKYZvcJcqxoXdMZdwG+EzOtwyYJG0DwlgFuAKEBGgQI4VWBX2i+G3AGChyA9AnItAhefKpAegTLgJAodJySI6YtwGiSrdeS0IxbwMyE48NQDwVBAhUWg5yg4NYs2ZHDgAKU2itlLFZiydpdVCeI/B0iZRbHZRndACgfmijtWg4ApEcc/XTApFAMCmLXFpAIUZmKvW9BQA5Qq99sAApAJBJogUUZNdMvhOpIA6akR0gIw5CvrNSAglRUpV4AfCgMCnAxoaaAZl1DRBQMPUiCWVQySalswXE+8wq1TP/6zghh8zah4bU+rwZfL1ISIc+vAV7uk+gDGvleo5G5Ii1MlBQMGmCdSkXMIfQhatgR5hyPAmJXW2a1sIOW9GU810sNDq7rIZKCHG6y0zd9HDLEasA0Hm1p9hC4ygjDlx71LUJZTjQ6HUwADxu6HU0jVRnLKCD9tnSRp9kWF31mg1AZyIgkgRKrQ4p14llfaBRDmY+8TQiANtwHSMlUDdGV1v/dShLxMBKUQVodQg6PQBPh1D7wXWwLFXI9dE11X5wBXiKwA9utEOZ87XerittgzXC0ZirBT9n9QA6HNt01tUAeIDJt9o6mAdafMSQJ2Cbrma7WjG3yL0hZ2iZbulBKwPbxswwmPXWG3IP7Z67DQwko07VwZAzJI9iyVG3pMyWHK1r922PN8n18LmovhyOx3nPXd7bxVZ/zUtxePwL);lineShape=1;sketch=1;hachureGap=4;jiggle=2;curveFitting=1;fontFamily=Architects Daughter;fontSource=https%3A%2F%2Ffonts.googleapis.com%2Fcss%3Ffamily%3DArchitects%2BDaughter;fontSize=20;" vertex="1" parent="1">
          <mxGeometry x="131.43562035253842" y="50.034563213190836" width="40.17321485431739" height="44.36544060726271" as="geometry" />
        </mxCell>
        <mxCell id="OMsYIrX4x_dslvz2iAFP-22" value="" style="shape=stencil(nVdbctswDDyNfjEEwed3mt4jM3FqTRw747iv2xeqysSAHFDqnyxhTTwWC3Cgu7f9w+tu8O7tcj49736Oj5f9QF8G78fjfnceL/w00P1Ad0+n8+7b+fT9+Dj/fn2YLKenl9OP6R9+zbhSIOOE8u73/MaDy39ffJ3tD+NR2v/73OwL+GTYJ0BpjxEIDUCGUqRDDpJ1QgZXJSBBrQYgQkgCQASVDEAAL10KDmo0AASBJCDbLgWgIAAxgCtmWr0sW6wQrSwVnaUUoLjPAdVBlIVLtTl5G+ChegHIBNEIukZA6VLOEI06VK60zFJBiN4AMLkVWaMZAzoHzgkEH2rRdfosucGHotVAtaX9ClANnzJXTtK1cqkNQCKgrAHViIHJ6WUhrvJwE0EIoeojinEEZkikAWTwNQMmnaVseIRaZrgwxSCf0yFP5DKoFCBJctdklhmpufsOYNkxNINFKyqPQmuo2x6h7jcGJOOEyMR0WwB5IWMdl1iVCLcEzZ9199hpZdaocdWpG9OmkAZYxGAZK1JkOswrvhF5JbVTgeg0wGqe6CFt7M8ECfURlgRw/9RFf1oig06Ld0fG/MIjWye3CvFWewQvA+6MBp5ussqd2RNaSVcOt9zm/drpqXuzM54RGwFWLgCTgskKd1YMXuySTFFnicGkV4zOmsQnZCl5nUUMQyPxylUPvc5SZ5lkAEqXOusqp1UJUmchxkVr2hs326vRZm/0HEGQIWMry8oiYJsrn0mLk/auydlte953UNmTUWPWOp+VPVqNGfWubWspkzjp/7fsef3KtMGfjI1g6+LlfbCWDflc3l7sevF9Si0iNh/+4wbZseeHj+vq03g4zLfd6+/6esuv5qsx3f8B);lineShape=1;sketch=1;hachureGap=4;jiggle=2;curveFitting=1;fontFamily=Architects Daughter;fontSource=https%3A%2F%2Ffonts.googleapis.com%2Fcss%3Ffamily%3DArchitects%2BDaughter;fontSize=20;" vertex="1" parent="1">
          <mxGeometry x="194.39810009788766" y="52.383635943377044" width="1.603831847681704" height="29.733757419111726" as="geometry" />
        </mxCell>
        <mxCell id="OMsYIrX4x_dslvz2iAFP-23" value="" style="shape=stencil(lVfLbhsxDPwaXwlJ1IM6p+l/BIhTG3XtwHH6+Ptyu9DGonanyG3jzEgkNaRGO354Ozy97nfBvd2ul+/7X8fn22HHX3YhHM+H/fV4068dP+744eVy3X+7Xt7Pz/Pfr08Tcvr6cfk5rfB75tVKyU+s4P7MvzD5/O+HrzP+dDzf4zOF2OEzMW/jRcj16/tI3m0TSqFSOkKIFEBExVHqI2Lfclol5EBce0KlErcJian2O0RpVVglxERJOkLKlMs2gaUVfalqJAd20BSl30HLkEFZ9ZhqX9aSSBAhkPQhiYNJ+0qxD0m4LbFOyBRdT9AgEYEp9TmIHhwQn/fk+pBqIC9ArVRDj49Q3YVcn8HUHqConopZv5Kgmrbdl+Zxrm25SnBU2W5QwQbaO9nikVBVAsXiA+g1jdbghXKAeFPQQjVBfLb4AA7Y2emlB5YhPgWLRwfsbFvWRBUKIgx4AfXx7XTu1wf1CeTG+EG+YYgnU6kIH6OtfwTxK37Qg4Pr84AvMF+frD4Z1lOixaOrwFMc+qWCfvGDPhUP8nVNjffxQH3ysD5DvGdbTwEDztnbW/FogLpBb4US7Bdz76neBM6fOOiZ4XwrRg/aLzD+z+HTMG8D1E9p02DBe2i3/HBgeuUF0AA+2AkhBd4YPlHs3ZBEKCEvlExIHvaYNoFJevJ44NJQr+L6HQrDpNm1IbjYJ2lLrBNKs5QLQTsbEGK0ZU2xtfaWZzQ5qCnMyJUOo0WDREY517beYpQFmomSW6svBDXKoKyTcvpppIaKQQ7aLMYecBPXOl7acGh4vZ/BKUzDPxi8A9NC8TVbPCjpZGZsPEhGio9s8PDxpEdm8ajVJndo40HubLpc+vr4No838dXgIzjfO/f5QUB2Zdqgb0w1GBgvFp+QgPR2dAZfkUA/+9r9L14/Pp7WL8fTaX6Z3//fPsX1p/kZz49/AQ==);lineShape=1;sketch=1;hachureGap=4;jiggle=2;curveFitting=1;fontFamily=Architects Daughter;fontSource=https%3A%2F%2Ffonts.googleapis.com%2Fcss%3Ffamily%3DArchitects%2BDaughter;fontSize=20;" vertex="1" parent="1">
          <mxGeometry x="251.1533607260933" y="54.03456066140336" width="56.61104968360132" height="33.38682966154511" as="geometry" />
        </mxCell>
        <mxCell id="OMsYIrX4x_dslvz2iAFP-24" value="" style="shape=stencil(nVjLbhsxDPwaXwm9JZ7T9D8CxKmNunHguK+/L7eGtiYVjZPe7F3OiiKHQ0qbePe6e3jZboJ7PZ+OX7c/94/n3SZ+2oSwf95tT/uz/NrE+028ezqetl9Ox+/Pj5f/Lw+L5fLr2/HH8oVfF5yjFhdQcL/7A+f+Pvh8MT/sn6/MC7lgzLOfm3tP3n6+NWCfqGVlLx/IwJ7JF2Mf09w+RGps7BPwJzTiauwzz+1jpOKMfSnAvlEIxr6CeKZANVl7EJ9UKdr9VrDfHMjpfGVyIJ65UNH5Yirg+8WTM/4kSIiSKekFhEExAgBT04yQLaAVaiKnAZJEHwCgEjcFSLIrkIQmHPAawBQAi1qyWc4J0rpVKjqsuZEHPGJHSfO0uL7m24BArIlaAgwrcw/iCsi9lmYA61IhRi5xL60VwLA4BWDEpUq54hVM9ddGBezBu1U9O0JyiQRsWUIXXGOoqAKomn0sK+BdZ1OiK1tmgGBWYChiLCLJFtBQqlsXuRXQKIKSk9fJuJTJ4xWizgPf4LcIsXapifKgKA3KXbmHYeqSAUiZY0DSYa1StTgPRjZKpYT5bbq5lBySewFEbwEJJU7IpxNXGmUg3wtzdOJq6C1+WkB607V0qXp3jYa+rekSWmhEb1EXXTahfeKA2cddh1ZAgX10ScRQozdUwDZehye9/0BIR9B04tifzLqQoVPDNSRxz9qnViA7RH2LdmnJNQLIPKj1WNp9AOSQ12bTZa2qtwFx6KTrkDybaKqmX46dkLOZKWrFTw1W6TKV6YqQORPlQca+rBtjrDDT2duZSYasACpiHFyjg9I0TsYLALSIcfQWAJqZxtl+AYA8jIcHAQSQ6fF0IgA0943HHwGg88x4vhIAnGiGA5wA0FQ2HBCjh+I6nD/FHjFJ3B3sUUG73gGvaQFEzNnhJ2BmCwX090MiBgOf60eF1d73+Wxmbw6UtUfsnfYRlvLgj5cIAEIM+y1w1BvCmW5EP9nj7YfIgAekD9513DSXH/+uVZ72h8PlVub6vb2GkUeXK5x4/wc=);lineShape=1;sketch=1;hachureGap=4;jiggle=2;curveFitting=1;fontFamily=Architects Daughter;fontSource=https%3A%2F%2Ffonts.googleapis.com%2Fcss%3Ffamily%3DArchitects%2BDaughter;fontSize=20;" vertex="1" parent="1">
          <mxGeometry x="93.03809914035935" y="104.43399585814109" width="67.41489234432663" height="3.5577046218104442" as="geometry" />
        </mxCell>
        <mxCell id="OMsYIrX4x_dslvz2iAFP-25" value="" style="shape=stencil(lVjLbhsxDPwaXwlKlCjpnKb/ESBOYzSNA8d9/X25NbRe0bsT5OY4Q5miZjiUdnL3/vzwtt9Ffj+fjt/3vw+P5+edfNnFeHh93p8OZ/u0k/ud3D0dT/tvp+PP18fL328PE3L69OP4a1rhzyWOKaQpKPLfyxetUpT/33y94F8Orwt8pFBHfKIUt/GVRAZ8zaRhGx8yhTGgKMUCAhqVOAZwz3F9B/YLYQhQIdbtAAkUdAjImWICAUp1DEiVGKSUInEbAwI1UKWkJGUIkAJTyuzLKkIJBQjJWFZhYnAOWSmMKUWlBsqaK5Vx0zHBk9ZAPO4hBqoMAmwPPAQYWXIDAZlkVEOwsoKD0+LLGhI1FNAojGUNsfN3NaCEzs05gKmAgytCMY+Kg8dQsldo6dxaxxfSMSHt5F3HN6qj3DJUWzXmjzyyBgMOuUpXykxUquAErP80R2y8/izdmXXUQP0b+24RKYP1m2nfMQKeVytUR9kwrKf18yQej/KZ6XLFB7Tf1vv/FZ9QPtavi8M3YDiGd3wIlADfJrxrKxTQfo2frquQAv4YPnv+ILsxvOvtQhnVs1J2rR02CMOzzwfiC2WvlwysxvCO/4L5oFS8XhTjNTk8Z4wf1w/QyAx/oxfUH2y/rn9yF9AW3s0f3Fv81nndrP+BHsuN3kF/Nr7F6vCC9atejwXr1/XP0F12fT7jeX+LBocF2UZ8/EjwjkDS54TNAnk8JJAdQHZ42CA+i4+3BgkbxOz/CwMGhDAD0+zwCeGVsjh8RfjkG5YpCBk8e8Ou0MBKpXoz0KAByNJ1V5rO2HV88oYUApwISuwCWcxwFY1A7O8DNiUiSmj1EggKRanaPXQx6aKpTC0B55K4jWrs/54DTDagTyt73zNeV3QfKJSccVT4Czn1m+QstEAZlDVbp3JWnPqwsH7NKt5rpMLhO0mffebh1e4gYA+2XnTTbutlWA8wNx2pYRcvBfQ29Tp52tkjQzMixLGsdgfJ6Aau/kYw3RGQhd80AO0z3vqeu95nQWeckJ8YrzPqBt414MlSQP6hF3yBr3B9R7vJ4gCLgn+TWXjoasA80Sx/APCavWO2Bp8b2I/40xAPpMz9CWmBRwfGfUJf4AVQlP3IOw3ZMB83gUweDfPhm0cxNIJ89hHtY7x9uL7YPR1eXi4Pfsv/+xc+++ryOij3/wA=);lineShape=1;sketch=1;hachureGap=4;jiggle=2;curveFitting=1;fontFamily=Architects Daughter;fontSource=https%3A%2F%2Ffonts.googleapis.com%2Fcss%3Ffamily%3DArchitects%2BDaughter;fontSize=20;" vertex="1" parent="1">
          <mxGeometry x="105.03454417230034" y="115.08808836795447" width="53.551425827279786" height="48.07633177054652" as="geometry" />
        </mxCell>
        <mxCell id="OMsYIrX4x_dslvz2iAFP-26" value="" style="shape=stencil(rVjZbttADPwavxJ7c/mcpv8RIE5jNI0Dx73+vhSMtU1KGidA3xJ5RuI5S+4m370/P7xtNym8Hw/779vfu8fj8yZ/2aS0e33eHnZH/WuT7zf57ml/2H477H++Pp7+f3uYkNNfP/a/pjf8OfECxTqRUvh7eiBC4fTk6wn/snu9wmcq3eIrdVnHx0A9G0Lv1CIgdGJHCJTCOkFNkmYIXKgW4EKgEAyhdYrAh9wosCVE6EPRn60PtVIBJhX9gvWhBkwQ6tYHfUUCeauJuFhCptABoVKzJhXNAwNCp2IJmamndYIG0YU1a5QQIfvSyIkEON0a5WgJgSrItBaC2CilPhpkkcCRsliCxg2EldUH67TWL0ocV59p7VkBPjBTsyZNLQUSxzLa5Uxo4xWLhK5OWx9iIUYEVQ3rQ0yjaZcJlZKtpRhhlDpTTlaXRvku48VXRqcESk8iRVt6jTpQAEnUbIi0tBG+ULD26ANkT/W6nWDZKV5cUVAFoiqNxPp7Fs0VmZ+JaoaqrceMJIcvoIQUz/79DARS8dmp0WjtZXz3DpchyWt4p3aKR/Z3Hx/FZ4DnIVQX+ztKMFPqDo8aQPEx+vijfPE4LS74iApa7bHvT2MQWMMXp4tQqRXffQOgs0Pjn52MUkb29JlOY7wM/figPapP3h7orx747TPxFN/wN/KleHcY43qQofgfrDcZ7f3BehZfbzf6RafK5PG4H52A3uh3JvZ6BfWE/Rl5Q6/Y23NDD3k2PI2G+z94HQqsPWEEeC2eTn8SHJwmffD+ZjCkTAeY11sYz+L1pFFE79f52G0RcMSX2V4j8MDWradbPdTNKKOZqfm5T0egDjzoZSxiZ0Kmigg6gzmTKmUQU537ou2ByLCIdLJ0RRHPT9Zm1+yqSOcU9IXq57hJVxAh+XM+4cWJdRFzB02HldfYJy5HuF42HXbdWpNH8y0T0sjrmdBg8VXxa03ucL2sqkZOfcM4f5YJxedB10ukF3W2OOkCi7aUwn4f1RUZ7RBqQJot4QK+kGdf0EBH8AXNq5vRdH9kkDhdAqoNq9YvOqVUdN0p0sPQqeU5PHnZ6wIXG90jbGXo5F/BOXvWoKv7IkbXOePXKzyaWzSkyeMF2K9roczwQGHiuN26yDDebILX7ctktYJ3KRaBg8Isw5dJbwWfwiwBoOaCn6OmyRMkIPhFdJrcQEBne9+0eeH3zy4ckTp+9oLyNl7/uNyGPu1eXk6Xqde/+9tTfXS6ec33/wA=);lineShape=1;sketch=1;hachureGap=4;jiggle=2;curveFitting=1;fontFamily=Architects Daughter;fontSource=https%3A%2F%2Ffonts.googleapis.com%2Fcss%3Ffamily%3DArchitects%2BDaughter;fontSize=20;" vertex="1" parent="1">
          <mxGeometry x="123.43579827482165" y="123.3402365339075" width="55.779755094179905" height="91.82536353648163" as="geometry" />
        </mxCell>
        <mxCell id="OMsYIrX4x_dslvz2iAFP-27" value="" style="shape=stencil(tVfLchpBDPwariqN5qU5O85/uMo4UCHgwuT19xGhZr0j2CY+5LbsqtFIarU0q/jwtnl6Xa+E307Hw9f1z+3zabOKn1Yi2/1mfdye7GkVH1fx4eVwXH85Hr7vny+/X5/Oluenb4cf53/4dcEFqnwGCf++vGAK6e+Lzxfz3XY/NxeqMtg3CrxsL5GKDvZBKcVlQGRqowPJxAUAGvEYQRQqbRmQKuU2AFKgDGLImVodAJkphWVAiSRhBCiVDABKOgJK6nW5CaiRsgM00goAFnQeADVRAGnVQGH0YH8hAgCJYhoAyiTIQyUeK60C06qNkvMQSQFZWyB1HjCXmnYiTOy2dgBcaka+7AEVxGCA7Pon9A5ZAugYdIud8Lc7lNk3REuUUZqa53crUAQMUF3UlQrghgGi86C4cva5jIBGBVdOxqae5eE2ovZCzVwoCqJSUA8IoKstiz5N2umyBEjqC1GAWNrnOEbd8kc9xP5mMQZXCCEGQnPOkjsSd3ot1kE8IKLCaf88b9I7ZKoeAIO+pmugiLvaV1ooo8Jdt1zqavjPXZ2p4DN54aiYrs3PFEtcQpUz8XMeJoVeKkRqHtAQoFLj/wsIVwKeSEDQqj3rs1InMCK0XGXJ+A24YUPND9KKPUxzdgIYmQA16qQqs1EdQUNU6fI+LQO5C/Tthab2rE8A7m1+GyBev20DQiuTLWVuP8kFbnHpSo1tEUQjJarf4uwNUjJbXcPoIQZKIAYRnyVJ0EMI1NyUszoALpn0uq0PbuvcEzIVoav/gnliZy7wMDKa576TLpjzeJh05zD+GtClYMncFZcYnj2M/y5wL+SuIVOd4KWHvS4yKTy7m8ncFeM2a/rAfjdHEzz4nQLvUR+9QN4zt4f3u+rLdre7XHXn3/3d1l5d7sXx8Q8=);lineShape=1;sketch=1;hachureGap=4;jiggle=2;curveFitting=1;fontFamily=Architects Daughter;fontSource=https%3A%2F%2Ffonts.googleapis.com%2Fcss%3Ffamily%3DArchitects%2BDaughter;fontSize=20;" vertex="1" parent="1">
          <mxGeometry x="261.0356265123553" y="125.23455881204984" width="42.54908694536289" height="15.605214249438859" as="geometry" />
        </mxCell>
        <mxCell id="OMsYIrX4x_dslvz2iAFP-28" value="" style="shape=stencil(rZjbUlsxDEW/Jq8a3y0/U/ofzBBKppQwgd7+vnKDaY6UbOfM9C0ErdiW5C3Jm3jz+nj3st0E9/p22H/d/tzdvz1u4qdNCLvnx+1h9yafNvF2E28e9oftl8P++/P98e+Xu27ZP33b/+i/8OvIOcqpQ8H9Pn5RiMvfLz4fzZ92zyfmkTgvzJlCumxeKbWFeaOQL5t7R17btwrsIyW3sJdfyA4AhVrTAPNlQPzz7o4PwJMHDgqJatNARABTMUD2IASBMmugIKBQMCu8r3kWSBIGp4EK4pYitWwAtEKlatzK4TKQ/YjrKQAyL2fyZksMzpB5bOAUAIErgYKJA4NsLflM4FDyFT53aABUfybSEJDARQOAwNVCMa0CJL1XAeyorgOC1qQZkMmtOjRXLUszoA2NuBJozlwgRxEErgUqyxV4CPl5+0ShKp1PQDNa1lGIUDJaGyI37B05IMRin5f7kQOB+y/21Tgo4AV4GbPgqSEPSalZ3k7RzRIvA959HHEQOVBFTpUllk7qNxwDutwGikBiBFDFRBIFyWSPw/IMTXQQnLoHWgFtdmhVTCS3YGqz1iQuY81LAC9XEFmDyc06uUX8Hd6SApIk06otyX3LKHDm0H564ZRb0+wCqbi5USuuTAzpe1ZlXoV9kk1tX0eluPLyRI97PXs/pe2Ik/u5lIASKWInKZGRcuewl5SMSalgvCWlk63OtqSE+MQP/4swxaEV7FhTfVqkjE5hylvzlFA6mQIqjkX3wZZoZvLgDLYJmAGmzZgBppGZAaZVmgC2GZsBpt2bAaahnAGmZe0ACJxtimeAabtngGnsOwBqoh0dOrBqOOkAGk7M+NMBcB/sgNUBUOLsCCdAAIGzQ2IHwBnsGCoAUg076HYAqIYdpQVICDDDOjMsQvY5QADUX9kHhy48IPnskwa3SZkzbyZuCM+VbzIODvfmyUekuILUMy9KovXoMrjRq538PpqV3Jk0QpOAG3l/0kOjzke8p2p6gk260zIvgoPaVTs15Mn+dReTRnN53X6iZDm2V4NShpfG+FMaNzQAmHj1WRjuR+UDLiArHzCn5vLh31vpw+7p6fjUevp//bYqXx3fZePtHw==);lineShape=1;sketch=1;hachureGap=4;jiggle=2;curveFitting=1;fontFamily=Architects Daughter;fontSource=https%3A%2F%2Ffonts.googleapis.com%2Fcss%3Ffamily%3DArchitects%2BDaughter;fontSize=20;" vertex="1" parent="1">
          <mxGeometry x="261.03809914035935" y="99.54399300454077" width="103.13374557392933" height="1.3120689225590922" as="geometry" />
        </mxCell>
        <mxCell id="OMsYIrX4x_dslvz2iAFP-31" value="" style="shape=stencil(lVfZctswDPwavWJIggTI5zT9j8zEqT1144zjXn9fqBrJJhyt2jdZ3qVwLA4O/PC+f3rbDSm8X86nr7ufh+fLfuBPQ0qH1/3ufLjY08CPAz+8nM67L+fT99fn6ffb04gcn76dfown/Jp4gYqMpBR+Ty+aUOK/bz5P+OPh9QavJD2+VmKAj0IcOoI2Ul0npES5/4IylQgIzZskQjGsE1ip9iaVSlHWCblQ054QKABCyRRyR8iJUl0nSJzPmwlcKCZAUOKekCoJIGgiTT2BZyM/JiiVnhArBZC4Gue8LgQmBVGqhXLstUcN5M2U1nqLBJ7flLR0eMtaA3hTcvR4YI/hqzo8klFrxB5fMF57FcWt85s4fEX+Gr71kiABCTZ87e1hyqD0De8UZGUBisDwQR0exqdSYYevoARMDy4+m3inT7MHxUeoFYdHfcjwwj6eyF+h3MfHahqfX/o+F+cCWsNrdPiI9KNzOm/0jPKrftZYvSB8nVvgP9ejNI/Heku+3jMYNIZ3+QrUQAdtSzu7xlPQqAyLf9cEbxjUegcYB9QcKA5fNwLkCywjAVUvoIwbdPUzaQMfSJxATXEgA1VnAd+MpIRGzNLRFoJQBSbZMhP7GrAkoyGjmdg1XaFQ1gliXbEPEpuMgNOSfBbYCgn0rVLm85Y02GQGUcrq81AYfoGbD6stPAyUbS66USlLsX68BGafaRU4zMZlpjfJch+QuOfevywrEa+lfjhdx+EKPiWPVyCkOOvyBt+AUiNlVwoBt9Pou+/4AeBA8Ovf6ADE5zs86naBUvZ4lLDgp9O4L4BCu2u+hkeFaXi3vSpsRuEungoX8OAvTuO+APL1vze5bbw9XK+NL4fjcbp13v7vr5n2arqi8uMf);lineShape=1;sketch=1;hachureGap=4;jiggle=2;curveFitting=1;fontFamily=Architects Daughter;fontSource=https%3A%2F%2Ffonts.googleapis.com%2Fcss%3Ffamily%3DArchitects%2BDaughter;fontSize=20;" vertex="1" parent="1">
          <mxGeometry x="470.63598175379843" y="71.7681460506559" width="36.462982290320724" height="26.597527789853075" as="geometry" />
        </mxCell>
        <mxCell id="OMsYIrX4x_dslvz2iAFP-35" value="" style="shape=stencil(lVjLctswDPwaXzEAwec5Tf8jM3EaT9M447ivvy9Ul7IJWdv4ZktYigAWwJIbvXt/fnjbbgK/Hw/7r9ufu8fj80Y/bULYvT5vD7uj/dro/UbvnvaH7ZfD/vvr4+n/28NkOf36tv8xrfDrhGuFWplQgX//e9KopL9PPp8AL7vXS0AgcYBEMa4DaqKsI4ApCAAwNR4ANZPoOqAkkjgChKSuA3KlNgJsiRwAIPQdd0C2KOV1QEpUR6dzpAB8iI1aGACpETMAzOvNgEgCANp6TDrAvplApjVSGqMULdPoC0xpTFwUSiCsIVNNA0ALVZC4oJRGH2yT2gCAqYyJU6MGcFqqD2uokHySfOJCgvQWpTpuKQRKBQCEWhsBuICEKY4+TF6BPBjTxkRLpgQ+YEkaXZZIDVRDpjI6YDFIIKZWjGOLkQD3H3stzvbcu9qKPY88bVQRr0ldP6IMvA2+35VeR9ezRW2kdCZFBO3Ndi572OqY6hjK2Hvlijm7zPYHHzO3coOrS3PmEaSJe/M4mwe4uguk7Q5ERjrFL8wBCQJx9uagROaSPpsLCKR6RnLn3Ip58IFEFFOK3tUKN6NjVxY8WLpnZ3OF5VH86qj7WeW72qYCNmNv/WaQmhEvZvDqTLnesHf2jcMiA83ZuyqAYrzkTAVNlftiF5wBkeE+6i8YCTdT/eqI7xYIdeaoz0hXBR+t1QXfGVKs+lpFUk29FrRQAb5rFygXPRIX3y3msfe4Wd90wbNinp1Cg50gETuN2YXzirlTZwUSeFb157mK+nvupXme2gr6e1kUH0PRUbzKMt1VgP1SNCkcraYx3PqmrwFvJg3j2kGG4ZRlqzShhpSH+kOKNAwwYTb6bLWD1IdtwCmziXAgqFOljtPB8oIkxTRoncBnmDYjqY7VrkoNNMJJ7bkvlN5frlew5WH0wY5BjMZz9omzw10Fp5po1Bi3ZEc5Bj7E5A+8aT5JXa9koTz6kCpFsKVU+jSZZazCUZrnqF8cqVHbLezrfzr3gy+U7KNUufP3+sVD8OO9JhilWvygqQ3eI7SF0y3Co0drfq7aE+S0vW7qAQGNVl7oCEPAE8hVBCLHtKnoARn11mtuw1uptrhkav1uYQ0QF19oeEuSFwBAjlYXDZ+xbDFEDjd+QheXd2hAG0DSIkxgCN1+Pfh/gP0430Y+7V5eTpeZl+/97aU9Ot186v0f);lineShape=1;sketch=1;hachureGap=4;jiggle=2;curveFitting=1;fontFamily=Architects Daughter;fontSource=https%3A%2F%2Ffonts.googleapis.com%2Fcss%3Ffamily%3DArchitects%2BDaughter;fontSize=20;" vertex="1" parent="1">
          <mxGeometry x="228.454366741302" y="132.01435484399678" width="50.507812992237746" height="98.35169449367129" as="geometry" />
        </mxCell>
        <mxCell id="OMsYIrX4x_dslvz2iAFP-36" value="" style="shape=stencil(lVpJchw3EHzNXBEACutZlv+hCFEmw7SooCgvv3fBEwAHWd051o3sQTZQe1ahL/Lh++Onbw+X6L+/vb78/vDX0+e3x4v8conx6evjw+vTm/51kY8X+fDl5fXht9eXH18/X///9mmsHH/98fLneMPfV1x0sQ5Q9P9cH3iX2n8Pfr0uf376ui1vZVseXE/ny8XVti0XV8r58uRq3JZnF8jbs+v78uJ6PV9eXQnb8u48eXt3Oe2iBifk9fpz3lUZVPxOAGJ2KE4CAeRpmwVormYCqM73DaDm7QzQXJYdoBYnSgp9HmABkitCHMi7vHuQWi0yQHABZKguMxcNruxuEZtrxHDDh/cjiaeeoTpJu9ASOECc348kcT45A4AdRPgOyXm/A/QJsbQC0u58ku/t0Hb3luI8M1x2cTec1HuACjI0riU9wB7R0qeznAHAcMm7SCJuZJTdNZImAaZW9c39SGk5yzFARdxjOq20cAYoIEOaejsG9BlfC5BdY0J313Y7JFUDiTgNFwEZmgvkSAoAX0p6SFZHAma+7GfhOgZEFwCghiPON+JrFzpHJ0yGNMNlAcRF4q0aXwLVLblAXEPjq8IOWg+ZDM3J7q1ZI4RoSb0/7L6UNURZgQ5ouNxmiTkGCMZ07jQvqW+WXYailiZ2SBULSgm0iqqrpT0vlTifHNOMgHW6CK1A6gjANIomTyK02jXv3loKZz7KZQBQXSJCq9YLyKDUgfiSKhG4WPUzQo4B4tqeZmqghb3kqZMFiJRgqYgNjiTUcKVP7rIAyWUig54YAXnm82OAzEy6AIXvkM0OlRJu/RkiripHI75UrdDL9oeAZmK6eVeJ0E2wKL6/4higQu8Rp6/wbIc6ifwC8FTZuuuwg7IPotYezJGUGxDDdcPI9JCJpMqejAxtNgjHAOXBoNZO2X2vWFC6nx3RMaAhE+haJokdFABMQNUgrGdS/rUL3XnEKQBoaNcCwJom77FQj02ZEOobggBhvtExuXYeQeN95kisaxp6DQjozJkatuk3ejhzjmqkZq2fAmI2QjC9FgyhoSZ2pOJKNYZgaiqzlbwBMHqigLqHkCqOteAqtM8IYNm1VySiCmBFSwGQmYYtmfc1ZBvvxj/zPm+EZj2KArI3QvMIgsI71MoDopsIYgl/AIxrRGa4jpOlIRVzDZto1ivO7GBl6ITPKACay/8Ro92mAe5MySYaJnU9SJaFSV0O0kZiUhectox0zGP0pwHBlAhGN7qZC2oRooXU9BxdaEvdzWhDCymrWnoA6Dl64GTAtBBa22mMmpmUsgdKaMLsVm/4CSuLg40YBiTEcIPFwQ6FZrJmDKdPKO0TcyShk4pBVPegbnE+OWXTewDpK5gvKV+HvknZdGGAjDvonpn40ug5bEdA7DC6Gtih0hFT6TjlH10Na+XU0rAD75uKFTrRNDO6S2gWhY5nim3lIm+pDevThreTHfLi/6ul5oYbXT4MHnihzjJ/vunyGf8ZMy4YC+TZlZ/OQsykorCJUZ25+nYWEgkgY88xpi1sniNIde/Nc9a1zO3EiM3VFuu8mUlFIoOYmM5t9mpnoz7g9+osFCDIf3Khg2kx6V69i43JxCOdGdNHNo3vZvoofBrfMOLUHVk7GteQ+Gaoy9h6rDNH3IyN6WVTQfKdeKocFwQwvq80L8WMU69UKL0ftyIwvuc1LibsmlKiXFoBwVxBNKZWmS3PAoTZR50B4N4leZr5YsQdpNNxZYzYUQtvs97voReg3gNAMpZC6Y8CorkwowCP/bEkJ0xL/uDS7w4AkrHw3Br6ZKkLEGgHHsxkQ/g0XgEBLpD5vD801FJcY94zQDIXyGyCGirmpZholxUK3lmow7NkHEyNi7xkBcEeaOiNaSlghzIOydoBTBoh0RJX8QJCd2TDH3Nh0emYT7CW3AnO6farMFCOEXCewZsAj71YnEPLk+Vwd+9pb2jGk55WHI8DKD0dEdVEvKdjEj/vPN+Xc1EzHoZd7nkk8Z7e74d5F3mznKUSJL+elr2ADbPneQf7CdUM4yp42etpOEX8ZsXTNPvTH2HdWa5/vH/v9eXp+fn6udjt7/h9mD66flsmH/8F);lineShape=1;sketch=1;hachureGap=4;jiggle=2;curveFitting=1;fontFamily=Architects Daughter;fontSource=https%3A%2F%2Ffonts.googleapis.com%2Fcss%3Ffamily%3DArchitects%2BDaughter;fontSize=20;" vertex="1" parent="1">
          <mxGeometry x="221.00703622530875" y="131.60737638680519" width="51.845980739793276" height="100.68302678280918" as="geometry" />
        </mxCell>
        <mxCell id="OMsYIrX4x_dslvz2iAFP-37" value="" style="shape=stencil(lVhbbhsxDDyNfwlJ1IP6Ttt7BIjTGE3jwElfty8FQ+sVtTtB/pK1RuJ7SB747u3p/vV4CO7t/XL+cfxzenh/OvCXQwinl6fj5fSufx3464HvHs+X4/fL+dfLw/X/1/t2sv318/y73fD3igvkQgMF9+/6wVG4fvh2Pf58elkdj1TccFzxef94peKH45kKuN1HqjKc954EAYTSKI9PFAFA5U11BFRKDACFXBw1juTLPoA9lTQChCp4gTPFPACYKYIXou8CLIACrRQTpfGFGMg7AFC/jVaKmULdBySmOr6QHLEAgJAf4y5FSnEfkFXi0Q96RQJKZ1V69EO7Apg1iw0NvSKmfUBxVE10CzHQoTAFHgB6hYD0KYsAC4DJAbOW0m2yAFJP8G1A7emyADRFgQ6iwTd6uqgrQWhI6PctgAo9LZHcqLQ4GN6SKIx+UCErsJJkcqMfhMl7CBADWITcBhSbcSqkAxknQiFaAKoaCqhj5WtCIrMuVl8AhQqq3c6WGX0zgwRSgKka7U3ghxqIx+CrHpaZyj0QFkDAOkyhUSMx0mHydF3qyDag9gxeANIJYJuynOuRsCBq55i9J2q0AAaxoT/nagEJ2bVSyBYgICGajt4CKjKTkDO8e7PDNqJ0Elw/gXydqYZJCVA3FBDFAjIG2GhSRyCtM3m2ANgv5ckRammUQplSsQBEi3XqZxQAg6l0m6wAqEVsP6cJgDwtJDMAJWntvcUKEHFClMlKGflBQ20C1A9ydIql8IFIc46ilJuYul2BRBLbnjQhcVLzVJgqKhsaGpPSiHhb8E1KCw7vPOmQkUiaQJNIEVnp04AwiZRwrfST0rGT/R5Tm46psRxuHthUDY+7jWLHJuVuREHaW1TTk9XewO8B2PQCuAhouyNTexJQE5dstLY3UU8WrVkFz4oSpwYodsbYBrAllPYFlBntjQ1l6RcUfK2xNQDfGWMb4HpsrpppB6JVm3Oe+vuMhprSm8IFUPqIsDfUFPNCgtVbZx77Ah6Qi5+GGg8pKysrjy9kzA85d1ZezYqo18hstwI6jcJ511k/JIHVO+VO46uJGk0QScfhUQed2QvaO0iPnNVWIIN8iGxpN4ZeeLZXIVp6x5xmgSzK0YYG64gAdAhTL61fGDguTBNEiHAgCM6Gt689abcHAjXiGBoex5JnuzvxARJKsTONJijSoIfNbceXgQ9cH/9vG0REh643wLfjiNumYcnBkXLjOCrAG8KgBc6GqqisuD5q3o57aMhkb0ezgrOE6eCmx/eN3+o4sLufZUe04e2QgGX3s+zIMp9cUn94XP+47cMfT8/P13X6+ne7P9dP1907f/0P);lineShape=1;sketch=1;hachureGap=4;jiggle=2;curveFitting=1;fontFamily=Architects Daughter;fontSource=https%3A%2F%2Ffonts.googleapis.com%2Fcss%3Ffamily%3DArchitects%2BDaughter;fontSize=20;" vertex="1" parent="1">
          <mxGeometry x="296.23802153591305" y="282.03400245782984" width="50.85894413089818" height="109.26247079059397" as="geometry" />
        </mxCell>
        <mxCell id="OMsYIrX4x_dslvz2iAFP-38" value="" style="shape=stencil(lVnLchw3DPyavaJA8H12nP9wleVoK4rkkuUk/nv3ZMPREBx1ottq1BiSeDQanEv88O3+09e7i+m3l+en3+/+un5+ub/EXy5m18f7u+frC35d4sdL/PDl6fnut+en74+fb39//bQht19/PP25veHvm13v0utmZfrj9kQlln8e/HrDP1wfZ3wIEz5IYvgq0SZ8lJAIPkub95MkN4KPUtOEL5IrwQcJOuG7qL2Nb1Vqn89rouTALYnm2SBLCsRAJcTZAFsiBrWIzSEwk8oMTGw+A5wUiZNK81uKOk51bpDEymwQJRMvFZU8nyEW6cQgV1G3JWRuJwZR+hzoZCOU5wY63rcbZJraqYnNkcYTVWKQJc8rYE2WrClKnA+djXopBVG3QqblDCd6gyqFGaCe53rLXRop6IhDuwK1kV3nBqjomTGQXYm4NQYf6VKkEM5AMptboUkj6W1NyrxCRbKQQ1v1bkUNdrZCljJvqSZp5NCgRZ0LCLTASAAc8S+P7gZNEjtD8F4CUykJHGirzSs09AYSh9DGv3cDo3EI4AhnAOJhW0LyuTPsNXhuALfO7aeV0SDPDcwHroEWmMHSgFofmzzvWCOse8NSqcSrzXeHjoZF4lykzQdASzXGxJJn1utJIgkaincuBbT4yMpZ8sx5vUgg+zEvGIDvxJ82uvGOB+ORHLKhD3Y8PEz8GaS593cpLCGkZo9n8Q1Slvc3+v7YPZ5REfLTFjwpGZXm5IsqbYPqG8KrBn0DH3XBE6bTkwM0khC6BLiPDvQWfg0w3Y8uAcjUP1Y9nglIHW874FlB7vRxxJP3Q1OseOKfMFY/4kkBB9+YtvMyUveKv3MCPS1I/v5lP5UWfFnixRQRmuKCZ4QVFkLvow2+Ed/+3oIsa0HSBeJ6AOJQFOTqIJIQOvrVMQAcvxRAoQXwXrzvGI2OgDrCeegwVAf5WQgdjCXcMs6ho7KpIJ7gA5tTRrkeOnwg/lm0KxQE809dCDTQgmkLwSkVcXt7OCgsSnCoyEXDKQuYjfw9qETas9PYwEGHspkGwrU6HZqoigvVT+DQ0lR2NF/1UOuU1pebosqFx9YIZiLCxGEkbts1hluh0FuELVOdQaLTK1LViRXMZY1NTdU3M0x+dC5r3kuYLdlchmG0zCtges1sPjbfP15vX84Nkq//Eqiii2W5FABBMoM6xrbDLQKTOLH7AsqgJLJCMj81ZaNxSEtqZLQtUqKp+q6DJyw1Uvc6IWU6+WHHdbmRYjyWl2yF3+gVVvdSGaGs7KIv+svKGKlWK8X3NuO9vAY/UGPgZJFGBbtruO3mgvASSMXRPaiN6f3tksEJpDyuOs4NdhbaDQJlPvQbVw98R5jQ3UVIobnak5fMaQx55/jiRxyj11fQK9V5iI7s0EPuTgAzDMc7xaD8o0Dz+9lnqrfwzX/UYM0T+k+X95PSB97U49l5+wjn/8Yv/mQfKfpyR6RUgG3625+XCcJXfX/A8/e7GlZaYIcB5WDAAvz+r1b/gceP109kX64PD7cvbMf/+09qeHT7HBc//gQ=);lineShape=1;sketch=1;hachureGap=4;jiggle=2;curveFitting=1;fontFamily=Architects Daughter;fontSource=https%3A%2F%2Ffonts.googleapis.com%2Fcss%3Ffamily%3DArchitects%2BDaughter;fontSize=20;" vertex="1" parent="1">
          <mxGeometry x="124.12828807484459" y="132.43574614799184" width="76.43724591242369" height="200.99737118207167" as="geometry" />
        </mxCell>
        <mxCell id="OMsYIrX4x_dslvz2iAFP-39" value="" style="shape=stencil(lVrJclw3DPwaXVkkuJ8d5z9cZTlSRbFcsrL9fZpR8WnYfNNj3+wRMENiaTQA3sUP3x8+fbu/M//99eX59/u/Hz+/PtzFX+7MHr8+3L88vuJfd/HjXfzw5fnl/reX5z+/fn77/7dPQ3L864/nv8Y3/POm17vrZWiZ//ftE++S//+DX9/knx6/Xso3l/oiH1yrQr64sn5/dLEJ+ezi+v1pfnAun5xPi3x2WX2/zZ+f8sW1IuS9K7bIN2fi+1tzbT1/d1V8f6surucPwZkwaMuu1lXBXM1CITkjjyUXhEmbuUZHytOJ5wo4MSlUF8SRKmxCCs1lcel6GP1QQNwGoQCvxkUBcSqPlDmuzWSg1uTSegdEdjahgD/7VSHN2DpXMFfCqgDfR6EQtkvDDMpKsMkaS1ZdF9lfPTsO6dBFaECB0jl654UfSp8HOBRwyCQV4nqHaM7EpQsydM3oGOdXXFOgFI3wvbh0gRHpSAAlrVDyqgDYVEcCapBClSBQiutrAsUDqK4pZLpDl56GQliBPgXt6TxPfCjYxPJrClZZoas7JL5Diq6LBCrRVSo+yTV1B5vF71DIrokEKmHC1qFww9OI/jVaU9Wx5F1YPZ2AreLSuc9qcCh0l8Wlc3N+vUP2sj5kBB/V6DBx5Fwhcz5kk37IiesDPvECW/F9RHvwm0HAPU6c6BeKi8KsMGKnO1SJGnBTWpEPhlaeRuT0NTTgyiKCD7HJ3AeOU3eIHK0IxyKwFQmZVrMiQ1RRHBixlizkYBJHAgplOhIIorAScC6sfhg4ImIJ0Eu4NKBNRCvAPUZWULgUj9g8FOqkXOcKxoUdNakKT6NmEvIVHRqoyrYGHyp3FgqgtX6NJZAJxZdAFMjT4DeKSdtG4cCgTMSSbQUFHE0xgcG/6Bey5N5geJSi4JlROA4c0lZP1yq5xmCpawKB+iZ1B8A93aFPYnqqAOIc1gRq6PiEWUHN6Q7g+1EcCeSfwLhpRhbK/POhEJ0XCYR+JG4Kis2g40lraKArKiL4QmTujb4rKQWbZfxQwK0ELqHNq/QLVZas4Cf5v1BoAio7t3FNN1mdiUPr8gaNKyJ6ZXWBOi1+IV+FScss+Yd8mD3aFXliSuj1g7jvFkTd5CgjbeePklilGcOHvIajyJUN8k3YJ056fcjrELXZCx7yRWaZ8eSjF9ljbLW/Vwksxm1V7zI+jWEF8lVBowue5VW+BO4Lx2xMynP8d1n2A58neCSMqLFbwo8fEAbys1JcXlgcyHOtGQaV8n47j+L9nvuEfpC3a+fZ5BWl8My7ugYsz+W+d8n5/XTnpbwMCJpE3JTf/avOYyf2l3SFx3I37HmakDqBN3+peDCeNt2It8D9Te9yOhUmxf3BfAnOVnveTkiuSH2OVa7IM6L3eaUr8rY5WCEWTrsnsDy/3wykOsyfl+cErpIee55Mj22BqDB+huNFxetSvhWWN8WNeViJCqzaXdvsE+WMzDYAihKwIk/5wFCyOH/aEkwvZxIPQXq4wZhoPNZ1k1jmKuaCUVY15t9ofZf52LgHBcNVgNi5IIFBKwYXtgoGUl9FAoPUU0SgbVAIAQWaEkHB1JGMMQidjBqYoJOpZKQohz7oleoaFe8LoWvdGDXqaBAlESrMRNvBja51lHwkr63UeEmGrlgNfdAVN+rsmx42eJ78orMPKveNF5W1SHaA7LdtOuFVuU9cv2uS6YN8TiueVpMFcyR0ZwU1sh89H1kp6Es3Du/qpR/iNu4eCyGlEHhvV5qeOAK110uXKlF4jPdoCFr0tC5zJ1GyxO1YeMlcknRc3PanJcneL3aG+hJleKeNTBWTGZeMHwaUMMvduULiSVfxcpaW9i1C179Q+Rdyk5Ou1Di8c5XRmrdozUUiXw7chGft6bHYoDtEuZHK2/OAbLI+5Dxr5qEQZD7kjQbADGoTAiPSaCx1OeOHm8jT8IxaziAQ8goCSc9ly7bHTkWixnswHwp5gue5wpEuh0LSm8HIMJOiZFclclFEDqoB09isrEUxBcm3ocArXS/pD3CORhAAHnmkvK2lm2yRoEC7x7EpV5y1cNc8dvEip8emnO6QNSsunKKoGKovR72hwU6MkueePECwORw9V2j8NiXeWN43/gXTw69RleltStOe7sxbQSbUuBhEgWb8plfroCKUcTfejoHsBHr9oh+C1Mgj4PeW7lxh6+DG0EQdKXNLPKZWAoxBOqnnC3qK+r5/OhSahMraeWkMvq9QA+Sfgg8dRVJP4IybpqCJbtveaqGNUk8c0OZRHzc6O/XsrzII6DcUaGwJWpvMNzTmzCklKHXjZUWWFXQ8o1zTM0m617e3OFE+r+uVV95B5uZ4Zrp67FhQX5MnUuJlnwF5Yp9e+rdvj8a8bHx65wA6RgnX5OkRjp5Evk9yf/j7qW4ew/xr8pXtqXrPMahke0r7b69jvHyTejGZvQgItV49U1CU8KcfQt+Uxz/eX11/eXx6enu0ffl3fqWNj95eeMeP/wE=);lineShape=1;sketch=1;hachureGap=4;jiggle=2;curveFitting=1;fontFamily=Architects Daughter;fontSource=https%3A%2F%2Ffonts.googleapis.com%2Fcss%3Ffamily%3DArchitects%2BDaughter;fontSize=20;" vertex="1" parent="1">
          <mxGeometry x="136.78500445655936" y="134.03403624761722" width="70.17764496790392" height="188.34449217653128" as="geometry" />
        </mxCell>
        <mxCell id="OMsYIrX4x_dslvz2iAFP-40" value="" style="shape=stencil(nVjbUlsxDPyavGpkyxf5mdL/YAYomVJggN7+vnIzDrF82NC+hcSLdVmtJe3k4uXu6ulmF/nl9fnx683P/fXr3U4+7WLcP9zdPO9f7dNOLndycfv4fPPl+fH7w/Xh76erfrJ/+vb4o/+HXwdcYIqpoyL/PnzDJPr3i8+H8/f7h/k863Q+k8T3zzdqZToeIimj81rn841ig+fDdD4KSYH2e4CSVACIFGcPREiBx0Go8QxQCgkAMpU5BSlQQTmo1OIMSFSBSZbTlGdApSIAIMRtzjKmRSxUHUAogDx0YsxO5zwyswkQ440D4MRJGVEfgMLjX2wDGpU5rEUoAq6mSGUmazmmchtQKM9cKkoMEpcXtlZLJQhrThTmPNRIFZiU6wJI1PL7AAsiz1GqdUjCNsAKaI5SbcSAfMXIPEuM8iDLNkApzSapOQ0SVwPluR40kQCnLSZJZkCGYbWYRGeSRQkkTpewqkIhMxedCGgb7NoGZB/WxlRBAZkBzocWhrRtA8yAma0tQi6ZAXEOaxOYaQMUB0jnAM2ZlMc324BAdaZGK1BbzeI4F1Crg47bAB3PxxHQKIA82M+1eoCAArKfW/OAjB7dRmm5oSCTjBrZA9CjaEFcb2jIByvIsABQIxC804GtpjBda1muAHS1EtYFoAhgXqsHVMC+XqPLDRndkP2727kB1NhMykvmIjLJmo0lc0jvLay+5JQaAJhIhLwAUFGn8QaeApDOFCq8+IBrVJYoBVxyWZawwj76SM4TREJOtKFDp0WKnaiLTUjwTbjCWnNINzLxEqaGboie3+eK1AR8LSF0hb1aKXmAAuGwitCF4BU9pP8KqKuAV1jVVRcZKDBzBsiOTPiZM4CbORpu+7pJ7gaBeeg3LG87Y5PYOR0xwBp8ZxLDTFehvLRMaNCyZttNr51dINPWibpe1+QTjUE2MDh6m6KjIcW66TwLvrWuCTX4y9uueAK3OcyxVQPMg016rhnoDT7IQz7+v5MRIgDyJRug5yjVDE1KeWMMQtOlTdw6s9Vyj0pUrILd7KeDjtsAoeJmvwx7AeGtcRTN4HU8UScDLxIBm/J1LiAbqRNaCyzddB/a0fKkeiHrZAFvVkh+DLIRGHXTIYwlwOlqA7UnvvvuuxM073plNaqg2TL5R7dvf4ACmCjOQtzXSyAHwWtY318Bf9lPrmcWZOzjeWYBx4OTH1zw8YjGx/aHS5eE91DsW0k+Y7wTU4YLn+BHPYZNYRyN9dtxtAIQP/Ew7FGTH7ZxI3XcV3zsePHrOWyMjo3Ox1xV/67iQDYvnWfSxL4xwCz4jx34mfP24W3hfru/vz/s609/9wt6++qw3JfLPw==);lineShape=1;sketch=1;hachureGap=4;jiggle=2;curveFitting=1;fontFamily=Architects Daughter;fontSource=https%3A%2F%2Ffonts.googleapis.com%2Fcss%3Ffamily%3DArchitects%2BDaughter;fontSize=20;" vertex="1" parent="1">
          <mxGeometry x="116.23397220701804" y="378.83811363620896" width="11.050132165634864" height="148.89011426161676" as="geometry" />
        </mxCell>
        <mxCell id="OMsYIrX4x_dslvz2iAFP-46" value="" style="shape=stencil(lZbdUttADIWfxrdnpNX+XlN4D2YIjYc0YUKg5e3R1mOIlkSd3vnv88pHR8c7yc3L9v55MwV6OR0PT5vf88NpO8mPKYR5v90c55MeTXI7yc3j4bj5eTy87h+W8+f7/mQ/+nV462/4s3CNUEKnAr0vV2JCan+v3C3Abt6fAxmlGCAJWnWAhsoGyIKaXSCJAUoEeyUltGyAqis4QG2IFmiMFh1AVbIltYLE14FCyFYlJgLRdSITJNolGtiRKRGq7ZzqQE4jooBtI2oFO4BUkAVK84EMsrrmBhIHKGMjUkV1VIphXCGqW5zO6W1pFggITklaQK4G0CKzs0KuaMkCGSE53lARrZlU6OB8dG+TXUFbGfyBoGFG6V8zykPjCLFcB87c/OkNWoPh8hI6MBbQofJa3UdysGtbX3FZJh36YUg1GJySeqzYkr6i53KrBeXbjFYnBjQa6wBofHozmhCHoVZZHTN1QP4HkDima09Dx0whrm7+BBKyE0yc1rQ+i43ofHRBtW4tDHHaEMYwzrym7cXn1ar2AxKvKXLteWuLSODg1ZNsYgRfUc0TWz831xQcR4GYkZweBxmBBHEmRz0x/Bm0AY6garpBofHfpgdfO47HebdbNizn98cdil5adjdy+wE=);lineShape=1;sketch=1;hachureGap=4;jiggle=2;curveFitting=1;fontFamily=Architects Daughter;fontSource=https%3A%2F%2Ffonts.googleapis.com%2Fcss%3Ffamily%3DArchitects%2BDaughter;fontSize=20;" vertex="1" parent="1">
          <mxGeometry x="347.66317708560723" y="100.65549413779752" width="2.51462274023811" height="2.522336761604606" as="geometry" />
        </mxCell>
        <mxCell id="OMsYIrX4x_dslvz2iAFP-47" value="" style="shape=stencil(lVrJchs5DP0aXVncSZwzyX+kKs5YNR475Tjb3w84KvaC13qWbnIbYBP7A9Cn9OH74+dvD6fov7+9vvzz8Ov85e3xlP46xXh+fnx4Pb/pr1P6eEofvr68Pvz9+vLj+cvl72+fB+X49e/Lz3HC7wufdy0Ppuj/XB6I6/X/B58u5E/n5w15dKnvyIN33V+nz86XPX1wlZxfXITzQ7tOX12L9vrpOnl3sdjjPaHX04Klz0RclS4lYCiEIbrW4EadMGQXxEhcI6EvLu9f0F1l51dX9ypqLjP6ZgWoLgVC313fW1hNThwiiJM9fXaJKDQGF/YWSK4xh47WJZIL7Pzk8t4l1IJC6LMrydAn4nGqjmo8aCrsmL7O16/0jXiomlOMS0+BjunFeeOg9P7JW/9Ug5D7pDDNudIz/0/R+rMmIKL/lFyx9CwBpexasvTsPsX1YuhLJvTN+WDPZ/rp1p81oTB5xUVLn0h+yN5mLE/9P6u7REPvWQGIqH/mDzm5KvZ8dp+M+g/EXrnOhL/RD6NvLoK/Ef/JfZp/Ey/EXllLTDT0zJ+LhpPNP8y+Jc6CtdJXdn6ygCC5ROxVyqzPa36OpGCXau2rCY/knwIluzph8i4AYK13ntirqnmqoa8kfmt0spdXqD5rhnzuaUGqS/3cQCaW0atmdPOGSEOsCrhonLDrkKEFyOlx4q5jhjhttDAsafiYIU8UuTAUCiNanVl5YajUbk3j0qhVI5vI0D3YodHM2yNg3TZ995ghzRtvZIgMvWqsGbUu2e+Yoc4bb+zALN0VzSFeZ1rq1tIy8cUxoNZsvpe5z/g7pg+zGm3CnxhBAM6VCeGP6ZNNj4WWM1E4t5c303IjxfppovBDxAWbfiOTVywcLTN/X6Ov+3SnodyJgZXB1NcBqPmNTIJUyFNYR+AXBLHIECdovvqKvZI0B76jJZNeNLojV1PZm204LldTMnFQaOAogwkE0WBlQnfbaKmvM2QhgEQ04dDY1FDcv0ETfydZWxlMt17U1CQfIYPCw8zsAFfSfBG4DLa2VdpPoFobxSNoN61sPKCNY2RuNfS82QDf6NraMTdmNAiexIv5QXxmPhPAFKCoiaUATDJa31lxxjSmlSvclSeF41RMxBqfjctwJwOUBmVILBig9ugRNHdDcZN3qhtUT8lcrVCe9Z3+rvqvRzDcdgAw9AgGwwDC6BGsw0OQ1CsNCIRh48ldQE+fsBhFKKlPGnsDgNXOIw7h8HgD6wEAcKsMDLkhpO+ZdkrYNHReEbEtUdszdIuNz3AWYmlsrZRBWGsFzdtwPsYA7WEXikwO+k9POyVscCVQw2EHrQxCroQt+kgCxA44AxBeFHHIoImsEdfAKcZIxmyMAWMSaVStOIdRBjYoxEGPcCiDkyRlYNAER1VrTbpxFiZ8mYDDNhFagXCaN7ABG+fBuHAwsHkhzCM3eOXGiecKP24cqQ41sZkwzGwHqiOWw6HwwCtsKgxT58Fw11h7BaY3zs0HAxtsw2B+eB8TGib/0uloD1cLg4HtOmB3MSKI1F1cjox+gm13YPsiPN/jemdkASI07o9GnmEywIJKGSLb8CDoqzQecMWmDKxm4Q5vYF+2FYUloRYINtbALaQkCjZwzanYtxA74B51lFHGgItavmnAVbBCARYPuGxWBtp+22220rPdE9T1vjR2x1ADlvF8eQ/L/s639/AxwQBXxCvgY4WBrYi8+C2Ep/XTz85/cx/Wq/sJcjZ9A9sVLjOqzdSK7cK8jUuF1OzjDOjFFI2y+TPO6RQP0PvbuYHiOFKk4D5a5tiqBOSNfAjg4esPDkbAXhrT7GMO8AeNUDY0vPPbm3fJ9cf6mc/X89PT5Suh7f/tZ0H66PJJUfr4Hw==);lineShape=1;sketch=1;hachureGap=4;jiggle=2;curveFitting=1;fontFamily=Architects Daughter;fontSource=https%3A%2F%2Ffonts.googleapis.com%2Fcss%3Ffamily%3DArchitects%2BDaughter;fontSize=20;" vertex="1" parent="1">
          <mxGeometry x="261.6566407559908" y="103.26727338209503" width="100.73597227755829" height="1.865508167450571" as="geometry" />
        </mxCell>
        <mxCell id="OMsYIrX4x_dslvz2iAFP-49" value="" style="shape=stencil(rVjZbhsxDPwavxIUdVHPafsfAeI0RtM4cNLr78utIceivOME6Ju90ki8OdQm3rw83D5vN8Ivr4f9t+2v3d3rwyZ+2ojsnh62h92r/drEz5t4c78/bL8e9j+e7o7/n2+Xncuv7/ufywm/jzgmzQtI+E//EMK/D1+O2x93T2fbI6UwbBeKYHujOm6vJGV9e6iU27A/RKq6DjB5Qh0BSoUBoFF2CiSscCGJAyAycVwHJCGVEVCIwQ1JSUcdUqAm64BsNkkjoJA2AKikZQDkQDGvA0ogHqMiJ2rADyVSGa2UtXvmMiD38zrA7gwgNEqlNlrJ7oQiNSqjlUqhCKxUTQAHUAwQSqNIlUmAWatZyQGkG/oyIJGOItkRFYlUKPAIyD3gLwOqT2j7AnXQHmongFIDIilTGgH2pYEUVfE5bV8UiKTRi6SJKrohUxnDW0uP38sAs9IY3qr4hkZhBDSmDKLVll2lbEICEsiWgwPEHvCXAVa6xyLQEqyty7K7IVMFVrLlNpq1mVlRd2gkYxFop3BcA2TxgAz8YIAaPaCC2moAF0tNiZFZmy9kBkjASoGtf7BHoPhernBKNJiji9bNA1BXXOw6Aa6IFIsHoGpsyz5crwDMJvohkazxTwCotFJOHzKrOXZy9RWR0hRMKDYWkaYbYPSppwLX4lunHL2aQaF5wJUcTZNICXT2xU3FA1A1XgJhugERpiXUijergJ51OUcr1tpfYYa7Umim6EtApgtmarh+z45o3fnvdPWZHf4XIk+FQzs5XetCjtGYsxWlhPiJxroQbFthaoyZEnKdqeiy1KgoCA4jC75tCWTHRkfUKc0wYI3R8ERQICD2QeyMAqHSpMEXPyNZqLlXi05HsgT6wXik40xGFBUEuJHdPOpgdzICZBJHpyskWca2XbW0I5CV6jT82REZDx1+Qg7dbpcBRqdHkWzQUSCSDTGuMtkoVUEC2bKMSW3DWkSA3IfJE0Ag2bXJjUelc4OxVNhPWrnAnpInHTKeIWymdpXMxnJUBGzZKZ1iz5C1d4E4hkasMDRi9r09BtgXxaJ/vEEwYRfxlEm4Z8ja+4xjcSHj3u4TTiHpkz4YnmwK2Q97iwY4WJpuTniqIPl50hW6i7uob9sjUHUiGKfXh/dtxzM0+3bA/eVhTVV/egLJwj5XGFZRc5M/HTEj9rQFv7exp8yYgHCnx2fboTAfeh69ut1+vL3E3u8eH48Puefr/uXWPh1ffePnvw==);lineShape=1;sketch=1;hachureGap=4;jiggle=2;curveFitting=1;fontFamily=Architects Daughter;fontSource=https%3A%2F%2Ffonts.googleapis.com%2Fcss%3Ffamily%3DArchitects%2BDaughter;fontSize=20;" vertex="1" parent="1">
          <mxGeometry x="411.43686493371047" y="683.6340556259129" width="95.63675695377901" height="56.45037684084241" as="geometry" />
        </mxCell>
        <mxCell id="OMsYIrX4x_dslvz2iAFP-50" value="" style="shape=stencil(rVnZbhw3EPyafW2QbJ7PjvMfBixHQhTLkOUcf5+aCBwta0a1CZC3XQ6LbLKv6ubFP3y///Tt7pLC95fnp1/v/nj4/HJ/8Z8uKT18vb97fnjBr4t/vPiHL0/Pd788P/34+vn1/7dP28zt129Pv28r/PmKC9bzBkrhrzkQ4z8DP79Of3z4ejXdLY1lerJU3p9erLVlerY+3p/eLaZlerOU3p8+rJVlerchZI/Rui/zMZJcANzGKg9GqgJUC3EFFBtNALqlsAJwBwIA9aS+KgAjVQCSOWksWe4CkC2vOsNIUTvU+XkHYETt0K3SDhgRAA/WVj1gpCsrTVbXQ7tbEGfwPAXYAcWyMD2vfAZv1rIA4IiraeRgQbgOPufVWjMUJ86Az5GcLVsLAuDWV8VlKE64Zy6s6dy1SG3a5gSUYC4Ul3cP3gE4ldgB65U1BpQ8XeockGZ82wHVkhCpwOXpDN2C2qHM9XbAsCFMAwK01Vpr0jt081Wk6jLybQKsYaYiMguPq9F89YfaZOSDxJ12GDIz1Dz1usd67dP1YHwtTd2fA9r0rx2QZbivfYatHVCkSJA4Ub5qMvI1ZCACDIvC45pzMO6IhcIfIHGinIioIWwJEifaAZoR1wqJGYBbEimrR/aH3mQG6ojV6y31IUMlJG6r4kaQka9Xy6vHjTTz6jkAWXkNxsNnPD8HDKsrrxp5cqFzLhP50KPMJc4BSOwkUjVXbMlncL8CDOEPkJi44YDixKEhMfElAIo69GBrBaBqACsOaVedARwxMkCFSgD6at6jSxcFYHQGFEUSQ5jR/QpxQ6ZBihjSXLdDRAZU4RDbZ2dAV9Y3ZlS5AgwtUiwHgLrXAxXYRNIAVvXQxtQ5owDgGsDWNybh/7eALtPoJtLB+qSmO1Pjzb41YDgDZGAaTCs3H9WazgeXU9F4HGNlu2V8lEZxqnDDRwsDVCQ791HFmLYt6JqGZK4ngWZYuXFNB+u7obncGaCI6BZVqEB+u4f/C1FmvL4+hbrYQz26nUsd2w+RplsX9AGpdxx0HVUmRdFxMNik+howBQJUWbWDIbFLFBlpwME4C7mM+OBMnHpRdIjQBB5ZyOmC9KGNqa6aBovqirt27hbhGlQN0erkwldUtAgDRwFAKQJcsyn+ndg0uq5HwfCpJMA1qJoaZRKxMlyDahmhrKFY1pq0pVpnUrsqaxSzrAfe13R5ieqTAg3uLaryMrE/oJRSPaYaWHFV+3Q5VCm4BkU3yt6+uSqRVScUVTudAdegWnclc25HlR2Fx5W9Z3XVSFAFbImzG7MD2qzjz9stgwl7KbNd+F5/xgngsrzMlRtrEFJpOmcOZHmn8O91sUjTuc0+7zkgTnq+A3QB64PLS+xZRX7wzuQBeyoX9cqaxhJDmLdnC9R+rJJYOjxuFQlLqJTlgbMolgi6q0vN+zRkIEt15psdAMWpHQ7t+FRkEEiHdguWaAIQB6espK01HvJ01OQkFibHWOLGG4QTQL+hxEMGinvmPmczzO9jsKSSKHdcu6zxC/f5qlw98ZuOS+8P/B4VpRuEmZbepivKHWZV8TbdheyBDTrKTtqhxAjS50+mqwcHTOeHPUWNArfFg7kUJrEwquseOG0EWa+BWBaeLiw4cN9WlyCH16Qgie9/fCG9OR0/3h5jvzw8Pr6+5V5/58dbDL0+/PrHvwE=);lineShape=1;sketch=1;hachureGap=4;jiggle=2;curveFitting=1;fontFamily=Architects Daughter;fontSource=https%3A%2F%2Ffonts.googleapis.com%2Fcss%3Ffamily%3DArchitects%2BDaughter;fontSize=20;" vertex="1" parent="1">
          <mxGeometry x="404.234867289799" y="688.4327003137983" width="100.06904270065138" height="65.31969598881074" as="geometry" />
        </mxCell>
        <mxCell id="OMsYIrX4x_dslvz2iAFP-51" value="" style="shape=stencil(lVjbUhsxDP2avGpkyzc9U/ofzAAlU0qYQG9/X20zTtba7Fl4S7w6tiUfXXdy8/Z09/qwi/z2fjx8f/i9v39/2smXXYz7l6eH4/7dfu3kdic3j4fjw7fj4efL/en/690kOf36cfg17fDnhGPKOoEi/+0L3P4vfD2JP+9fZuJCJQ3ikQqvi4dAzIN8I01AvlHNg3zIpLoOsAvVOl6IqQYAUMoyAgpNf1c1zpRHFSSQlnVAMp1Hk0qlJACQqY0npEixAoBSiiPAdABK59gvcAZot9t1QCYeT7AtFJ1Q/ZVsiwaslJWaAzRq4KXL2SYdYCsMrlQSlfEdimmVAaASlxFQodJFSUazVnMn4D01UBl1qEIBAVJX8QzIVACXaiEZuVRNB0Dv2kja6KHcffYqwD47pVugBrjU7OFGszaLIuAdWuoh6AzIJAhgVHNXKvDhmrF1DGOtUQRxyT7ryNZmPgjYqmal8QRbqcCsatQYlbaVCl5azSFHLtlKBTqomdUBBLJVM4UxGNsWGXBJCwWndIaRT6tPD4oDmQFq8wAF1FD1+UEtzCAraY9CM4ACehvAv4N2u13PccwLrbWzZfWI5gF5AxA9AJLJtA4egJzaPnu66paZXN6d2WENIZ89IqZPKuH5amZCBNeFC20+hEsp20/tiofLJVd1WBB8y0oLgm94hCseDICKh8kmbQEAtcCFnPMroTBg75oXSuOH0+zNyih+ay87Z4CIguU1QNoALMhXsFm90trz3kfNqrD6Xj7cB3zUc+Mcq1bZt3Rq/NSfBFSKzkwVR4HSk9oMgHogS2qusJyyFkpCyXc1toUgukrvYWaZVxBdrQ1zAMGpOvgqzrbIqGTS3vTM6pMEnNpKpuyU5l4IrhVlLrjamajAt7IvjSfYFgWdID5pWZ2IosClsj0DEiXgD9Ws5CpR3CBP1bk7gWEKsvrf1SdWwaNquop36qlHAFHAmpTouhqBDlSat9K0BXiHUrpNzo1Wg5WotXJxdFFr5VCXX6x2dr1fhNSwdlRGLtlKBmbNxWeUXKDH5eT9IePyOwdPjcyd8NfHAs2XianArJgsCo0npAinLYl9/yqtlx9rwxM/C4lb45kwvnQsMKFE8Q8XA8y7ofnOLJTeVKzU635EprCaEZ9/pDebV8W5DwAuAzjU0Jh4cOLIN7lPPC7iqHRjP/Zh6DWLRoZhNcx+mGF8Blww8eTEBYRS9lQzUwEus29ubQHu7oLi+XYr4uINiVIZ++kZLru4p+qZOPDzT854N8Xtx2Wc/Lh/fj5No+ff/fjZlk6ja7n9Bw==);lineShape=1;sketch=1;hachureGap=4;jiggle=2;curveFitting=1;fontFamily=Architects Daughter;fontSource=https%3A%2F%2Ffonts.googleapis.com%2Fcss%3Ffamily%3DArchitects%2BDaughter;fontSize=20;" vertex="1" parent="1">
          <mxGeometry x="202.63465047816328" y="560.4354423224888" width="145.46919207571193" height="110.09851137884607" as="geometry" />
        </mxCell>
        <mxCell id="OMsYIrX4x_dslvz2iAFP-52" value="" style="shape=stencil(rVjZbttADPwavRJ77/I5Tf8jQJzaqGsHjnv9fam623hJayoDfXMUjnZ5DYea4sPb9ul1MwX3dj4dP2++757P2yl+mELYHbab0+4sv6b4OMWHl+Np8+l0/Hp4vvz9+jRbzr++HL/Nb/hxwXlybgYF9/PPg0TN/37y8WK/3x2u7BtFHu0zcVq2l9dxHAGFagEAppRGQKWYlwEhUTWA2pYB0ZGvI6CRYwDIlLIGxLAMSI6iOSGBKyWJUtCA4gCAyXsDAD7kQC1pQAVhzYVcMXkAlZEbsXI6kwc+FE9FhTVQqQCQyI1OMzHwuRQK4wGVcgT2ktWxVjMF4EB1ui4ijFANlFSEKIMU1NTD0e1d743b9pVcUvYO3Z+pNGWfQTxbMH1AGbRBk/CN95cXgNZvTRd1pAC6hh01HX8UT5YWUV1GDO7DrFsg9QQu2SfVMh72mADqCBAPHMiwAFh5XMmDE7xzmuCFCRCzzEeMgCJ0CqpCAKpKm+95XAKoNmPfGXkpb4odufQnSwDVaFzh0BGA6hyOOEpVt06TuYl8qJTG2hY2yPiEMNZGFh/wCQqQAgUUJXMl4ceEMm2cnhke50GFtXT5sDJv4gFqB1MY0j6IMEzltT4VV5a2DE3Gpa2aJ4oHYOTc6M/0Ny0rKaDIaMcspkimlj6pV9KYEHPANKZ4kjMctJaI3yvlPwHMaBDKSMAHO3sEUO8abtIeGVzJTk/GotCO5zkzSF+Y+X9VXisVhhyRQTFZCTM7gTSM0UgSVyRUrQhjYVYkI43K4wDH9A0Z6fqTlUK11X7JlVJYpgMDH6zYlmq5T87L0EU9ahcGASCxalcSASS0kpilp2F5aNcqAZS7FjcBIDq2q2HDI9Eun3MekL4y622LcGSZ/Vkqw6F1WI8H4R0PCsNpspf3I23lOlFfizdwH6e7U4ZJBP6alBW8szndCDLdEElaeZtg/O24zVAZmvuI4EZFbfyNmFtMPEXCFHgflS+PJYypB5FsDQmSO78H/dtefrx/fHrZ7feXb1fX/9cfq+TR5UNXfPwF);lineShape=1;sketch=1;hachureGap=4;jiggle=2;curveFitting=1;fontFamily=Architects Daughter;fontSource=https%3A%2F%2Ffonts.googleapis.com%2Fcss%3Ffamily%3DArchitects%2BDaughter;fontSize=20;" vertex="1" parent="1">
          <mxGeometry x="776.6381052438751" y="75.7957726058163" width="56.05173040384102" height="1.6084975129767827" as="geometry" />
        </mxCell>
        <mxCell id="OMsYIrX4x_dslvz2iAFP-53" value="" style="shape=stencil(nVjJUhtBDP0aX1XdrVYvZ0L+gypMcIVgypgsfx91XDOx1DUPktsw6Fnb0zY7vnl9vHvZ71J4PZ+OX/c/Dvfnxx1/2qV0eH7cnw5nfdrx7Y5vHo6n/ZfT8e35/vL3y92QHE/fjt/HL/y84AL1NEAp/FpehPDnxeeL+NPh+UpcKHYnLkA8Zkps5IVa35ZPTLEZ+RgoZwDoFMUC9Cd4G8BlMXgFYJOyupAtoFFpIESR2MYoRcoVACqx9SElKgBQEmWbNI1bAmkolQJ7AAprjRSKBwgCZCoToACTaqUaPCDGbUALPnEaJUYAphB9HhLwoQmx0xAgl1qduKR0TADQSarnUizbgK7McfVQKQENnYmrN0kAl3qnaslXhIJAQLf1oGTJqAeEtaWsiAbZN1RYfmtq3gFUC9DAoQpSQLYm9UIZJaJ7MukbRoloJM0DOoqrMsFmTt8k0Jh6peZMyrAZK0Bs5lqjjjW4Tta05EBBDID1oQqma6VsNZQGyaSAan3QZijIh0bBapC2eLUFcCZJoYQT59iqAKhhZc6VSRUDXHMt2u9B61NAc2Hty2D9cI0WCriCurVJ+23EgGY1tLVqtwDiilqWqbQFiJYbmpqCwqRht2PxKg5bCDciRmPAJdQnJzrIhAKKq+rwHwBk0jRTdAHJaMxNU0sJnoGGeS6KkCAN0+SVvCT/g7NdGPaNeXsQ3Mrm/UT3OgFkmjcgBSAuzTuWaOLQ2jdtcQOA1j7dE6MHoJIbm+ikIaHVVXdd60PusAuMbdqGNReYaV7n8gpg6iBx4yKwTueIT4j1YFgA3OHap0eNm9QssAlMRxPjo2a6yVQeuRw8Vcfvg5YR/IQbMQONNSx79iqvTIT2R3cLZDhBw7JwXu3daFWaZlWssJZneXybTPZ02IEndwu8D6doMrw/p2RFqqDAJi4oHobyn87/d8X14e+XhofD09PlQ8X1//2XCX11+arBt78B);lineShape=1;sketch=1;hachureGap=4;jiggle=2;curveFitting=1;fontFamily=Architects Daughter;fontSource=https%3A%2F%2Ffonts.googleapis.com%2Fcss%3Ffamily%3DArchitects%2BDaughter;fontSize=20;" vertex="1" parent="1">
          <mxGeometry x="766.2381113473907" y="64.83395923704734" width="60.993890737431684" height="3.6599313093732917" as="geometry" />
        </mxCell>
        <mxCell id="OMsYIrX4x_dslvz2iAFP-54" value="" style="shape=stencil(lVjJclpBDPwarqrR7HN2nP9wlXGgQowLk+3vowk1GGl4Db6xqHlaWlKLVXh43zy9rVfevR8P++/r39vn42YVvqy8375u1oftUV6twuMqPLzsD+tvh/3P1+fT+7enbtlf/dj/6r/w54RjcqmDvPt7+sCRc/8/+Hoy321fL8wTtWjMfV02Z0+tKXum5oF9oxqUfaQQlu3l61SUvTgI3A+OQlb2hRKyzxS1/40Y2Ec/sneO11FuAFCIdQAciEFGE1PxGpCIIwCkkfEzIFMtANCo6BxxpcTLgCwemyfITyBAtkELjQooc67UqgYwTGthSrpu3lNOABAssTsAPSHboAUQQOFKpTA9wYFeqI5imYJGAE8pW4AHQddIJdo6NECNKsxJFoCyVJsdLwJADdfE42CzxCDoFkaIZ0CiBIJuybokQ6FlAGjj6wGQRGfA1g7Q5KsFTkkBVF0HSUPBLiVNPokqgToIwGkuNaEjAkjLG5faqP11QLEt2gGocIVimlwCU0MAjm3QEbC15cHNi7RmRL48mHNROEYuCUAHLdSIqHCZinZJxgLjtLJZWBEOAQFkXbjiyYP9IFln45L0IEprtVNDABWltdkWlWlbcD9kAyhQlfSO09SoTAxalJ2zi7qmsVjvfERzmK7NFqJFihhgRl+vJYq6WinwMRcWS23EhsNyr3tgHlHhhuh8NVFnPI7zoMIZ4MckubfnKlztnwf4IXfOotKPWbW45XTQIuvgap/2aMxwWM6bWgAJdPWsBQSAxkBXGwaQoEtdz3gLQFpdFJPTdYgRqj6ZEjZLAe4gmUNRF070eAJsFV1pzw1JA+gHUa6m0qHCtIo2NktLTgq0UkR9Z12HEG/pexND8HAKyAWRDcDBSncyG11Z4ZUVeRLTckeBnu5nllF9EY6Zfsfp8e3DuNQWD0UD8KOUS5domaXujVNXB93PJuDSdEpzGcfp9QdY3crnVX/V3o2lfPn7wB9nJ4bciUjmSgmMP2lUccGedfvLpVuhvWEdC61A908bXfQnDNeYFyi5J28SPHymYCVW0PVTLkWzgY6cSzWmzH1McOQ/QzSsEW6ay4uPf59etrvd6c+ry+/tv1Xy0emfrvD4Dw==);lineShape=1;sketch=1;hachureGap=4;jiggle=2;curveFitting=1;fontFamily=Architects Daughter;fontSource=https%3A%2F%2Ffonts.googleapis.com%2Fcss%3Ffamily%3DArchitects%2BDaughter;fontSize=20;" vertex="1" parent="1">
          <mxGeometry x="609.4380930368438" y="71.23395313353171" width="53.34131191746701" height="6.416111395062558" as="geometry" />
        </mxCell>
        <mxCell id="OMsYIrX4x_dslvz2iAFP-55" value="Hno" style="ellipse;whiteSpace=wrap;html=1;align=center;fontStyle=4;sketch=1;hachureGap=4;jiggle=2;curveFitting=1;fontFamily=Architects Daughter;fontSource=https%3A%2F%2Ffonts.googleapis.com%2Fcss%3Ffamily%3DArchitects%2BDaughter;fontSize=20;" vertex="1" parent="1">
          <mxGeometry x="386" y="790" width="100" height="40" as="geometry" />
        </mxCell>
        <mxCell id="OMsYIrX4x_dslvz2iAFP-56" value="Name" style="ellipse;whiteSpace=wrap;html=1;align=center;sketch=1;hachureGap=4;jiggle=2;curveFitting=1;fontFamily=Architects Daughter;fontSource=https%3A%2F%2Ffonts.googleapis.com%2Fcss%3Ffamily%3DArchitects%2BDaughter;fontSize=20;" vertex="1" parent="1">
          <mxGeometry x="486" y="870" width="100" height="40" as="geometry" />
        </mxCell>
        <mxCell id="OMsYIrX4x_dslvz2iAFP-57" value="Rooms" style="ellipse;whiteSpace=wrap;html=1;align=center;sketch=1;hachureGap=4;jiggle=2;curveFitting=1;fontFamily=Architects Daughter;fontSource=https%3A%2F%2Ffonts.googleapis.com%2Fcss%3Ffamily%3DArchitects%2BDaughter;fontSize=20;" vertex="1" parent="1">
          <mxGeometry x="486" y="640" width="100" height="40" as="geometry" />
        </mxCell>
        <mxCell id="OMsYIrX4x_dslvz2iAFP-58" value="Adress" style="ellipse;whiteSpace=wrap;html=1;align=center;sketch=1;hachureGap=4;jiggle=2;curveFitting=1;fontFamily=Architects Daughter;fontSource=https%3A%2F%2Ffonts.googleapis.com%2Fcss%3Ffamily%3DArchitects%2BDaughter;fontSize=20;" vertex="1" parent="1">
          <mxGeometry x="640" y="648" width="100" height="40" as="geometry" />
        </mxCell>
        <mxCell id="OMsYIrX4x_dslvz2iAFP-60" value="TelNo" style="ellipse;shape=doubleEllipse;margin=3;whiteSpace=wrap;html=1;align=center;sketch=1;hachureGap=4;jiggle=2;curveFitting=1;fontFamily=Architects Daughter;fontSource=https%3A%2F%2Ffonts.googleapis.com%2Fcss%3Ffamily%3DArchitects%2BDaughter;fontSize=20;" vertex="1" parent="1">
          <mxGeometry x="730" y="740" width="100" height="40" as="geometry" />
        </mxCell>
        <mxCell id="OMsYIrX4x_dslvz2iAFP-61" value="RoomRent" style="ellipse;whiteSpace=wrap;html=1;align=center;sketch=1;hachureGap=4;jiggle=2;curveFitting=1;fontFamily=Architects Daughter;fontSource=https%3A%2F%2Ffonts.googleapis.com%2Fcss%3Ffamily%3DArchitects%2BDaughter;fontSize=20;" vertex="1" parent="1">
          <mxGeometry x="609" y="900" width="100" height="40" as="geometry" />
        </mxCell>
        <mxCell id="OMsYIrX4x_dslvz2iAFP-62" value="Facilities" style="ellipse;shape=doubleEllipse;margin=3;whiteSpace=wrap;html=1;align=center;sketch=1;hachureGap=4;jiggle=2;curveFitting=1;fontFamily=Architects Daughter;fontSource=https%3A%2F%2Ffonts.googleapis.com%2Fcss%3Ffamily%3DArchitects%2BDaughter;fontSize=20;" vertex="1" parent="1">
          <mxGeometry x="733" y="850" width="100" height="40" as="geometry" />
        </mxCell>
        <mxCell id="OMsYIrX4x_dslvz2iAFP-63" value="" style="shape=stencil(lZjbbtswDIafJrcEdaLE6657jwJNl2BZU6TZ6e3HwJBr0fE/9C6R9VkU+ZOivEsP74ent/0u8vv1cv6+/318vh526csuxuPrYX85Xu3XLj3u0sPL+bL/djn/fH2e/r893Wbefv04/7q94c/EFeJwgyL/nQaY6jTwdZp+Or4upodCqQ3zA1MGgC0QHKAkug2kQEEHwF7RCgAacR2AFEnjNpALlXGFzH1Xd4ESqeURqBQSALT7pAP2isrbgGTS0aRSqVUAKJXRJIkUwaZrIh29JNJDfx9olMoI2K7yNtDMABmAGimDPbTSpTYDpi4BQKM8esmMzEAayiQ8AC1QAuLT2B/PQMZAJo4jUGEc1MQ35kNTakBLqlTHOGjtGXI/RZmJ2RMog2wJp29tVNAmlOLoJhsJCLA4sQcEJIRZHKsHFAHiC9nCD1uhq+KXaKAMaCIpHijIr1Y3VrtmIHADvF8bzDkDgnNTpQpyTueUXKoJRS5RcNoQvOnc37cAULG0jEhj5GykoZwTn0I3ALnVfKLeJBiH1lNyAcA46Mok6RV9C1DxcRBcBnSVownJ20wKHlC0QqPqAmcFH7tV1gmEtGROTB6AXiorec9u2CzH6zqDc5pXOR1xxuWVWwXn9OcAO+WSiwOTgoxr4o92e0XEB6+MJtlIBtKwQ9A1cXbYF7RC9PlQsTQa94N8Biqs3vY4u27DjERA6ufHDHD321aLJa5jqrBNlLLqmBJsT4T9uWuNI+wrbQUH5K7f+61u80eWjaB+JgdfjG2koHY9+SYuZXigRKE6SiNWWIxvN5IxDjFAadiNpI1ACH3NuwD7uEW4A+46m19PDTTSq24swK6YfUEKUBLsm27uPcfGdPHXvYKue8TNTY/AkYEku+kB3Q3XtqMbid3qvO1IBsnfkLjfE+8rv7t5sVUggtxP64/pqEH45DX7v9Ptx8eN/uV4Ok0fBJbP/RcAG5q+HqTHfw==);lineShape=1;sketch=1;hachureGap=4;jiggle=2;curveFitting=1;fontFamily=Architects Daughter;fontSource=https%3A%2F%2Ffonts.googleapis.com%2Fcss%3Ffamily%3DArchitects%2BDaughter;fontSize=20;" vertex="1" parent="1">
          <mxGeometry x="539.4327895766489" y="679.6344868106278" width="21.142080007870845" height="39.92237595419783" as="geometry" />
        </mxCell>
        <mxCell id="OMsYIrX4x_dslvz2iAFP-64" value="" style="shape=stencil(lVfLctswDPwaXTEgwec5Tf8jM3FqT9044zh9/H3BamiLkLWZ3mR5QS3AxRKc5OF9//S2mzy/X86n77tfh+fLfpIvk/eH1/3ufLjo0ySPkzy8nM67b+fTx+vz/PvtqSHb04/Tz7bC7zmuVpLUojz/md94KvzvxdcZfzy8LvGOShnwhcRv44tQygPeRQrgAzlTqCMhpgq+kJmCHwMySd0OSJ5iGAIkUAKUYiTmISA4qrIdEAqxGwMquQgCHKVxF2LqS9wNkEh5LKtm5cEXhCmOlFKmDL7gI9WRUta6gSp5rclIKScqeTvAlU7gKiXGAUopjgGBMqDkhNgEFHIJBDDlUUuqdw/EF2xVWz8VsA1UxOIzxLO3+Arwvqe3xKOS2u5vfICMmFJd5RsQ3hv+BebLttMU7+D6bPirfYB8ue/OFa8aBYJgqzjFC6iP9vFqfQb60ZYy9YndXzf0INniK+AfyInlg2wi9N1f4DPgH1frq/cCV4nkV/uF9Knrm/4qlJDzdj9Y6NMDPoE4W3wCfIT8Sv8V6NNTGOvp+CrxLQGtDKXAhiwrQsiluct3UVBkKMo2WLzAhjEnn25wAocxdzku8AzzzYZP+iTfO3ggCP13FESpXeL35yEr6KIND/J1ekyPhIrHDh27wV6P1dqbYutYrWMPZO0i5EFiTVdHKmTSOl/FMekUoYjEUx5VmnQcAVUV7fJRFjFAXwk6oo1GFPAQGD3x6NSB4cbFagdZzQopW+cr4+3qZgG0Tg5We20rgbnouGTcWgcedBo3LY87nXp73xd3srM4dz/bwheLR+7bDoto8AwqpPiywqPLSrmzPmrmQsUbPBoX2+Fi1xfQy82bbX0Sqqd6fzD4CiR3Gw6vgoB8FofRLSDjhI23eHivaadpMXjk1v99G/0Urw+3q+/L4Xicb87L/+1VWV/N12x5/As=);lineShape=1;sketch=1;hachureGap=4;jiggle=2;curveFitting=1;fontFamily=Architects Daughter;fontSource=https%3A%2F%2Ffonts.googleapis.com%2Fcss%3Ffamily%3DArchitects%2BDaughter;fontSize=20;" vertex="1" parent="1">
          <mxGeometry x="629.3537599228182" y="681.2343739574555" width="27.21032531240985" height="34.80069291651989" as="geometry" />
        </mxCell>
        <mxCell id="OMsYIrX4x_dslvz2iAFP-65" value="" style="shape=stencil(rVjZbhpBEPwaXltzH8+O8x+WjAOKYyxMrr9PbdBgusdbKFLeYOlipru6+thNvHvbPbxuN8G9nY6Hr9uf+8fTbhM/bULYv+y2x/0JnzbxfhPvng7H7Zfj4fvL4/n768NiuXz6dvix/MOvM85JTQsouN/jgXN/H3w+mz/vX67Mo9RmzH1bN/defFf2UVwm9l2iV/ZNKrEPSZpT9j6KJ4DoJRpAlUY8iE1cUIAQpJZ1QEqSowZUKX0dkJ3EomMUpXkCSNINoEkhPuQmPStACpJIlAp+1rSlMi75MSBLrQoArxpxuoBXzUMuEogP1UvRPBQvnZxQkyQdpQKmEwFUCZq4GiQzQJemT6hFWlwHtCBR89AQJcJDSyPVLoAknp1QpGseWqZOt27TG38RCaA7m0sLgPjQw+RDoRLtIC5NPpDk6/BhAmR2Qp94yNJJWAEwydeqOA5o5kpI+EABhrjOU8O7S6G+IFD6Kj9C53fPtAoAYETd69DUGsCUvt6GW2uAoMO0BI7FtU0+9FEM1wBlAkR+QqzWB8eYa6MDXgDIb34lp4sriOtMcjMAxZA06eVKGgCZR1IrZ6eR35lHyYQVog48Soa4RaPsSlNqAHBDQXm60o0TTHpDo56FdRYQph/SqD/SaOBEzGUALYAc8a6Xq+yjCppKGaihVPfRD64UVDgRphxfxeF/IdAjJllTSQQ75wLAJtelz3kbp0Jk3ebSVKmskZ7VyLpQrtH7s8mmRHs15g2nWy+8Yidgosm6li0aIlxj4OlGpUECOyENxVxmJvQUQhzmvqCvhCdM1pgsow4rhtNOfMDP2UyWjjKN6TjOsyvxAfO3YToH2oQw4ZvSlCBScqXsbBNKkVZLbCkmSpFvKfi5GUCgWwo2La99wC7nCAC7XNFTGZZFtnT4bp1enrB6jCtpprEtFsLDtO3iH9jYNy3TsGdqcIPU6/8nE5kbUnmvk5LJfOUk6Ij2sS6vmHvTQUferpibql1pCZ56IV/4JvNER/TpMpE2qclVbLzU3ATSS6K8Gp5QUEidntLA0QHyH1/Z3DTHh/e3Q0/75+fzy6Xr3+3bJDw6v4mK938A);lineShape=1;sketch=1;hachureGap=4;jiggle=2;curveFitting=1;fontFamily=Architects Daughter;fontSource=https%3A%2F%2Ffonts.googleapis.com%2Fcss%3Ffamily%3DArchitects%2BDaughter;fontSize=20;" vertex="1" parent="1">
          <mxGeometry x="659.438123554422" y="743.6339775475942" width="75.62818916291053" height="10.094976525469747" as="geometry" />
        </mxCell>
        <mxCell id="OMsYIrX4x_dslvz2iAFP-66" value="" style="shape=stencil(rVhbbttADDyNfwnum/udpvcIEKc2msaBk75uX6rGyiIVjVGgf7LEMZevIbm7dPd2eHjd7yK/vZ9PX/c/j4/vh136tIvx+HLYn4/v+rRL97t093Q677+cT99fHi+/Xx8myenp2+nH9A+/LjimViZQ5N/jBfe/Lz5fxJ+PLwvxQmLFMwUgHhKlaOQDUykAIFTFAgrFsA3QAzQ2ALWg1m1AChSsCbFSYQBo1JoBpEilbQNyop4sQCgBG3IfPpm9mqCXSiYOFqCHRGFr3q0lUAIaKlOvFpCpJgBQo22kVWfJAFBJrAbVmQUAOlUbadWZgQ0tUrRGq84M4tAydRsH1ZmB0U1NtEarzgziIFpd9kitQKMlDhNngFAEySfZR1p1CqgHqVStDZIoAC+JJrOtBynEwEvSPWmozgY0dC1RW0CqM4BI9zjqawZo4EBNd+WlbACdYbb27HNJD1mRDWUQ4wyIkJd6JbZe6pgEFNCt0XpIxEtdOcJGWg9ZkZc6dVtxXaiBbJ0AzkudOAK6Zy0I9oh4Q0X2gAKyTz9L8oCGQt1HnBaAjt2U2woAWGAyca0BA3gNQNknJH1lNMo+8U2ud5x9Mkp4AUjIS7LKPrUKxUFtWGWfYA2u7+qbG/kdggdk5KXueWYCYA2uQUwAnK3erXIzvasHQHLtvrNPfgNx+LhG0dQ3qVglE+rUkxErQMUssE4m1OWuJLGsIESWGmoLWPhhM5tWZ+q4hNZUJoAtP6iIPpr3fwLUcYAZoOMBbkKemcqtvhgdM2UMyJTdkRK2IY0uuOi8BQGiH5m0t8OqDqvsY4qoSNkP+DJz1dbI5MYNaXiwbD7SOpShXNIRjN2MlUjQJKqbntMQ4Eagnx0zNUz4+jnb1GiVIhrwq985WsKA7EfXxnC7bMHTcW0UQWrowuDcWnVyxGuQ25BrgMuiLj3JeqnMA/nWKucKqBTY5XRxC5aXSoR8X9LYYeZ1VGBq5JWXcoYVp/twtnFIyrbAaF3ao624pH8B4pB4nHi+FmjQrdPNhzU6BrhCBBknnjtKHR3jY0D0NR0CXBbLWOnnuEEfaerbvAijwjfE3VIWxiXEhrhrDDxG0i3x6MTRvLoaSRg2Efb3JTxG9i1xfymWQDqzHyMxqfBgkKs42rd5jNWLGzqQZuwrBU8t7OeiW+I1e3HomX+6Xbwprg/Xi8yn4/Pz5R50+d1ffOqry6Vpuv8D);lineShape=1;sketch=1;hachureGap=4;jiggle=2;curveFitting=1;fontFamily=Architects Daughter;fontSource=https%3A%2F%2Ffonts.googleapis.com%2Fcss%3Ffamily%3DArchitects%2BDaughter;fontSize=20;" vertex="1" parent="1">
          <mxGeometry x="652.2342499374477" y="756.4362781535501" width="116.8781026963577" height="94.60245718679926" as="geometry" />
        </mxCell>
        <mxCell id="OMsYIrX4x_dslvz2iAFP-67" value="" style="shape=stencil(lVjbchoxDP0aXjWyfH9O0//ITEhhSiFDSC9/X22pyVpmD+FtWXTWuh37yCv/8LZ5el2vhN9Ox8P39a/t82mz8l9WItv9Zn3cnvRp5R9X/uHlcFx/Ox7e98/n369Pk+X09OPwc/rC7zNOqLoJJPzn/ILJl38vvp7Nd9v9zNyTxM5cKMmyeaVYOvNKAXxdF4+9N65SCgBQKOTen0zsgP+ZvHQAH9ubq4CQqIQOEDzVugyIiVKfoigw6BQpcAdITOyXAVlrlnpAogCylAvFPobsyAGXiq7Q1y0HKhkA1IHaAzIVUIdSbR0KkyTQSY5iX2l1MjEAeApmhQBdqoFqnyWNCgVdU0viBVAooxUyub5wFbNNAdn3ANf4eh1QyPVZ0jQIypK2Rt+tmgYP2lsB1QC0f5FLWmkTQyJBK9SWxAtA8wZicKx86Rmk3wh4CbPr6Zv/rF0CJG8BBeW1kqsWcKNyZtuYAKg3CnHfrrM8LHVTGJfADV7HqJFPyW40UzERqxP5sRAoTdo72QLQ3qeAMMQgOIY8rOBQb2R7JiqAMaD0O9NEKsy5cB+gXiEEoyxdzuV50BhgY7iR1to8/mzhqj3lptbAlMtj82FS+6FwsL2L1QIfTi4BTGt8gqN3bgOXvXEOQJJs0Ce3tjLl6ECIhEktQ+UiXuF+gAk6Q0GjADZBa1QohjicEBGqOP3bdl9o2+0SIJoYPFZAcTjbHW6N0LT5TG7AY9Hb1iiXjr8OkEFjYfmtDpi0qihDDFKdyEZjCWUkXVWz9b2kwjIg6RrsOapymQGB9HuxDzpHYpDWrM3XF07lN9JYma2aVoGPGJekUX42QggoXAxWieqQkgHjQrAqTt84EIMPrUyzQSuCtMrAOB3lBABctkHrsFgA49JAaZhUbsfTbNSF5ubIZSiLLyPebO4GwTI5ay5gRGQ7XTGUMGxnK26sWzAvgzlwxpHYKwZ0BOqgl+4yrzbviL3SempmDqoqdpPWRMKvZxsqIom0fp1VFV2P3HdXc9NcHz6uhV62u935Vmn+v71G0lfnKyj/+Bc=);lineShape=1;sketch=1;hachureGap=4;jiggle=2;curveFitting=1;fontFamily=Architects Daughter;fontSource=https%3A%2F%2Ffonts.googleapis.com%2Fcss%3Ffamily%3DArchitects%2BDaughter;fontSize=20;" vertex="1" parent="1">
          <mxGeometry x="629.0346159599376" y="762.0354913923745" width="38.88590756932422" height="143.30450773589882" as="geometry" />
        </mxCell>
        <mxCell id="OMsYIrX4x_dslvz2iAFP-68" value="" style="shape=stencil(lVjLctswDPwaXzEg+D6n6X9kJk7tqRtnHKePvy9Ul44IyqvxTZYXFAEsgCU3/uF99/S23Qi/n0/H79tf++fzbuO/bET2r7vtaX/Wp41/3PiHl+Np++10/Hh9vvx+e5qQ09OP489phd8Xu1qppslK+M/lDVPify++XvCH/escn6jkDh8oFoAXktDhHROH2walkHBvEEgiMPDkXW9QKbjbBjmT9C5IpAS2lJmCdAZeKAGnk7QYXoPEbZOLBlGD2H8hZCr+tkFI5H1nECNxvm3gC+U+D8m1N8sGziY6ZaqAGVMQ+y1lTwk4rUxzvdO5UABhdbHltRkUgWR16kP/hRIpV8BWEvOB0lK/zAxLvcqQGJFK6fHSgracZio9j2ogD/bvqfZJrhHmzJP0KdN2EEHKPLkBnwDrxHJI8QVRouV/hq8g/kLMAx7Ex9n1HXNbYtGAqQ4O/O+XN/BxCFABAWJLOMWjqtTdjgkDDit+WB8RWkty8Fegv2HAO0BobnSc4dE00IQZfFlJcJV78GI7yrQfMGzENpTJX4DXghn8FVjAY0EGvP5QMAkWzMjnDAs4Df4WGM+RPxWs7yj16mOtIB25MHwAdFxu/WmOhwXvh4ShicFt6s4TgAt4WB/NvHvxjtgQQiceKEjtoLXHh0bBW4QzeC0hOMFS7PHaMkBDSU1NziawAwTSchomfET8kTaAZhrCI4NspZmqFIdKwBMbA9/E2rLBtcXOlBYqYp/sGFYtFwDpgqfcb0kFZ0Y6xVmhono0gj4Uq1UeAct8ddHoUdXUUGqpRB5UO9JChS2VHO7VypzQh9V52FtKHaYTVDd1kGeq5kAt6Fmr9hvS7oRqIRPbsxwa3nU4COn4x/gYDZ6Rms6WRVf5sowv9qyIZ4HizXRaxdd6z34q+WF9dNat9ti3Es9q1cRKvrTIbPwRH2az9NMADY+7LwNW8frwefPwsj8cLhcX8//tTYW+utxy+Me/);lineShape=1;sketch=1;hachureGap=4;jiggle=2;curveFitting=1;fontFamily=Architects Daughter;fontSource=https%3A%2F%2Ffonts.googleapis.com%2Fcss%3Ffamily%3DArchitects%2BDaughter;fontSize=20;" vertex="1" parent="1">
          <mxGeometry x="545.8403729959384" y="758.8376824862314" width="36.32566131242265" height="115.40864311283258" as="geometry" />
        </mxCell>
        <mxCell id="OMsYIrX4x_dslvz2iAFP-69" value="EID" style="ellipse;whiteSpace=wrap;html=1;align=center;fontStyle=4;sketch=1;hachureGap=4;jiggle=2;curveFitting=1;fontFamily=Architects Daughter;fontSource=https%3A%2F%2Ffonts.googleapis.com%2Fcss%3Ffamily%3DArchitects%2BDaughter;fontSize=20;" vertex="1" parent="1">
          <mxGeometry x="350.18" y="293.43" width="100" height="40" as="geometry" />
        </mxCell>
        <mxCell id="OMsYIrX4x_dslvz2iAFP-70" value="Areas" style="ellipse;shape=doubleEllipse;margin=3;whiteSpace=wrap;html=1;align=center;sketch=1;hachureGap=4;jiggle=2;curveFitting=1;fontFamily=Architects Daughter;fontSource=https%3A%2F%2Ffonts.googleapis.com%2Fcss%3Ffamily%3DArchitects%2BDaughter;fontSize=20;" vertex="1" parent="1">
          <mxGeometry x="470.64" y="322.38" width="100" height="40" as="geometry" />
        </mxCell>
        <mxCell id="OMsYIrX4x_dslvz2iAFP-71" value="TelNo" style="ellipse;shape=doubleEllipse;margin=3;whiteSpace=wrap;html=1;align=center;sketch=1;hachureGap=4;jiggle=2;curveFitting=1;fontFamily=Architects Daughter;fontSource=https%3A%2F%2Ffonts.googleapis.com%2Fcss%3Ffamily%3DArchitects%2BDaughter;fontSize=20;" vertex="1" parent="1">
          <mxGeometry x="520" y="433" width="100" height="40" as="geometry" />
        </mxCell>
        <mxCell id="OMsYIrX4x_dslvz2iAFP-72" value="Name" style="ellipse;whiteSpace=wrap;html=1;align=center;sketch=1;hachureGap=4;jiggle=2;curveFitting=1;fontFamily=Architects Daughter;fontSource=https%3A%2F%2Ffonts.googleapis.com%2Fcss%3Ffamily%3DArchitects%2BDaughter;fontSize=20;" vertex="1" parent="1">
          <mxGeometry x="404" y="460" width="100" height="40" as="geometry" />
        </mxCell>
        <mxCell id="OMsYIrX4x_dslvz2iAFP-73" value="Address" style="ellipse;whiteSpace=wrap;html=1;align=center;sketch=1;hachureGap=4;jiggle=2;curveFitting=1;fontFamily=Architects Daughter;fontSource=https%3A%2F%2Ffonts.googleapis.com%2Fcss%3Ffamily%3DArchitects%2BDaughter;fontSize=20;" vertex="1" parent="1">
          <mxGeometry x="286" y="480" width="100" height="40" as="geometry" />
        </mxCell>
        <mxCell id="OMsYIrX4x_dslvz2iAFP-74" value="DOB" style="ellipse;whiteSpace=wrap;html=1;align=center;sketch=1;hachureGap=4;jiggle=2;curveFitting=1;fontFamily=Architects Daughter;fontSource=https%3A%2F%2Ffonts.googleapis.com%2Fcss%3Ffamily%3DArchitects%2BDaughter;fontSize=20;" vertex="1" parent="1">
          <mxGeometry x="158.59" y="420" width="100" height="40" as="geometry" />
        </mxCell>
        <mxCell id="OMsYIrX4x_dslvz2iAFP-75" value="ESD" style="ellipse;whiteSpace=wrap;html=1;align=center;sketch=1;hachureGap=4;jiggle=2;curveFitting=1;fontFamily=Architects Daughter;fontSource=https%3A%2F%2Ffonts.googleapis.com%2Fcss%3Ffamily%3DArchitects%2BDaughter;fontSize=20;" vertex="1" parent="1">
          <mxGeometry x="500" y="378.84" width="100" height="40" as="geometry" />
        </mxCell>
        <mxCell id="OMsYIrX4x_dslvz2iAFP-76" value="" style="shape=stencil(lVjLctswDPwaXzEE3zyn6X9kJk7tqWtnHPf19wWrkWNAydK6yTJWBMjlYslNeHjbPb1uN969Xc6n79vf++fLbhO+bLzfH3fb8/4iT5vwuAkPL6fz9tv59PP4PP1+feqR/enH6Vf/wp8JVzOl0FHe/Z3eMLn8/8XXKf6wP97GJwpZxVeKFcRHSqy/nyihAQLVpgDeUWYIiFEDMuUIAewVIATyDgA81aoBjTKqwVPRRcdEJUFA0kUnJj8AOA3I80R/BjCzlJlCgICgU8pSAy7aMCPLLDUIaEUBSqCA1iFS1FwtstKIfJmaTqlISh4AGkXDbqkKjNB4JsIVkMgVAIjkdA21wIVrmaJeaUmygIVrlUJSAEmygZTYOXJ6CPlGAuxrZZ6UK6CRQ+xrVJ0FRFBEqbMK3QDQDspCnWIBDQBiIa/5fTMPHyICU2yLIQCAC+VgAUg3CvGiaLQhmNjUXKmC7ztbcucK2KFx3izX+EINKCsHKs4CEJFEqY3uCcCDCqJQeZESA+alSrxICQFEg4zIDFISkQm8puiWFrsHT2unvhkBr1unQbAARIwmHU53hwHzlmI/oHautmENNk/yc/O4e3/m2SfcKQGyf9pifyKRYUe8UAAkY/6DjJBOrhXitfHSrVa1hkB5Ve9JtqMPmpvQWNNu0D1lAZIB4P4siuQ0YOAAujs1pgR7DBF509AHLqZ3BePEsE/qAM2igRMTQDJODHu9DljlJgUQdUoDv8qLbjtwxAKwJh0LDOeFSceuXgBmlgbnBgGwLnpwMhEuGcMwOPtwtNTAhythd9RkxYc3+b457LnZl33KvGziUf5d72x8QALcZtK8xzOoN8hes/GoXuGY0S/cQVK0XhvHZz/3l/vyKW7m/H31lmL1Ec9nF0MbD8/ayfIH82H1ZcEwXh7ebyZe9ofDdLFx+7+9yZBX0y1IePwH);lineShape=1;sketch=1;hachureGap=4;jiggle=2;curveFitting=1;fontFamily=Architects Daughter;fontSource=https%3A%2F%2Ffonts.googleapis.com%2Fcss%3Ffamily%3DArchitects%2BDaughter;fontSize=20;" vertex="1" parent="1">
          <mxGeometry x="382.4252073281938" y="334.0380953256621" width="1.5496173870694747" height="53.25669564093039" as="geometry" />
        </mxCell>
        <mxCell id="OMsYIrX4x_dslvz2iAFP-77" value="" style="shape=stencil(rVjLctswDPwaXzEgwec5Tf8jM3FqT90447ivvy9UDWUTklbNTG8KvRBBYJdYZScP74ent/3O8/v1cv66/3l8vh528mnn/fH1sL8cr/q0k8edPLycL/svl/P31+fx77enATk8fTv/GN7wa4xjkjAEef49LtRMpfxd+TziT8fXO3wgzj1eV+o63nmKqQsoAW7ghbJ0AVmI03qAOBp+uwtIkURAQLU7xEQxgzMXStwFhNxWFgNiJtfvoHuyXw9IgXK/g54qgZQyU65dgE/EAQRE8qUP8LBxuVB1XYDTFdC4ou/rd3CJHDj0QIS+Sk5770CAltWk5CiCPpTaEpjY2ui+iK+u1XDiHglIqHrbNmUeoKpqxfdi0AODCtVCuc+HiSPA16aUOzyoj+IlG7zD+BQNHilN8cXiE6CQ4quhEGSQ4+l8t4C4sUHPICUtPoC5KjwF1LBKwaisMWQN7yy+oAYXKulj+GjxSGGKF7bnRfUpVmAeE7S0ct/6hS7SAR8M3iEBaz5WALD+ZS4AwfknK0goGL0yrQA2BOltPhuCj/a8HtWn2rHB7QWrerH5VzCWFgW5IRizgYPuYLhRLEEFFzRmg084HzsmqfxPvI7hvgGRKhKYDoi+PnlrgtWeELW5o2W89ms2Uh1gnM5gawukDbXlgGg74GK7JNd8hLUFakmRU6lWlIPqkXlKzYxNAUIFBbgZi3Lj4bKfi82XTINeKICLVx2j0UHg1vllT1rbxTwFVDiL9X2xZ2osUDoy83Mpt5Vl5x6atCauBigGZU7oy1oSJcClYO2ByqmCIjl7m97uvxW8Y4tH6uSZFhjf79zs3r8HRJllBPTPzX/e4QvgnY4LZ/HofuSFCgmoKNt5PzgeWFEzPgbHAzrMVsk3x7OGrxaPRKD1meXD4Kb46Of0Nl4fbt/uL8fTafz0v//dfuvr0vh/Ann8Aw==);lineShape=1;sketch=1;hachureGap=4;jiggle=2;curveFitting=1;fontFamily=Architects Daughter;fontSource=https%3A%2F%2Ffonts.googleapis.com%2Fcss%3Ffamily%3DArchitects%2BDaughter;fontSize=20;" vertex="1" parent="1">
          <mxGeometry x="409.0340061066754" y="345.31846956457855" width="70.12263809584147" height="48.24412261883299" as="geometry" />
        </mxCell>
        <mxCell id="OMsYIrX4x_dslvz2iAFP-78" value="" style="shape=stencil(lVjbchoxDP0aXjW25etzmv5HZkIapmnIkPT295XLGLDEniVvsKuz1vVI8obv3p8f3rab4N4/Dvvv29+7x4/nDX/ZhLB7fd4edh/ya8P3G7572h+23w77n6+Px/9vD12y//qx/9W/8OeIc5RqBwX39/igMOX2/8nXo/zL7vVCPlLgWT6S98vy3lNLGhABIPjx+gKQGQAK1aYBBZjAidio1IBKkckXAwAnJEdReTWRSwCQqSQN8G4ZkAOFYgDASzlTCgYAVCrOGJ3Gk+sAJmYDqACQKViVgFtLpWrcGoCXqic2J0AAUzJxgIBEyXgJRboWYmVDJAZG10rNVGjMy4DmKKh68ORAejepuDlwuZKLABAozSWapR4QQFhjtiElKsgGeT2rFN3I3+uASmk2mimgAySV8iTvKKPvt1EsZ3kUZpGPcZL3Q8El+TzrL2mE5VUpeAdrRwAqjXwmRjFrg+IGIATIkh0wZ0VoFDCgzD7iOKppCZDcDKjDzUsAxTCSRqj5SFo0AwiAwwSQo1YJJkbV7Y2ZGjK6UpgzL8gn8Al+jrQEzmEbwuxWL6wGeokAeLZBsh2boPgiDppdki8zqXochEZOF7MDpC3yrIu54mLOKmaDnhaLc2avOg5crJxZfx9H4l4fqtzJwFOMHRXMX2oMk7FphS+qqjUpf2y0miS5rFn9SUDSYahxzFlLbUcB2goLB13NTYZLRDB+FMoJ0HDqOZ16Z0ff2P4vgn/jhNF1AuVpZ5gzSd04JXUKAd3WzmErADvprQHMLNkBn5pWOwBNq2Ye7gCQTHbiPvPmjTN9B4CSs1tDBwAv2b1kJdJ28+kA4Fa7W3XyB0Vtt7feUsEJdj/ssxzwkt1Aez0AlcyKe+4XV+XNCt0HG2CB06Nh/z5IJGe6LU7t0yB4ks8U4ff9zPTCmx6QntCP8o9f8Y/qVcJpDAjMystaCLLa6FMDvJIw9pY26Ok2fwrZoInNxGtlDzb5IBsh4uvPXtmsy8uP8/3Q0+7l5Xi9dPle3yfJo+NdFN//Aw==);lineShape=1;sketch=1;hachureGap=4;jiggle=2;curveFitting=1;fontFamily=Architects Daughter;fontSource=https%3A%2F%2Ffonts.googleapis.com%2Fcss%3Ffamily%3DArchitects%2BDaughter;fontSize=20;" vertex="1" parent="1">
          <mxGeometry x="410.6381052438751" y="409.23477294397753" width="96.55615963042851" height="4.341359815103033" as="geometry" />
        </mxCell>
        <mxCell id="OMsYIrX4x_dslvz2iAFP-79" value="" style="shape=stencil(lVjbUttADP2avGpWe9czpf/BDKFkSgkT0tvfV266xpLjQ3lLbB2v7jraXbp5fbx72e9ieD2fjl/3Pw/358dd+rSL8fD8uD8dzvprl2536ebheNp/OR2/P99f/r/cTZLTr2/HH9MXfl1wgXKbQDH8Hg9C+Pvg80X86fC8EI/UuxNvdVtciLMRr1SAOFeq1chzpl6AOkzNqj8ZhACNigNUEt4GpOQB+kQ6AIj3aGYKwOicqSULaMQRALoPQokUgdHTa7aAQpIBoFBwJwgFBGjUig00DyWvAmqgaL1UMwUBgEjVnVCog0zV70mwgIYBbZg4A4QkAYD6xNrQ1GjgpRZG5syARBV4qUUSWw+tjOy6DshDgRmg6Q3cqq+7Tb7WSUDyTa+tDV3TGxSQvmabfF1DCbzUEyWrUs+UQAH1QsUBCuwaXbPVekmfRKSSjC43AzpVkEvCVKMFCKw4SRTtCfJOZ80jc2YAj09cBxSfS5OSIHCyqgeJxKAeRHyJqpIRJJ8CevCABgKnALG5pFZl5Fbx2SqVEggch3n+zYgGm+t0hPNrJwY1OlndPABNFAW4dNUnBfv13+sFAGafzqy4AmCVfLqqkqBt6GtencD4hMDeSxmd0Fdx0Fn/MUAds35TJWdDoYoB3ugMm+sVt2rrw5HOyQMYZ6tPjTzIwWbyrYr6HS85dqJeYmyDNB8HxEGv1WiFk/pKG2ijCP+30fTB0jbdtCo5mK4yhuACgIaWrHjlwg9biMSrI3Ab+CCgjnRe+BXxk2kIrSJX0AnZD1L9BIxcGsm2TD80F3l0iWXNgVDrJK8uXyPkWEou/FxkzIDmobYgA5CfKHtwdKOPmbFFylwFqZIB075ubVAlESlTYtncCaok4rqrNUiVTIjrxhXXxdmq9NsDOtxqah9Tc8GmUbOs1ad3wwxIl5TmNoIIyYOuQcXGQa1C3VUXLXZ7U4clqqtcdXtThclX8ui9MyBRBn1J19Fgp5wqiUiZLrzN7a8V0u+c/dJemDLwki7tyRqdMbFMs4nztUCHkzpqY7Q2JIYFFFcrRFRHgwHB2kmtSiwwDiuGxTzayNbdj62GAoMQPKcscFppCljxeX/fEI9evALnhLG5vImjugx+s0/UgWeCJ4Zp3G5sidtARXgLEHyc4tBuS9yGiUdebInbeRkg8w+jPb2JF+h3R2j1AZitYZTE4jYSVOEHLy/fFdcfb/ekD4enp8s16/K9v1fVR5c72XT7Bw==);lineShape=1;sketch=1;hachureGap=4;jiggle=2;curveFitting=1;fontFamily=Architects Daughter;fontSource=https%3A%2F%2Ffonts.googleapis.com%2Fcss%3Ffamily%3DArchitects%2BDaughter;fontSize=20;" vertex="1" parent="1">
          <mxGeometry x="407.43538829598515" y="419.634683745521" width="127.02444342689341" height="22.62029794397722" as="geometry" />
        </mxCell>
        <mxCell id="OMsYIrX4x_dslvz2iAFP-80" value="" style="shape=stencil(lZfbbtswDIafJrcERZ2o6657jwJNl2BZUqTpDm8/eoESi57/oneOw88iKYr8tYkPb7un1+1G+O1yPn3f/to/X3ab+GUjsj/utuf9xZ428XETH15O5+238+n9+Hz9/fo0WU5PP04/py/8vnJCIU2Q8J/rC6bY/r34ejU/7I8z80JSB/NEquvmIRHHwT4I1bwOSKTIAyCBCq8DkSnlEVCqAgAlDQMQK3FaB1Kl4mLOlMAK2ZJUBiBHqiCGkkhGl4oFHdeBytTGoItSKAAoPugaScEKGiiPK1TLG1hBs49BhRIClFIbgUwFlEYzl9wKCmNoltax+KZPgH1ojfK4ca2SgPI2QKMHCgaajoBtHAragOaBAtI6ueRiaP2IrwGFPZCxS5I9oGgF7X/PgAaajAFp4VJDaVXiBaBop2tP4gxIaIVKKXqA0T5UiuI3Ln8AFA98sEJeFF9Gaa2k4gEBjcwcEJfWQq1CoEQPoPlwT+J8BVx8rt1bDAG51Pq8mWcJdQ0rteQBVK2BeVF9t962usSiNuCBaH1+zMsVBxHVAxUVky4akzmJATcgZnlYI8LiCMHiqN3lGYC0wOcB6fPgBtikBi6peeyqyUZxAEDxedUK5YlGX6+aYGdS9hLL3ihYoWbfaOyNgiNUms+S6Q8BQRfTeKNLJcLRnlPv1jfFlGG5ptIb102T1a4O/q/6qteV0cYiKA1TkW2MwZQmGimmU10MEqHUNSWcxkYTsJhOflCbbgUhmzAe5ZLA6cBev0kfYCvmXJ05OvyLFhlgQXCP7G4u0HceDxn3Hr4WanTmBYaaFlckUJvsezVDac5e4DG8jdwSMTMHeQ++Zswc1SSp/3oAFfnJy+OH5vZwv6e+7A+H6zV3/r+/19qr6504Pv4F);lineShape=1;sketch=1;hachureGap=4;jiggle=2;curveFitting=1;fontFamily=Architects Daughter;fontSource=https%3A%2F%2Ffonts.googleapis.com%2Fcss%3Ffamily%3DArchitects%2BDaughter;fontSize=20;" vertex="1" parent="1">
          <mxGeometry x="385.0370243673416" y="427.63405974078364" width="44.22180201680192" height="37.91404777863204" as="geometry" />
        </mxCell>
        <mxCell id="OMsYIrX4x_dslvz2iAFP-81" value="" style="shape=stencil(lVjZctswDPwavWJAErye0/Q/MhOn9tSNM47T4+8L1UNXBK11/CZbuyKOxSFN4eF9+/S2mTy/n46H75tfu+fTdgpfJu93r9vNcXfSqyk8TuHh5XDcfDsePl6fz7/fnmbkfPXj8HN+wu8zr1YqZWZ5/nP+xxHLvz++nvH73esS74l9h0+UAb548rF/fiDv1gk5EruekCnXdUJKFFNH8IGcXyfETKl3wReqcZ0g1ZoUhGoBBI1hb5Iw5bxO0OdF7gmJBPjga8tSI0RHCUTJy0DQxIE8eKYQ+kQ7isAkTVPqlaSZcQkQIkntCJkpgiipcqQ/IQv0wTkrjVwoB0DQNPUE1a8wJEgvjRKhWpXgzQmFCiaE3unqWqDXCKnXUhUKKHHOlrQ2BYedzsESAvChNg8X+AQKrgwe6BMAPrVqXOArEFJsHejSYpiJgccqvDwcALqea3cXeKQKbncXeFQJTG5MALBfvRvwDApH67APUL1RN1fwgroR1WDxAdgjtmMr3gNJp1a0n8QX4nqPPfVOf93dAWWqgyJQxpQw1hiSxNyIBk0gzen5Qw0gTWeK0eJRzUQqfc5uFaVcETWqem9b9Y2u4toW8cmupQEdMwCLnocuh9ru/XgxCRAoam1Cxl8dNLAJ1V4Q8yRD45vcOCohXoZZHED8vY2/DvsEm4rv46nbRESLpp0a+RLhlaZimpDuQ3xjDvcB1Y0roCYhVHqLdKcTFNFqa0y3RgEnzJOyN0n3UgeKODgqw+aLTgjaRPrZrbtwAieIdmaz7heKYB/Sdd80OlUKemVJkWI/vXW1RUtg9k03F4KnApxWIdtMtyXvOr7ahYhhZVa2Gx1DXSg+O4NHs2NuDGLwaNPXl8YcDZ4RPtjWwnD4VZWptQdNjprsiwTjl97hjZFhFehwN4LgVkfX8ToorP2Cnq91bO1JcJsYZgdDgd79VeAmXi/+f4J42e335y8Yy/v2k4X+df7cER7/Ag==);lineShape=1;sketch=1;hachureGap=4;jiggle=2;curveFitting=1;fontFamily=Architects Daughter;fontSource=https%3A%2F%2Ffonts.googleapis.com%2Fcss%3Ffamily%3DArchitects%2BDaughter;fontSize=20;" vertex="1" parent="1">
          <mxGeometry x="337.0077099682459" y="431.63654610773824" width="10.758156947997804" height="66.09940653272065" as="geometry" />
        </mxCell>
        <mxCell id="OMsYIrX4x_dslvz2iAFP-82" value="" style="shape=stencil(rVjLbhsxDPwaXwmJ1IvnNP2PAHEao64dOOnr78utobXF9Y5RoLf1mrMiOUOK0kYe3l+f3rYbDu8fp+PX7c/d88frRj5tmHeH1+1p92FPG3ncyMPL8bT9cjp+Pzyff789TZbT07fjj+kLv844VcplQnH4fX4jVMPfF5/P9vvd4dpeqOXBPgYqeR3QEpU2ADgQ6zqgVmppBFTiBACBAo8hJNKyDiiR8ghIQszrgMykcQBk+0RcB6TU/54BSg2kVSpJHQCldCdvAyKlkYcaSes6gAtVByiQOLagwwBogRpwKSrVUUrGfQY8xNJpmgGVKogh2vdkAGjoUd0GMPHIg+k3Ax5MzHGUhmaqDcibxHlUYZKM1VHcVoAMcpT61y7lZnJHSiKufgEFAQTSZQDAoXn12T5CzgLJWP7NUoYo84XQEkwoUxn9b5Ea8Cf5ZlGVEshPpuzKpvY3awoqbgGBCY2RQvUARRqNXcIzIBGDEAzgerYBFJdN0BGQcQxM0QEKNdDkJ8AirdClubvNgNaVuwYoY3Mxoivo2QZg140C3BVi8LVpgIRWCAtt2wogaPX9cQoBaFt7Q7+yD8AhXewhjQL0JznhWQcHLJv9QkaI5JmgK/uAOA7d3SthCwakZa1hjl17nKoZDCOmIinepYhlV5MHoAlsKk72WcrIJas1F3S5Cxh7thVnueOSi6H1LrgatHMJd2EDpMUwElCDCb5fGED+J8AanNt4pFO/svG42aWV/mZlY3Mzp2J/pPee2T7B2Sj7eM0ejai27Y3FrLgSjFA36ZhKMMV5EXBEIpIFA/XevCnjCtPhBG066vdBGy4SWMFI42XlIEBZ1Kb0vN1mOXhZlEYVZElMpw4wj4i3dSq+5eUC02qnIxmZTg0e2IrFMAJE+5vbANPS6JIdfxBxlnUeAYxnKhNCGAHT4QRtnULR7YXwVKutHyO6PR4uzN6Vp/U7QIJN+XFhj87x6meRu9939wShp3jNvoqzTyg/2gfMi31Do4L2SWImDKr66th0AVQ4KiwAVtw4o84jhqW/jFhgf5wyys4+YQb+7Wbnrr09XK6RXnb7/fkW6vp/f+1kr85XVvL4Bw==);lineShape=1;sketch=1;hachureGap=4;jiggle=2;curveFitting=1;fontFamily=Architects Daughter;fontSource=https%3A%2F%2Ffonts.googleapis.com%2Fcss%3Ffamily%3DArchitects%2BDaughter;fontSize=20;" vertex="1" parent="1">
          <mxGeometry x="240.71122558059733" y="406.03397163622583" width="67.85074501749784" height="28.86527727179339" as="geometry" />
        </mxCell>
        <mxCell id="OMsYIrX4x_dslvz2iAFP-83" value="RID" style="ellipse;whiteSpace=wrap;html=1;align=center;fontStyle=4;sketch=1;hachureGap=4;jiggle=2;curveFitting=1;fontFamily=Architects Daughter;fontSource=https%3A%2F%2Ffonts.googleapis.com%2Fcss%3Ffamily%3DArchitects%2BDaughter;fontSize=20;" vertex="1" parent="1">
          <mxGeometry x="408.92" width="100" height="40" as="geometry" />
        </mxCell>
        <mxCell id="OMsYIrX4x_dslvz2iAFP-84" value="Name" style="ellipse;whiteSpace=wrap;html=1;align=center;sketch=1;hachureGap=4;jiggle=2;curveFitting=1;fontFamily=Architects Daughter;fontSource=https%3A%2F%2Ffonts.googleapis.com%2Fcss%3Ffamily%3DArchitects%2BDaughter;fontSize=20;" vertex="1" parent="1">
          <mxGeometry x="450.18" y="-57.54" width="100" height="40" as="geometry" />
        </mxCell>
        <mxCell id="OMsYIrX4x_dslvz2iAFP-85" value="Guests" style="ellipse;whiteSpace=wrap;html=1;align=center;sketch=1;hachureGap=4;jiggle=2;curveFitting=1;fontFamily=Architects Daughter;fontSource=https%3A%2F%2Ffonts.googleapis.com%2Fcss%3Ffamily%3DArchitects%2BDaughter;fontSize=20;" vertex="1" parent="1">
          <mxGeometry x="582.1700000000001" y="-55.019999999999996" width="100" height="40" as="geometry" />
        </mxCell>
        <mxCell id="OMsYIrX4x_dslvz2iAFP-86" value="TelNo" style="ellipse;shape=doubleEllipse;margin=3;whiteSpace=wrap;html=1;align=center;sketch=1;hachureGap=4;jiggle=2;curveFitting=1;fontFamily=Architects Daughter;fontSource=https%3A%2F%2Ffonts.googleapis.com%2Fcss%3Ffamily%3DArchitects%2BDaughter;fontSize=20;" vertex="1" parent="1">
          <mxGeometry x="445.84000000000003" y="149.25" width="100" height="40" as="geometry" />
        </mxCell>
        <mxCell id="OMsYIrX4x_dslvz2iAFP-87" value="Address" style="ellipse;whiteSpace=wrap;html=1;align=center;sketch=1;hachureGap=4;jiggle=2;curveFitting=1;fontFamily=Architects Daughter;fontSource=https%3A%2F%2Ffonts.googleapis.com%2Fcss%3Ffamily%3DArchitects%2BDaughter;fontSize=20;" vertex="1" parent="1">
          <mxGeometry x="600" y="10.030000000000001" width="100" height="40" as="geometry" />
        </mxCell>
        <mxCell id="OMsYIrX4x_dslvz2iAFP-88" value="" style="shape=stencil(lZbdUttADIWfxrdnpNX+XlN4D2YIjYc0YUKg5e3R1mOIlkSd3vnv88pHR8c7yc3L9v55MwV6OR0PT5vf88NpO8mPKYR5v90c55MeTXI7yc3j4bj5eTy87h+W8+f7/mQ/+nV462/4s3CNUEKnAr0vV2JCan+v3C3Abt6fAxmlGCAJWnWAhsoGyIKaXSCJAUoEeyUltGyAqis4QG2IFmiMFh1AVbIltYLE14FCyFYlJgLRdSITJNolGtiRKRGq7ZzqQE4jooBtI2oFO4BUkAVK84EMsrrmBhIHKGMjUkV1VIphXCGqW5zO6W1pFggITklaQK4G0CKzs0KuaMkCGSE53lARrZlU6OB8dG+TXUFbGfyBoGFG6V8zykPjCLFcB87c/OkNWoPh8hI6MBbQofJa3UdysGtbX3FZJh36YUg1GJySeqzYkr6i53KrBeXbjFYnBjQa6wBofHozmhCHoVZZHTN1QP4HkDima09Dx0whrm7+BBKyE0yc1rQ+i43ofHRBtW4tDHHaEMYwzrym7cXn1ar2AxKvKXLteWuLSODg1ZNsYgRfUc0TWz831xQcR4GYkZweBxmBBHEmRz0x/Bm0AY6garpBofHfpgdfO47HebdbNizn98cdil5adjdy+wE=);lineShape=1;sketch=1;hachureGap=4;jiggle=2;curveFitting=1;fontFamily=Architects Daughter;fontSource=https%3A%2F%2Ffonts.googleapis.com%2Fcss%3Ffamily%3DArchitects%2BDaughter;fontSize=20;" vertex="1" parent="1">
          <mxGeometry x="510.26315267154473" y="-17.54453332802268" width="2.51462274023811" height="2.5223367616044925" as="geometry" />
        </mxCell>
        <mxCell id="OMsYIrX4x_dslvz2iAFP-89" value="" style="shape=stencil(lZbdUttADIWfxrdnpNX+XlN4D2YIjYc0YUKg5e3R1mOIlkSd3vnv88pHR8c7yc3L9v55MwV6OR0PT5vf88NpO8mPKYR5v90c55MeTXI7yc3j4bj5eTy87h+W8+f7/mQ/+nV462/4s3CNUEKnAr0vV2JCan+v3C3Abt6fAxmlGCAJWnWAhsoGyIKaXSCJAUoEeyUltGyAqis4QG2IFmiMFh1AVbIltYLE14FCyFYlJgLRdSITJNolGtiRKRGq7ZzqQE4jooBtI2oFO4BUkAVK84EMsrrmBhIHKGMjUkV1VIphXCGqW5zO6W1pFggITklaQK4G0CKzs0KuaMkCGSE53lARrZlU6OB8dG+TXUFbGfyBoGFG6V8zykPjCLFcB87c/OkNWoPh8hI6MBbQofJa3UdysGtbX3FZJh36YUg1GJySeqzYkr6i53KrBeXbjFYnBjQa6wBofHozmhCHoVZZHTN1QP4HkDima09Dx0whrm7+BBKyE0yc1rQ+i43ofHRBtW4tDHHaEMYwzrym7cXn1ar2AxKvKXLteWuLSODg1ZNsYgRfUc0TWz831xQcR4GYkZweBxmBBHEmRz0x/Bm0AY6garpBofHfpgdfO47HebdbNizn98cdil5adjdy+wE=);lineShape=1;sketch=1;hachureGap=4;jiggle=2;curveFitting=1;fontFamily=Architects Daughter;fontSource=https%3A%2F%2Ffonts.googleapis.com%2Fcss%3Ffamily%3DArchitects%2BDaughter;fontSize=20;" vertex="1" parent="1">
          <mxGeometry x="510.26315267154473" y="-17.54453332802268" width="2.51462274023811" height="2.5223367616044925" as="geometry" />
        </mxCell>
        <mxCell id="OMsYIrX4x_dslvz2iAFP-90" value="Preference" style="ellipse;whiteSpace=wrap;html=1;align=center;sketch=1;hachureGap=4;jiggle=2;curveFitting=1;fontFamily=Architects Daughter;fontSource=https%3A%2F%2Ffonts.googleapis.com%2Fcss%3Ffamily%3DArchitects%2BDaughter;fontSize=20;" vertex="1" parent="1">
          <mxGeometry x="559.44" y="119.13" width="100" height="40" as="geometry" />
        </mxCell>
        <mxCell id="OMsYIrX4x_dslvz2iAFP-91" value="" style="shape=stencil(lVfbchshDP2afdUAAoSe0/Q/MhOn9tSNM457+/vK3eIabfe4fltjHSQdHQmY+OF9+/S2mVJ4Px0Pnzffd8+n7cQfppR2r9vNcXeyr4kfJ354ORw3n46Hr6/P8++3p7Pl+evL4dt5hx8zrlCNZ1AKP+eFSDH9Xvg4m+93r1fmkamF0T6QlnVAYiqjA/NQZR3AgXIZAY1qA4BGIQ0AFkogh1xIRoCtNF4HFO5/d0DJlOs6oEYqbQDURKIA0BYAJYnrAMmkYw5SKAGWWvBJi5KCOqiQ5AGgkTQDQCMZWdJEFdCqSnlMWhlKwwAuab3QsApwHiol7OFPABeA9MqsAZz4zjQEyFIcG8i2KCgHobAAoI5TE3O+C5AXlb4RkvVDvCtppljvojVRG4fAuXAYoC4kkwYSHxO7pG+IL1PQhbxRPxQKTnw3Gqj2sXUFqKhwQiwegMaMlSknnwODQWZCSOJZSsiDLqRhoxIAYggLfZuAcVN7F9Ll9b9JNGLEq9HkJpli9Vkhmgc05GFR6iseVtWk3gU6Ie4GSO093AEND0uJfva1CHOo2Z8Qdowhmor420YVqsBDMRLHri4KBZ6tYcZBY1sICIlt9o205gRZSpV4BLBNEuAh2rE45mBbCFKfdxBrL/0/7e3CNg7jSgWMJbuPjd2D2zNQHKPP8Jqx6H4jB9QrdOouZHZ3K+Zp7EurFdy9OibhNS/2zbp56JNpxVzZmTM4oZIPJkBm2F+m8DzJfiZa3UCZrIg+mIIa975XxU1z+/j7gHnZ7ffz++f6f//gsaX5scSPvwA=);lineShape=1;sketch=1;hachureGap=4;jiggle=2;curveFitting=1;fontFamily=Architects Daughter;fontSource=https%3A%2F%2Ffonts.googleapis.com%2Fcss%3Ffamily%3DArchitects%2BDaughter;fontSize=20;" vertex="1" parent="1">
          <mxGeometry x="496.181296864391" y="29.981391146215856" width="18.829131772443816" height="16.14946553605637" as="geometry" />
        </mxCell>
        <mxCell id="OMsYIrX4x_dslvz2iAFP-92" value="" style="shape=stencil(rVjZbhsxDPwavxKSKJHSc5r+R4A4jdE0DpL0+vtya8i2qN0JCvTNB0fiTY52fPP2ePey36Xw9v56/Lr/ebh/f9zxp11Kh+fH/evh3T7t+HbHNw/H1/2X1+P35/vT95e7RXL59O34Yznh1wnHlMMCSuH36YdAOf794fNJ/OnwfCUulGQQT9TCtniMVOMgr6QNyCuFOsjHRFq2AaZucQChiACZWhktCJQyADTS0QQ7Qus2gDOFNgIaBeAk1n5eB7AZDVTKkWIeAUIBATLxqBI3igIA6t2aEyWQFyWQ8ggwR4NIF6bqblASdIOlxniD3YkiLfb3aHTBbhUmGVUqpVfHOkB7XM8ApQZSQy1bdQCYkgJUUqY2Jp8pieKgStHdUKiCONTg3Sq1J/w6IJGMbtVIGRhdzYnjDWoVogCgvaecAULC24BmNow1ra27YR0QSdMAqJEKqIfGxKMN1SKTACBTHW2ouC816XE9Ayos0aaUxyawuAGpVCmNNpgbKvJS9c3b3FBALrVG7ACFIhoPIfgKsjMCclPr2XwFYAwoxQMEuckUiB5QUfZV4uQBDUfOdYErP2wlR52vAH3DAFE8AA1eC5RMgIKSoxBPgIRvYBfqCieEAXLzAEVeKr5vGCDjmisTIOHIpeQBHxRpqxMAqVT9trGohCLdpuwzo3F+q3iAIBvaig0Nl1ybUwMDZCrqgkqu+Wa5WIVbWZlUaugG9RX3YY1qH2rXVyCdhHgCVOSm4mfK4jgMcJN3yRZccmkKRPivgDz1bzsCbA8GEGcD41DnSaUEh9Bynsvv0HvbOiBNs732RrK1briGb8tARjYEP6prhhVkCsi4DNhCA9c+XVmZ0AZUJ96kire4RGWsIFv7CrDBFFB3Q4Q1uuy6YxzE1j60fmffK0V6hawDjGhN6zfifjJROYl9ZKwDctf4TCEslxBJCZ43GUlBbcYoCY+pYdQLVVzJE28KcO6W2PfOM5WrnaBuscs6qpQLFcA5jEvKmBr5zEK2GHIeAUZ4EdFim7JjLhmlRioZy3fLMXM/Yh0wkfbUIG9K0tnqGWCtEkQ6xZ4IV08biPBG9btxFOilmH2kI8OFqXoTak/GdR9RHI9n2CaDX3IjnNAT0w09DbfE/cuYQGXc+A9wJoTezy/iyDOhJ+NFHD0DhL5IXMQhD+sr5kU8gLYYPVfAm1Hy72GhM6wN8eL9HkCKpc5hr0zFKVa9I8Hp//g8+qG4fbi8xD4cnp5OD7nX//uXW/vp9OrLt38A);lineShape=1;sketch=1;hachureGap=4;jiggle=2;curveFitting=1;fontFamily=Architects Daughter;fontSource=https%3A%2F%2Ffonts.googleapis.com%2Fcss%3Ffamily%3DArchitects%2BDaughter;fontSize=20;" vertex="1" parent="1">
          <mxGeometry x="515.4347031300435" y="-22.764605407468707" width="31.69666796629258" height="80.2295718919529" as="geometry" />
        </mxCell>
        <mxCell id="OMsYIrX4x_dslvz2iAFP-93" value="" style="shape=stencil(lVjbUhsxDP2avGrku/1M6X8wQyiZUsIEevv7ys04ieTN2fAWlqNd+ejo5k24e39+eNtuPL9/HPbft793jx/Pm/Bl4/3u9Xl72H3Ir02434S7p/1h++2w//n6ePz77aEj+68f+1/9DX+Odq1RS93K89/jE6bm/j/4esS/7F4v8YlaVvhMPgM8UwwK7xyFeN2gZkpVG0RKDAw8edYGlVy5blCyPYL32MARa476oQFJOVKN2kBoBmdIjaJ2KfgRl2WDQFUfOiT4hVipOG1QqQZgEAbrwyA66JK8L+lDx0itAoNIQdMay4jMooGQWLQ0ElNtwCBZ8XXegPi8s3FIefC2aCBS800bSCiBlpy45HX+iH6RQSDWcchpPFk2YCqa1lyGWJYTyCZcYcoepAMFgw8UQZwz1aLxmQLKHsra/9KI4fuTDkF1VICyZ3yEFUn8MXjRBIhYHnl1wrdRP67wyVoRzZED/BTy+v0tQEEUiprPFimDNCv2vNIjGOohTvgA+W9s8RnqgSc8rFxWb73HgXgFyrpuOWZIqLcp3D8AHJKGly0eCYgpJYtPIADi7RQAD/zhSXAV9nye/K+UUQWy7VLwKME8cbR4hzoN+cl/lGBxVOQb8ckWoBV/shXQynnLSI8b+ZSEnPxH8SrjbTfqoZCLFo/0lif/sZ7TaHA35ku0+llPyOqmD6CeulDhUEVhO3esVCy2E+lKReSFCocq7ufx3gQYdwC2U9BKh+FJoLiDsa3QKx1SCorpqLgDy9e1/73DwwJt+OkTBOBzKuhlzX8zccgE5AFe1hFd4GTCQv7Lf837TyX7SkImzb9MiCjhi51oZMEpeAQNZmaV3QERGsY+dTFGo5nPZVvTE95Du6aNQYAc9TFCVyFZNgJaNppVhawzaHEN0+AhC1MELsmGlTVLspJFkGeyw5kzyCs8oDUK62ZLTGPBWVZStNKWxRWxJHFt+gtn3pabjey1+gsiXzTey7ZuVmOPs7nfB5h+U6gAl6Q6eB1pF6Fapfw0LT7JELRLN7ZfOLGwjJfva7yUZMCR4H01+Ij8OfWLMx7JoqVxoXLGO3RLJCFtBs+gwLc8Ns4LPLq1KrYj44FC8EalPFrQMr7aisqwAUq/dsHyCSTaBzJ73oD4abbD8ricuVKwp5GCYc58+tpwFS8/zneUT7uXl+MV5+X/7Z2mPDreh4b7fw==);lineShape=1;sketch=1;hachureGap=4;jiggle=2;curveFitting=1;fontFamily=Architects Daughter;fontSource=https%3A%2F%2Ffonts.googleapis.com%2Fcss%3Ffamily%3DArchitects%2BDaughter;fontSize=20;" vertex="1" parent="1">
          <mxGeometry x="576.0737209551335" y="-21.16485109721907" width="18.891371895860175" height="73.80096375125322" as="geometry" />
        </mxCell>
        <mxCell id="OMsYIrX4x_dslvz2iAFP-94" value="" style="shape=stencil(lVfLbhsxDPyavRKSKInSOU3/I0Cc2qgbB47Tx9+X24Vsk15PkdvGmdFjOENJEz+8b5/eNlMK76fj4fvm1+75tJ34y5TS7nW7Oe5O+jXx48QPL4fj5tvx8PH6vPz99jQj568fh5/zCL8XXm8UeGal8Gf5JQZq5d8vXxfCfvd6TYiUgiUIxXyf0DJVO0NiyoAgmaQYAmdiuU+ojboYQo4UEyAk6skSGjEglEpSDaEUkggIgXIzhHnOcJ+QdYvZECRQBJtmoWJnEKEMZuBAxcramKQDlUhsoXunikQaml+cFCigFVFJfgIBxkgU7I7VvA1IFKhbSbsqBDYcKLn1aJEZ4YMTSAVtCM8OH2HU4s1+A0xaomTxTfUBBWOfM8UHMH4htiFoAvWvPmU6PqNOQcnGuHViUK9OqXt9Othvp+b8kEjA+hXvxs/QD52ybXS9UgVNog03Xvk5Abz2WYfvoyJ36lWLx3egf6Zwiwf5TVTY4xPQJ3p/zocPGF97aPR6MsiL5tHlN8OD5pymKz9kmF+x/lS/VeCf6P2mfkb1ZUoO36Cen8VrgV3DFaaGFhR8AvSojYggYwFnQhyLXLecXgXcwcowk7l70+UKTzE9qKudgfvw4XrXir7MHIcM6wTxdVahUd9V1Ys1dtRGDYIg7YbAY871zlIo2SgLTIIaP7pL3eg163imaKsQRh3X8dm3ds0qwhdvC3yTmButX09C65dxe7vg4cnR/PgR6j83ZmsJpgByo/hm15Nhp7u6WZ1zA68el05+MQTKpeJdq2jw7jffxNzZhF8Rn352/J+gH5dXzstuv18eSdf/968i/Wl5UfHjXw==);lineShape=1;sketch=1;hachureGap=4;jiggle=2;curveFitting=1;fontFamily=Architects Daughter;fontSource=https%3A%2F%2Ffonts.googleapis.com%2Fcss%3Ffamily%3DArchitects%2BDaughter;fontSize=20;" vertex="1" parent="1">
          <mxGeometry x="598.2545415461225" y="37.804980247187814" width="16.142573391060523" height="13.204822802491435" as="geometry" />
        </mxCell>
        <mxCell id="OMsYIrX4x_dslvz2iAFP-95" value="" style="shape=stencil(lVfLctswDPwaXTEEXyDPafofmYlTe+raGcd9/X2hKrINyNpMbhKFFUFgFwCH9PC2fXrdDDG8nU/H75vfu+fzdkhfhhh3h+3mtDvr05Aeh/Twcjxtvp2OPw/P0/vr02g5Pv04/hr/8GfCMZOEERXD3/cVSvX/wtfJfr873NjHRClbe11p64CUqSQDuP7iLiBHqsUCOvWyDihMjQ0gCWXgUg3UqgHkQjEAQPNBKpEicEkK5W4BjcbXNUDj2eMZUBMJOEOrFOwZaqcAwto6ZZs40R0AoDNFmzgRmIceSaxLeqr33N8HZGIbpZapMwB0n7heqXcI6PYMXWayrAGi5VJvVNAOQmLZOv4CCKgXkugBMA8ql+QBHVCjK72XAOBSa5TFAyomX2EPYAGAQlx9WJFElQjFhVWogjwoQCy9lRoNuyTJAxhJVChZtmoqC6gaqrgiHsAAoAIKziXVA6JGXuShUEASrV6iCshID81XbwV8oDhXvcc9QVg5BAq2uGqqYdnQuLpUN9hRxs8Lugak0Up5IeqKMqeVbAHo6AxM1SbiJg5rbIqLutEQQIgXp0atXRXhc91mjaxpzh1CMwcLzWcBoqm2h1YnE6CfNGq2j2oPQsVSmg+rrqB5RsRHSfLMx7VZILjWjuu3sB+xKm6LtVCz7CsdRkk/O5dKogy4pCOW69RZJQJUrUOcG0+ScgmU46TDgxvidP4AUYp5HtkuY6KyC0SJoxc1Z1hnwrz/ZYO5nq+YuzIWZ/2tmdvmoBUBOuPmQ80IiA57VgcY/ehHPd0OOKNkqc4cOZP9PBLmPnefzj7uuDCKJ06YyX2/8voeq2kGkeHL0a72BVQsvU+F7uxRI/js/etje324XvZedvv9dFe8/e4vh7o0XSzT4z8=);lineShape=1;sketch=1;hachureGap=4;jiggle=2;curveFitting=1;fontFamily=Architects Daughter;fontSource=https%3A%2F%2Ffonts.googleapis.com%2Fcss%3Ffamily%3DArchitects%2BDaughter;fontSize=20;" vertex="1" parent="1">
          <mxGeometry x="588.1984950515418" y="87.59767836358333" width="10.04426037947519" height="30.688140297497284" as="geometry" />
        </mxCell>
        <mxCell id="OMsYIrX4x_dslvz2iAFP-96" value="" style="shape=stencil(lVjZbhsxDPwavxKUSF3PafofAeI0RtM4cNLr70tjIWdF2eP6zdkMteI1HO5G7t6fH962m8jvH4f99+3v3ePH80a+bGLcvT5vD7sP+7WR+43cPe0P22+H/c/Xx+Xvt4cj8vjrx/7X8YQ/i11rVNPRKvLf5UmgsDz4uuBfdq9rfKDcBnyhBPBVpvPtiV42KJVSHg0qMQODSBwGgxip1MsGWSmV0aBQi5cNkv1bBwOJVAMwiKQyGhSKwGktJHUwUItzBgaR2ui0JsrgDWJ5HvOmjSKIkuR+425gXrUCDITCGNaUKYPExdaj3g0yUwS1FDOl0YcsMA9R+nkng0IKDMIUpcJUQR6CXWn0oSjMtFV/GMu7FMogrCH06u8GlaHTzdeetWABaajUHD6TAA9qD8gJb09A9zR/f6MQRgxD0eEtZKBQzd8xA632JF7Ah7HVjAJR1VXS7PEJlIS1cvJ4SBa9q1b4hlqf1BEqMyTIeO4FIGEn5lnhCygI7vW7witwgCkEjw+C8DwWqCW4gI5hUvV4BecHis3j0X0iJXf/0sn4PDFSSx5fQb4Sab0Fnz2NXrmPeTfFB/lrBDHFB8XTss8ej/LVSG6qBzttajAF5xcqN9Vz9g12pV+0t+v/NqScewFoGBM4kwOIUdhf6ApjsZ+SVxiRJ0bHjHs7XuYJABs+uwKyCQMJzglGm2AFDXmvSG1CRnD+RBA2gRVMMCVx5zPMV/b+moQQOIHdACgmm8B9TKPIyLimghKSTdmPANNZDN5wLInRBVNyqIetZ2QkudS6brmoFceiNjUaQdFZlNzYM72bQVRlEpdqTIkVtVMGptkj8EG5C6vVVoAa086r4+iwdxbgdApdDq82G1RKqfphbPSqaDglErdsRbh3lNCXtxOd2oYJolSy386O9QtqqWrP6+cKy6DdmvXz+AKGq1abdrOTIjmPF68wjZDRvFSvYBnOy5Z8s1n3ofuk+f5onLVMVTweLSg2kKfzkb+VEnt/0ULQ/IrFnc8u4XNyeMR2rfmNiamgccPTAGTIXTd/k7mKtx+fH4Cedi8vy/ej9f/9ByN7tHxskvt/);lineShape=1;sketch=1;hachureGap=4;jiggle=2;curveFitting=1;fontFamily=Architects Daughter;fontSource=https%3A%2F%2Ffonts.googleapis.com%2Fcss%3Ffamily%3DArchitects%2BDaughter;fontSize=20;" vertex="1" parent="1">
          <mxGeometry x="518.4999274768925" y="90.03564621413989" width="14.865507462631513" height="63.17606778620416" as="geometry" />
        </mxCell>
        <mxCell id="OMsYIrX4x_dslvz2iAFP-97" value="Address" style="ellipse;whiteSpace=wrap;html=1;align=center;sketch=1;hachureGap=4;jiggle=2;curveFitting=1;fontFamily=Architects Daughter;fontSource=https%3A%2F%2Ffonts.googleapis.com%2Fcss%3Ffamily%3DArchitects%2BDaughter;fontSize=20;" vertex="1" parent="1">
          <mxGeometry x="-76" y="465.55" width="100" height="40" as="geometry" />
        </mxCell>
        <mxCell id="OMsYIrX4x_dslvz2iAFP-98" value="CID" style="ellipse;whiteSpace=wrap;html=1;align=center;fontStyle=4;sketch=1;hachureGap=4;jiggle=2;curveFitting=1;fontFamily=Architects Daughter;fontSource=https%3A%2F%2Ffonts.googleapis.com%2Fcss%3Ffamily%3DArchitects%2BDaughter;fontSize=20;" vertex="1" parent="1">
          <mxGeometry x="-100" y="540" width="100" height="40" as="geometry" />
        </mxCell>
        <mxCell id="OMsYIrX4x_dslvz2iAFP-99" value="Name" style="ellipse;whiteSpace=wrap;html=1;align=center;sketch=1;hachureGap=4;jiggle=2;curveFitting=1;fontFamily=Architects Daughter;fontSource=https%3A%2F%2Ffonts.googleapis.com%2Fcss%3Ffamily%3DArchitects%2BDaughter;fontSize=20;" vertex="1" parent="1">
          <mxGeometry x="-60" y="600" width="100" height="40" as="geometry" />
        </mxCell>
        <mxCell id="OMsYIrX4x_dslvz2iAFP-100" value="TelNo" style="ellipse;shape=doubleEllipse;margin=3;whiteSpace=wrap;html=1;align=center;sketch=1;hachureGap=4;jiggle=2;curveFitting=1;fontFamily=Architects Daughter;fontSource=https%3A%2F%2Ffonts.googleapis.com%2Fcss%3Ffamily%3DArchitects%2BDaughter;fontSize=20;" vertex="1" parent="1">
          <mxGeometry x="23.439999999999998" y="648" width="100" height="40" as="geometry" />
        </mxCell>
        <mxCell id="OMsYIrX4x_dslvz2iAFP-101" value="Qualifications" style="ellipse;shape=doubleEllipse;margin=3;whiteSpace=wrap;html=1;align=center;sketch=1;hachureGap=4;jiggle=2;curveFitting=1;fontFamily=Architects Daughter;fontSource=https%3A%2F%2Ffonts.googleapis.com%2Fcss%3Ffamily%3DArchitects%2BDaughter;fontSize=20;" vertex="1" parent="1">
          <mxGeometry x="86.85" y="595.48" width="151" height="40" as="geometry" />
        </mxCell>
        <mxCell id="OMsYIrX4x_dslvz2iAFP-102" value="" style="shape=stencil(lZbdUttADIWfxrdnpNX+XlN4D2YIjYc0YUKg5e3R1mOIlkSd3vnv88pHR8c7yc3L9v55MwV6OR0PT5vf88NpO8mPKYR5v90c55MeTXI7yc3j4bj5eTy87h+W8+f7/mQ/+nV462/4s3CNUEKnAr0vV2JCan+v3C3Abt6fAxmlGCAJWnWAhsoGyIKaXSCJAUoEeyUltGyAqis4QG2IFmiMFh1AVbIltYLE14FCyFYlJgLRdSITJNolGtiRKRGq7ZzqQE4jooBtI2oFO4BUkAVK84EMsrrmBhIHKGMjUkV1VIphXCGqW5zO6W1pFggITklaQK4G0CKzs0KuaMkCGSE53lARrZlU6OB8dG+TXUFbGfyBoGFG6V8zykPjCLFcB87c/OkNWoPh8hI6MBbQofJa3UdysGtbX3FZJh36YUg1GJySeqzYkr6i53KrBeXbjFYnBjQa6wBofHozmhCHoVZZHTN1QP4HkDima09Dx0whrm7+BBKyE0yc1rQ+i43ofHRBtW4tDHHaEMYwzrym7cXn1ar2AxKvKXLteWuLSODg1ZNsYgRfUc0TWz831xQcR4GYkZweBxmBBHEmRz0x/Bm0AY6garpBofHfpgdfO47HebdbNizn98cdil5adjdy+wE=);lineShape=1;sketch=1;hachureGap=4;jiggle=2;curveFitting=1;fontFamily=Architects Daughter;fontSource=https%3A%2F%2Ffonts.googleapis.com%2Fcss%3Ffamily%3DArchitects%2BDaughter;fontSize=20;" vertex="1" parent="1">
          <mxGeometry x="98.06314046451348" y="854.2555460176804" width="2.5146227402382237" height="2.5223367616044925" as="geometry" />
        </mxCell>
        <mxCell id="OMsYIrX4x_dslvz2iAFP-103" value="" style="shape=stencil(lVjZctswDPwav2JIguDxnKb/kZk4tadunHHc6+8L1UPbgKTN5E2WsCKOBRbyhh/ed09v200K7+fT8fv29/75vNvwl01K+9fd9rQ/69WGHzf88HI8bb+djj9fny+/354my+nqx/HX9IY/F1yinidQCn8vNwJJ+n/j68X8sH+9M+8UijGvlIB5FJJm7GOmmtcBejxbgN6JAQAKRQcQ6nUdwImYDUDvRAaARi1ZQKMOADlTjwaQBQYtgUI3AEkUECBTszFIpQyClk7ZAkoalVkEFKZigy4FprVUYhtDjdAlfRyqBQglUOmaSWwMtVIrAKCPLTVagGxtkdg2Q0ujMssArYMDZHxCpW77pyk1Iui3Ptg/AJ0pg6AVUKxLPY/KrAG6WIDgEaAAm9ZeqIJ+UEB1LmllsEvJudRGKZcBjcSmdUoD4JI6UMUDEL01xNZnAIGA0DxAEEAox1nQKIbsR/eUVgyotqfVyYIKpwAXgzqJqCEUXQxKPkRvoWKHwERvFEOZZSlRRVyqMy7p5AOzVbPuOy5RQSdomWYxJNzTufksBdzT/gSBkhWDKooLogzZWz3Cpal+NAWyY1+DijKlyVWu48HUKLAHwLFRKdo03eVhjU1u4E+zChO8zIJACjEB0mcArQwRvKNfBpVrV/5fAbrCIR3tXkdbowQ6QnW5OoAMtiwDdMVyKsdjGi4vD81nSZ2soCPKTHgrFq0Sx+C6AgJ1UAddqNhWWhcgBifoyuZUTs9EXZ2r11HRGMDcyMlrUO6Dv8uba/FzQ19RQOE4+CyxjIVlefvWdcdSI3VIjdj8OE5MHbA1sndJX4GypGuqs4/jC2HRPnhRzFATw5Cnm3kENAp+JPEQvBVzN/J4LMlr5tYZHRUg+cFv3HF00Yq5K1WkBJ0Rm0jNLDRvxZkzKJOe7c0j6MY4JPtmjoTg+gV4Zw5IkPy6GaDgf/Ib+0Nzvbh9zr/sD4fLvwH3z/3nv966/HXAj/8A);lineShape=1;sketch=1;hachureGap=4;jiggle=2;curveFitting=1;fontFamily=Architects Daughter;fontSource=https%3A%2F%2Ffonts.googleapis.com%2Fcss%3Ffamily%3DArchitects%2BDaughter;fontSize=20;" vertex="1" parent="1">
          <mxGeometry x="15.82682173129433" y="496.42786151811424" width="31.368376150870063" height="22.220583492898186" as="geometry" />
        </mxCell>
        <mxCell id="OMsYIrX4x_dslvz2iAFP-104" value="" style="shape=stencil(lVfZbttADPwavxLkHtzd5zT9jwBxaqNuHDju9felaqzspaUJ8iZbwz3I4XC0iQ/vu6e37Sbw+/l0/L79vX8+7zbxyyaE/etue9qf7WkTHzfx4eV42n47HX++Pl9+vz1NyOnpx/HXtMKfSxyTliko8N/LHy1Tjv//+XrBH/avN/hCKQ/4WimndbxkSnUMYGJdDwhCOu5QImkAAdUHqPY9FwOivQ5DQK5U2npAShTHJGWmCnbIQq0NASlSRgF2AB0CYqHI6wGa/A5RKIAsFaYYh4CgJAUEJKpjlqbKoB0qtbHSUigAKtVAdUyrRAqgDlX765mspCBJtVEYTzRXfhHfKokMeKMq4LbhNXo8uHBrJB6Pimz4nB2+4vXriBfKoMSGdyQKlNB9m69wpIjxxbUBCaiv4ZM6fMV4do3cG3WtXtnjUVcantnjUb3K/fqC6lVIkrtvRvzUno5r/gtaX33+reNQvfSuIallfH52eEHr2/AY12fKAvEtObwgfPX84V7ANXzz5xHEh+YHB3cBWOW/uvxEdH7rrxEfYD6F2RM0YsFqvsCRGiKcCZBvYMUJklEgMoUPBLQ5PDITn8YzlZFAggd3Lf1+NyNJ0UhKXtJt6KGxau4njBo9iTrYoWi3S3NAhiwq0ptqDjBeAZqaXRInK6k3xrJbaZ01My2EGNwhR79DMnsDTGDKpOMdsjEPVNrskvOxGqC2TzkZqWEOKaCA4Idfmb3wcneqn8Y19j2XqdGH++xuAmR38Opr7acgqeKnwaQ3QB7Fq+mN3qwEuF64Ctoi3ogvHo98OPvxOgkyxHu7aIYB8NrU361foX9ibz8mwwDk9E6tp4EICsy+868Deu2+7PHInzEll/8M1fGz34of4+3h+mH6sj8cLt+1t+/9h6z9dfkIjo//AA==);lineShape=1;sketch=1;hachureGap=4;jiggle=2;curveFitting=1;fontFamily=Architects Daughter;fontSource=https%3A%2F%2Ffonts.googleapis.com%2Fcss%3Ffamily%3DArchitects%2BDaughter;fontSize=20;" vertex="1" parent="1">
          <mxGeometry x="-4.964934043447101" y="536.4889101505105" width="40.828691675805885" height="23.476257550858918" as="geometry" />
        </mxCell>
        <mxCell id="OMsYIrX4x_dslvz2iAFP-105" value="" style="shape=stencil(lVfZbhpBEPyafW313N3PjvMflowDCgELk+vvM5PVANPLFvLbslTt9FF9zBSePrYv75vJ88f5dPy++b17PW+n8GXyfnfYbk67c32awvMUnt6Op8230/Hn4XX+/f7SkO3px/FX+8KfmcfkSyN5/ju/UCEf/r/5OuP3u8MN3iViPxDEk/p1QmBKcSDkQoXXCdGT6EBIiXxaJySm4AZCLJSBD0kpjyeEQgJ8qBbrGCWvFAGhRMoyEjylAghKEgaCy6SyTpBIzCPBUwZhlUIpjYkjyet4ZWtRogRc1kI84mtagAMVH7PBO5BlXeSAuxLv44WStYcdwCtxsvZgfGLrLxBdxYs3+IzsV1I1eAUKavhRcu6RPUUNPuPvx2jwivIl1h6P8ysUk8H7iPXAFo/yVSiowTPyNy/jKSiemYoz+ITsyb1cr3iH6jH39Fz1IKDem/1WbxH5W+Nj9fwgnmLxjPMbosUj+2t7EovH+gy2n0D9VP3b/gDzpV3uN/EH/jrmRYfGAa0Nohh8QoLQPlFuBIoD9Dl86Hq5DG7KeGC4MWEKG4TUz5mGEvrUvE/wtuM6gZIrVdJjCfjQJ/99Qm3JYw237QWckH2fcRdCbXto9Qh9CF12FaECohpTnxKXMZwpghNCID/2uSxwQXPF7lt1t3Boo+sL4iXP2kf5XXzdD7PFozx763GrDJAEf8ceBfY4O4hvSnWFEHlxAHCA7eRuDgDZsS2E1ptA66qLRrL4BPFuEaAA/GW74rfdCEhu0ehq7y4gYRUvFh9hPD93R3mMrw/XC9Hbbr+f71O3/9sLVH01X77C8z8=);lineShape=1;sketch=1;hachureGap=4;jiggle=2;curveFitting=1;fontFamily=Architects Daughter;fontSource=https%3A%2F%2Ffonts.googleapis.com%2Fcss%3Ffamily%3DArchitects%2BDaughter;fontSize=20;" vertex="1" parent="1">
          <mxGeometry x="27.03576306899072" y="555.7452164492056" width="32.316410663245506" height="49.02040731426587" as="geometry" />
        </mxCell>
        <mxCell id="OMsYIrX4x_dslvz2iAFP-106" value="" style="shape=stencil(lZjbktowDIafJrca2/Lxert9j51ZtjClsMPS09tXLjXFCvlN7gLRl1i29EvKxE8f25f3zeTMx/l0/Lr5uXs9byf+NDm3O2w3p91ZriZ+nvjp7XjafDkdvx9eL7/fX6plvfp2/FGf8OvCFUshVcqZ35d/DIXy94/PF/v97nBrb8j5zp7JpmX7XMj1zy9kPLDPej02UMoQMLEDxANvAJAomR4IlC0EPPcuW4oOAk4B8gj8BlM6wDtKaFcjFQUkYrStArgOCBbvUqTcn0MIZJHTAvROh9w2ehHozyE6YobAv0C4AqEtchHoQyNKNAYMhA5IjgL2IfXZkALFgQ8KkF3C26qALME3WFJ/Dtm3FHwUiKPw9v0uSQ5GnNOxf0MZiIzEZh/exUEfitciUJgyUI0S2+0rEIjjMmCNIdOHa5FgQk5IRmYNBKQCRSeEACg20kz6BEBeRyZOGihgX0VVXH8QN/twl+D50ckrQM7ZNAuO0pTkvtdkZ05H9IJWn27sPYhWo12u5wyOzbdkudrnJs7318O6/giQAOBiS5YbAHnsrRZ7AQKIC1FqO1sSAhLrkjhYkkgK2zVO13TMa7a15op6Az43eV6eBR4KDNGg7DUAnXZNUh4M7ZhbtXkweYKjuDI/Rdtn24QkQPKnzPMTxIY1ZGcJhGTM3VkR0sm1QrzWnluf82BpCFRUWODak5t3DxY3a2eqjcunlaZlVYEWSVJN+qAFuAPgJqMCfSoM2pg5MGiU7gC4FavAqmavAv1BD9rJCvSRNGhYK7CqJbasi9ug6a6A6tJxWy+A6XV4MDhUoA/vwWgi0VoUgIcfe7394HhV80EBeIATgFeNiJKiSgMGQ6gAqoAOxlxRVdWl4zm66NFnMKbr5QwadN2zmTYSLEZdUfaMtjPr7ty0xFjqkFjbW1QEg9YKqREgzbzX4zYuspJTKgewffR6yMPrkfZL9ZzYX9Faq+3RftbRXK8fnZfUI9YfkVA8rP7oNLSXi/9fuN52+/3lA9ntff1FTP66fE3j5z8=);lineShape=1;sketch=1;hachureGap=4;jiggle=2;curveFitting=1;fontFamily=Architects Daughter;fontSource=https%3A%2F%2Ffonts.googleapis.com%2Fcss%3Ffamily%3DArchitects%2BDaughter;fontSize=20;" vertex="1" parent="1">
          <mxGeometry x="71.71920365024243" y="560.4381502573028" width="1.3614965691440375" height="95.14327992676408" as="geometry" />
        </mxCell>
        <mxCell id="OMsYIrX4x_dslvz2iAFP-107" value="" style="shape=stencil(lVhdb9swDPw1eSUkUhKl5677HwWaLsGypkjbffz70UuVWLRzxYA+pDbPEsnj6eyN3L3uHl62Gw6vb6fj9+2v/ePbbiNfNsz75932tH+zXxu538jd0/G0/XY6vj8/nv9/eZgip18/jj+nJ/w+42Img0x/4c/HFYr534Wv5/jD/nkWz0xRhnil3EB8pRjG5yeK8TZAItUyAiqVBACZUh4ALFQVABpFHQGNGKyQmNq4JUlUBQBSr0kHpNA3uQ4oFMYupEwCypqU1AEaKUjabuexD1kgIEcSB1BKFQDEd7oEaqDTuRCPjSuJAljBnhccoPTOrAPSYksNbqkolRGgTDXcBmggHamhuT9iHSC+cVopAy6p+irVSAEkbbc/5usCEMqAfHa7OYB1BlCjZmppBNQ+tKuA1rxotAIBMVirx0Y00xnADVuiuCUqCWi13XZksisNrWA6M2Zta2YGAO59mgGQMFkVeRSmWR3WEYnScgmgGxN3lkkAchg7JXtAQHwtpGHRCNBrA7DrnPZe3poIJ5bGJjTVloPTbwMwaLVVqY6NsOYjGbCJSOIBiBu1+VZP9ALcMDK15gEFzZylGH3SSDesTVk9AB28E9UcNZTkE4DLwYYQJV1XuIQOLdtxckk3SL4mXl0NoIgal3GZAZBsGDV8DgZAcsxevydtAzOtrTu2GYAB+WyAIvuyIhO3CkCnXGE/QFY3ZIBy8+QzaSvIbZSuQhcAd2lbBzDpqHyKXV8O3gCZUgkycUrVrSA9q3VA9kb0aifWAbGz/+JnzAcCqRRrkwNYWQE1pFAcR7SYncDuW8YVzCaixpl1zmPjzDgiEyfSVWhmdRtKmhfuO0OLZa8cjt5m1xG97X3Byb1cWrkOWJwP9gi4QqQ0bokTZGtU/xYUWzc464DknYBdgc7V65i92YE+B8/tCJV74fcuBbgR/nF+X8PRQRL84Rm6GKxXn4IPT4ih/ai/hjOgW/YjFuDe1VfmE0voD2ULB94oBj9dAb6eRyYuPllAg2jTG108MkYTCX18RfH/+f3i83j7cf1Y8rQ/HM7fWub3/ccVu3T+MCP3fwE=);lineShape=1;sketch=1;hachureGap=4;jiggle=2;curveFitting=1;fontFamily=Architects Daughter;fontSource=https%3A%2F%2Ffonts.googleapis.com%2Fcss%3Ffamily%3DArchitects%2BDaughter;fontSize=20;" vertex="1" parent="1">
          <mxGeometry x="115.01161094052804" y="555.6138229420335" width="7.647419991115385" height="40.09237420743648" as="geometry" />
        </mxCell>
        <mxCell id="OMsYIrX4x_dslvz2iAFP-108" value="Quantity" style="ellipse;whiteSpace=wrap;html=1;align=center;sketch=1;hachureGap=4;jiggle=2;curveFitting=1;fontFamily=Architects Daughter;fontSource=https%3A%2F%2Ffonts.googleapis.com%2Fcss%3Ffamily%3DArchitects%2BDaughter;fontSize=20;" vertex="1" parent="1">
          <mxGeometry x="850" y="149" width="100" height="40" as="geometry" />
        </mxCell>
        <mxCell id="OMsYIrX4x_dslvz2iAFP-109" value="RentRate" style="ellipse;whiteSpace=wrap;html=1;align=center;sketch=1;hachureGap=4;jiggle=2;curveFitting=1;fontFamily=Architects Daughter;fontSource=https%3A%2F%2Ffonts.googleapis.com%2Fcss%3Ffamily%3DArchitects%2BDaughter;fontSize=20;" vertex="1" parent="1">
          <mxGeometry x="1020" y="118" width="100" height="40" as="geometry" />
        </mxCell>
        <mxCell id="OMsYIrX4x_dslvz2iAFP-110" value="Description" style="ellipse;whiteSpace=wrap;html=1;align=center;sketch=1;hachureGap=4;jiggle=2;curveFitting=1;fontFamily=Architects Daughter;fontSource=https%3A%2F%2Ffonts.googleapis.com%2Fcss%3Ffamily%3DArchitects%2BDaughter;fontSize=20;" vertex="1" parent="1">
          <mxGeometry x="1050" width="100" height="40" as="geometry" />
        </mxCell>
        <mxCell id="OMsYIrX4x_dslvz2iAFP-111" value="ItemCode" style="ellipse;whiteSpace=wrap;html=1;align=center;fontStyle=4;sketch=1;hachureGap=4;jiggle=2;curveFitting=1;fontFamily=Architects Daughter;fontSource=https%3A%2F%2Ffonts.googleapis.com%2Fcss%3Ffamily%3DArchitects%2BDaughter;fontSize=20;" vertex="1" parent="1">
          <mxGeometry x="900" y="-36" width="100" height="40" as="geometry" />
        </mxCell>
        <mxCell id="OMsYIrX4x_dslvz2iAFP-112" value="" style="shape=stencil(7VjLctswDPwaXzHgmzyn6X9kJk7jqWtnnKSPvy9YDxURtFb2sdPeZBkrEcBiAWHj7l6fH162G8uvb6fj1+2P3ePb88Z92li7OzxvT7s3udq4+427ezqetl9Ox/fD4/n3y0O1rFffjt/rE36ecZGSrSDLv843mGL8c+Pz2Xy/O8zMjadcOnvDZP0ywCZyqQNYS84tA1yk2L/BMaWwDPCJLHcAz8TAh5AHQKEMfIiFOHeAUMinZUDKFFwHiJkYvCFHYtMBUiDPy4BiyMYOkA0xOFLxFHwPCO0RlwGRXB+lnFtmLgOSjpIcMiIfUvt7AngyCCBB7MMqhzQZAnzPbnlnAnkQQO7DKncKilJuz5sAhayBAJc1wKMjJcqsARHUQ82D04BsYabNACjoSEEDDEvJocxNib0a4TRi7VC2UWHuNhAaYacfA4tyzZSNBniUCW6ZnZMDZYLJqTcI/UBV59LYOSO4BRWRJ+7Maw4pUxmKVPQb+CCAoHyQloIBvmdTXnXa9T5kaTLYBxVW0b6IAYpLqVAC2penfjADOCTH0jX7Lic9oyB1NRSiBqSVAgoaEBD5htYuANTlRDfCAAgIIPo9AFBYa7k4HVaD1FVKfshDwIAyAKDMyPNUW+RGxyWng9UAmLhEZgDAHhQ0+WQWgH3U6aFvDWDbQHXtkaTk0y1OV5nJt4Q1T0p6ZeJGEVihxqita+Qzt9Lb3lpAXs9k6yXKfngDEgGZydzgA57JynAkKGRFk29FKmeTwpVqfDui6oaiH+4QH7PFlT2ouq2aFu5ydRjpS2ilj1Zl6tm00qkrQM19eBYY5bhOGyis/8fpf2qcHqbjv2ycrhWmnJbvRexDUeN0xHw1urnXXCKnjd4M1K9qVHPcin4mNBmN07nJykz7AuqkQa90ZHxwaDpmTfAUYFiTbcyZ7U88IF8UevfaFwp0OliyvQ8B77G8ubBlQq3XCZf6xDkDM22NHtitba3ycljJ90EyDKcHbguiyR5KxtBDuSnngrnKMcPlz1DL3FY1C+ZFPx0tr4aPpel0l0OvxyqG27pBS7H2OipWmwOJ8G3empmjbaZecYmrwHxYNHLzfcHcB2WOSH/jNnnVXC4+FtdPu/3+vPee/68X3XLrvCR3978B);lineShape=1;sketch=1;hachureGap=4;jiggle=2;curveFitting=1;fontFamily=Architects Daughter;fontSource=https%3A%2F%2Ffonts.googleapis.com%2Fcss%3Ffamily%3DArchitects%2BDaughter;fontSize=20;" vertex="1" parent="1">
          <mxGeometry x="882.2928499053833" y="90.29520973871604" width="20.833837607308396" height="85.27275378160368" as="geometry" />
        </mxCell>
        <mxCell id="OMsYIrX4x_dslvz2iAFP-113" value="" style="shape=stencil(lVfLbhsxDPwaXwmK1POcpv8RIE5t1I0Dx+nj78uFofWKXk+Qm7MZUhQ5HFIbfXjfPb1tN8Lv59Px5/bP/vm82+i3jcj+dbc97c/2a6OPG314OZ62P07Hj9fny99vTxNy+vXr+Hvy8PdixyRxMhL+d/nQav/y/YI/7F8X+EStjfhALd3HB6U2HlAjqQKDRjUPBqVSk/sGkimX0UAo5vsGGonHE3Ii5fsGUYjHS6dCBRnYHcJowBQDyGoh1sEgKmVgkNXfQQs8IdfubzYIFEEdilIZL221rw0Y1O5vNmBqIKQqvtIhUwQn1ExhDCkIFVDp2nyWGikgq3FZxgMyxjdPbnzjwEzM4w0g8+yAmhw+V4hPMtaAGARkeE4OLyChJg6xOLyCirXiSyyQpYYX71+Q/0zF47lAfAwunwUVOJOowyv2LzeEQPWyeJLDZ6B1hq/q8Irzqd5/QHwrt4RmhK+UvH8GomJ8C+Lj+YTP1eEjmE5Tv3h8Af5XGzKgArc+i674hBqmUfYNjBTC8OIbOKAGqH74WUPiBuabhkSEK32ULvyjAmSfH4sfN1jyDVlR/NkLhOUfEfSr+OgF1BKA8LO+zv4ZKuI0khyB5kG7bpD84A4FrgY1eA2aOAc4XWyBGnvAxl4DRSjBT3oVOLhtv6pjSFp73df3odZled6HImzkJF6IkhUahGT+3GRNtWvH+taY/SjLuQ/D9b20URy1yFaqDNJqreJ6uZo6AgNbl1xajSxQjYjHiJr2L+t37mI74xsc39q1c4HPQC3ET7NJv4EaiefddQFbT5B/rCz0/o6BY9F0AGBR8ONswoME2TS6SWgBHOIuzgt8gvhQPR49tiwbN/EwINDNtLR5gtqS+za2wCP5/epr9HO8/bg+fV/2h8Pl5bz8v38q26fLM1sf/wM=);lineShape=1;sketch=1;hachureGap=4;jiggle=2;curveFitting=1;fontFamily=Architects Daughter;fontSource=https%3A%2F%2Ffonts.googleapis.com%2Fcss%3Ffamily%3DArchitects%2BDaughter;fontSize=20;" vertex="1" parent="1">
          <mxGeometry x="896.2930116792281" y="-5.4265813542629076" width="38.383237377405806" height="60.13183220661659" as="geometry" />
        </mxCell>
        <mxCell id="OMsYIrX4x_dslvz2iAFP-114" value="" style="shape=stencil(lVjJctswDP0aXzHgBpDntP2PzMRpPE3jjJNuf1+oLhUTsp6Smyw/kFgeNu3SzcvD7fN+F/nl9XT8tv91uHt92KVPuxgPTw/70+HVnnbp8y7d3B9P+6+n44+nu/Pv59sJOT19P/6cTvh9lmPKMglF/nN+0TJl/vfmyxn/eHi6wCfKYcQzRV3HK2Ud8DX3E67iw0KhysQFCOT+dxfQTK0BgUppVEkacV4XMJsjjwKRcgIClUIcBIpQQE6N1PIgkBs14KWkXYFZwNwg6wI5dJ90gVSJQdyyUBlvMCULcGthaqNbLfYocKVQqKNAhDaURnF0a1BKwK2SKIw2hNSPuC4g3eszu0kBXpnKiMcma6I64gsxIJLKImrQ4ClVXAwoAo/WSHVkduhRv44vlLLDI39WpVIdngGtayMZI8xdwav4ZuqqwwvQv5n7xOFRIjcLDzt8BJWiNU9p7ges4XN2+P8HrOHFn4/4afgqzv8F8NPwPodhzgdm76C0pZAvdFSxQxcJUwGBJge5Ur1lsCOEZRwOAI8JqbB1tEo1ufMVEa6SBIdnEADD5+L8Awm06H0ZNqYl3joVKChLfQJVrI+zd+4i7/QnU0L+XMTLCIv5uSgQvJGQvkAUzE/H57BVUFy+RFhwryZk2rjAEyKjACwqStky2FUs2dLHVUShivVxFVfhDPFh/KIDSGfgOzuMkCB7g++QAv0/dUhfUJA/pw7cHD6Cgjh1ePXno4kj9vBc2Is6vDU4cf5HCaxKYeSDVSQ8YTU3cTCcc22EU5eREQqIegtsA1E8hbqVyTaQAG6wOdeN3htZb5N0GUk6tTF0Q+hBnauE7QfArbYNuLS3DaQAo3P0k2LGncPO0zFwuUIbko3yo0DJMDWNOW4VlbC197np0mKfgA0WVx2NtlUUzbvGHLfGacO7K/s4WMIGcIP29jvjjVwoDFTHAdwKIMKzP/+tQazgdTz/omOtCBTxFyBa8OL7ROvEWsFH9Xi0Elj9GgccG0lQ5nBvLxd4xCHuhJnxCqvLot8bHlGO+8I54wUWYPYDlBFCAEPNPwt8gOcnZy+uph/9XrWNt4e3j2P3h8fH87e1y//9xzR7df4Qlz7/BQ==);lineShape=1;sketch=1;hachureGap=4;jiggle=2;curveFitting=1;fontFamily=Architects Daughter;fontSource=https%3A%2F%2Ffonts.googleapis.com%2Fcss%3Ffamily%3DArchitects%2BDaughter;fontSize=20;" vertex="1" parent="1">
          <mxGeometry x="945.2930732541518" y="28.132849466268" width="105.57544704084933" height="24.57248738919759" as="geometry" />
        </mxCell>
        <mxCell id="OMsYIrX4x_dslvz2iAFP-115" value="" style="shape=stencil(rVjbThtBDP2avFoee67PlP4HEqFEpQSF0Mvf19tokh3v5kRIfQuLz4zvPp6N3r0/P7xtN8Lvx8P++/bX7vH4vNEvG5Hd6/P2sDvar43eb/TuaX/YfjvsP14fT3+/PUyS068f+5/TCb9PuECxTSDhP6cPTKL/Pnw9ib/sXmfilSoP4oUiXxcPmbQO8iFSBeebPklGQKMSAKBQGjWSRNquA1SppQGggQqwIbK/QStJAYBMMhodlQoAJAtCGQEVGp0yhTAAkvYvq4BsUR3dakc04KWsVPMAsCNqBAA7b7QhR9IEABbXMQ7ZQgm8VMTbUJhUACB6t9oRDUS6ZIo6AhJxBQBLhDgCzA0gvUujNrrVjoggDjVQdoBGGdhQ1dtQudfsOsBMHG+Y7kQtIFMZ41ClV/k6oHWfnAEKbWjivWRKCkjvlig5QKEAsrWZSmOJtoJvWAIqMbKhUQ0eULBK0d3QSDMEcPSAAnLJFEhjHAIzNuJs4+yKBoravJiCB2RkRPGdzAAB3ZB7G5r5NYLsM0AZrbY7UXOdAONIbLio7TwOHiCgMRnATUVL4BteqskDFAdOiwcE0FwN0PhTN5yTc24DikNbxMG8hCLd/KCe4gC8NMvmeahxzdVFVSdsdV6mK/JrI1lUUMaBKIsbkNUGCI5i3arq0jWYNw4UutI54bw1Ib9aoJbN70bNuaounU/8J0BcVLX04X1tCPma487r1gHGE0eVKu5MNqOym4sZ2mBT0KlUcaOp0XfXaZAiumGT3AFiT691gBk9utWOQDzR+E4e09XoBsqlC6OaMaAEcsk4W3CUyZYUxBO1+2RO+0DJlUDBqSRw58iLojb2mxCbTtTGXDJ+jbyUzeuOfkvvbesrRPORti9ohUjm1tFL9gWtimlRDwmvEDH1heG8BqXeR9ZXueYJje1qiImq9KXnvMopVEmyJ5aClxRbnz0gUAPJF9JiQy44+foqeW5LcOyyXwekF+wVcUlOXIG5TEGcOMPT2RFQOHcW49z2ZBAsExcnHsAY5P7fy8sHVsbNQIaLG/d3kdm7Cogq94XoIo51r+LEGRRKIE5eHL3a+PcLEwdJ8MknpJvi9uPyWvW0e3k5PXbN/+9ft+zT6WVM7/8C);lineShape=1;sketch=1;hachureGap=4;jiggle=2;curveFitting=1;fontFamily=Architects Daughter;fontSource=https%3A%2F%2Ffonts.googleapis.com%2Fcss%3Ffamily%3DArchitects%2BDaughter;fontSize=20;" vertex="1" parent="1">
          <mxGeometry x="971.2926257427612" y="69.29605262045607" width="73.76911885721313" height="49.98912318801729" as="geometry" />
        </mxCell>
      </root>
    </mxGraphModel>
  </diagram>
  <diagram id="CVuQ-y8l2ONF3HjuboP_" name="Page-2">
    <mxGraphModel dx="960" dy="2115" grid="1" gridSize="10" guides="1" tooltips="1" connect="1" arrows="1" fold="1" page="1" pageScale="1" pageWidth="827" pageHeight="1169" math="0" shadow="0">
      <root>
        <mxCell id="0" />
        <mxCell id="1" parent="0" />
        <mxCell id="niXD4bAZjXb_m4Lntpnj-1" value="Branch" style="rounded=1;arcSize=10;whiteSpace=wrap;html=1;align=center;sketch=1;hachureGap=4;jiggle=2;curveFitting=1;fontFamily=Architects Daughter;fontSource=https%3A%2F%2Ffonts.googleapis.com%2Fcss%3Ffamily%3DArchitects%2BDaughter;fontSize=20;" vertex="1" parent="1">
          <mxGeometry x="80" y="110" width="100" height="40" as="geometry" />
        </mxCell>
        <mxCell id="niXD4bAZjXb_m4Lntpnj-2" value="City" style="ellipse;whiteSpace=wrap;html=1;align=center;sketch=1;hachureGap=4;jiggle=2;curveFitting=1;fontFamily=Architects Daughter;fontSource=https%3A%2F%2Ffonts.googleapis.com%2Fcss%3Ffamily%3DArchitects%2BDaughter;fontSize=20;" vertex="1" parent="1">
          <mxGeometry x="30" y="180" width="100" height="40" as="geometry" />
        </mxCell>
        <mxCell id="niXD4bAZjXb_m4Lntpnj-3" value="Name" style="ellipse;whiteSpace=wrap;html=1;align=center;fontStyle=4;sketch=1;hachureGap=4;jiggle=2;curveFitting=1;fontFamily=Architects Daughter;fontSource=https%3A%2F%2Ffonts.googleapis.com%2Fcss%3Ffamily%3DArchitects%2BDaughter;fontSize=20;" vertex="1" parent="1">
          <mxGeometry x="40" y="50" width="100" height="40" as="geometry" />
        </mxCell>
        <mxCell id="niXD4bAZjXb_m4Lntpnj-4" value="Has" style="shape=rhombus;perimeter=rhombusPerimeter;whiteSpace=wrap;html=1;align=center;sketch=1;hachureGap=4;jiggle=2;curveFitting=1;fontFamily=Architects Daughter;fontSource=https%3A%2F%2Ffonts.googleapis.com%2Fcss%3Ffamily%3DArchitects%2BDaughter;fontSize=20;" vertex="1" parent="1">
          <mxGeometry x="130" y="350" width="120" height="60" as="geometry" />
        </mxCell>
        <mxCell id="niXD4bAZjXb_m4Lntpnj-5" value="Offers" style="shape=rhombus;perimeter=rhombusPerimeter;whiteSpace=wrap;html=1;align=center;sketch=1;hachureGap=4;jiggle=2;curveFitting=1;fontFamily=Architects Daughter;fontSource=https%3A%2F%2Ffonts.googleapis.com%2Fcss%3Ffamily%3DArchitects%2BDaughter;fontSize=20;" vertex="1" parent="1">
          <mxGeometry x="220" y="50" width="120" height="60" as="geometry" />
        </mxCell>
        <mxCell id="niXD4bAZjXb_m4Lntpnj-6" value="Employee" style="rounded=1;arcSize=10;whiteSpace=wrap;html=1;align=center;sketch=1;hachureGap=4;jiggle=2;curveFitting=1;fontFamily=Architects Daughter;fontSource=https%3A%2F%2Ffonts.googleapis.com%2Fcss%3Ffamily%3DArchitects%2BDaughter;fontSize=20;" vertex="1" parent="1">
          <mxGeometry x="450" y="390" width="100" height="40" as="geometry" />
        </mxCell>
        <mxCell id="niXD4bAZjXb_m4Lntpnj-7" value="is associated" style="shape=rhombus;perimeter=rhombusPerimeter;whiteSpace=wrap;html=1;align=center;sketch=1;hachureGap=4;jiggle=2;curveFitting=1;fontFamily=Architects Daughter;fontSource=https%3A%2F%2Ffonts.googleapis.com%2Fcss%3Ffamily%3DArchitects%2BDaughter;fontSize=20;" vertex="1" parent="1">
          <mxGeometry x="440" y="190" width="170" height="60" as="geometry" />
        </mxCell>
        <mxCell id="niXD4bAZjXb_m4Lntpnj-8" value="Customer" style="rounded=1;arcSize=10;whiteSpace=wrap;html=1;align=center;sketch=1;hachureGap=4;jiggle=2;curveFitting=1;fontFamily=Architects Daughter;fontSource=https%3A%2F%2Ffonts.googleapis.com%2Fcss%3Ffamily%3DArchitects%2BDaughter;fontSize=20;" vertex="1" parent="1">
          <mxGeometry x="475" width="100" height="40" as="geometry" />
        </mxCell>
        <mxCell id="niXD4bAZjXb_m4Lntpnj-9" value="Account" style="rounded=1;arcSize=10;whiteSpace=wrap;html=1;align=center;sketch=1;hachureGap=4;jiggle=2;curveFitting=1;fontFamily=Architects Daughter;fontSource=https%3A%2F%2Ffonts.googleapis.com%2Fcss%3Ffamily%3DArchitects%2BDaughter;fontSize=20;" vertex="1" parent="1">
          <mxGeometry x="310" y="140" width="100" height="40" as="geometry" />
        </mxCell>
        <mxCell id="niXD4bAZjXb_m4Lntpnj-10" value="Has" style="shape=rhombus;perimeter=rhombusPerimeter;whiteSpace=wrap;html=1;align=center;sketch=1;hachureGap=4;jiggle=2;curveFitting=1;fontFamily=Architects Daughter;fontSource=https%3A%2F%2Ffonts.googleapis.com%2Fcss%3Ffamily%3DArchitects%2BDaughter;fontSize=20;" vertex="1" parent="1">
          <mxGeometry x="380" y="70" width="120" height="60" as="geometry" />
        </mxCell>
        <mxCell id="niXD4bAZjXb_m4Lntpnj-11" value="StartDate&lt;br&gt;" style="ellipse;whiteSpace=wrap;html=1;align=center;sketch=1;hachureGap=4;jiggle=2;curveFitting=1;fontFamily=Architects Daughter;fontSource=https%3A%2F%2Ffonts.googleapis.com%2Fcss%3Ffamily%3DArchitects%2BDaughter;fontSize=20;" vertex="1" parent="1">
          <mxGeometry x="100" y="450" width="100" height="40" as="geometry" />
        </mxCell>
        <mxCell id="niXD4bAZjXb_m4Lntpnj-12" value="Length" style="ellipse;whiteSpace=wrap;html=1;align=center;sketch=1;hachureGap=4;jiggle=2;curveFitting=1;fontFamily=Architects Daughter;fontSource=https%3A%2F%2Ffonts.googleapis.com%2Fcss%3Ffamily%3DArchitects%2BDaughter;fontSize=20;" vertex="1" parent="1">
          <mxGeometry x="250" y="450" width="100" height="40" as="geometry" />
        </mxCell>
        <mxCell id="niXD4bAZjXb_m4Lntpnj-14" value="TelNo" style="ellipse;shape=doubleEllipse;margin=3;whiteSpace=wrap;html=1;align=center;sketch=1;hachureGap=4;jiggle=2;curveFitting=1;fontFamily=Architects Daughter;fontSource=https%3A%2F%2Ffonts.googleapis.com%2Fcss%3Ffamily%3DArchitects%2BDaughter;fontSize=20;" vertex="1" parent="1">
          <mxGeometry x="340" y="-50" width="100" height="40" as="geometry" />
        </mxCell>
        <mxCell id="niXD4bAZjXb_m4Lntpnj-15" value="ID" style="ellipse;whiteSpace=wrap;html=1;align=center;fontStyle=4;sketch=1;hachureGap=4;jiggle=2;curveFitting=1;fontFamily=Architects Daughter;fontSource=https%3A%2F%2Ffonts.googleapis.com%2Fcss%3Ffamily%3DArchitects%2BDaughter;fontSize=20;" vertex="1" parent="1">
          <mxGeometry x="440" y="-110" width="100" height="40" as="geometry" />
        </mxCell>
        <mxCell id="niXD4bAZjXb_m4Lntpnj-16" value="Name" style="ellipse;whiteSpace=wrap;html=1;align=center;sketch=1;hachureGap=4;jiggle=2;curveFitting=1;fontFamily=Architects Daughter;fontSource=https%3A%2F%2Ffonts.googleapis.com%2Fcss%3Ffamily%3DArchitects%2BDaughter;fontSize=20;" vertex="1" parent="1">
          <mxGeometry x="575" y="-90" width="100" height="40" as="geometry" />
        </mxCell>
        <mxCell id="niXD4bAZjXb_m4Lntpnj-17" value="Address" style="ellipse;whiteSpace=wrap;html=1;align=center;sketch=1;hachureGap=4;jiggle=2;curveFitting=1;fontFamily=Architects Daughter;fontSource=https%3A%2F%2Ffonts.googleapis.com%2Fcss%3Ffamily%3DArchitects%2BDaughter;fontSize=20;" vertex="1" parent="1">
          <mxGeometry x="575" y="-20" width="100" height="40" as="geometry" />
        </mxCell>
        <mxCell id="niXD4bAZjXb_m4Lntpnj-18" value="Number" style="ellipse;whiteSpace=wrap;html=1;align=center;fontStyle=4;sketch=1;hachureGap=4;jiggle=2;curveFitting=1;fontFamily=Architects Daughter;fontSource=https%3A%2F%2Ffonts.googleapis.com%2Fcss%3Ffamily%3DArchitects%2BDaughter;fontSize=20;" vertex="1" parent="1">
          <mxGeometry x="300" y="210" width="100" height="40" as="geometry" />
        </mxCell>
        <mxCell id="niXD4bAZjXb_m4Lntpnj-19" value="Eno" style="ellipse;whiteSpace=wrap;html=1;align=center;fontStyle=4;sketch=1;hachureGap=4;jiggle=2;curveFitting=1;fontFamily=Architects Daughter;fontSource=https%3A%2F%2Ffonts.googleapis.com%2Fcss%3Ffamily%3DArchitects%2BDaughter;fontSize=20;" vertex="1" parent="1">
          <mxGeometry x="570" y="350" width="100" height="40" as="geometry" />
        </mxCell>
        <mxCell id="niXD4bAZjXb_m4Lntpnj-21" value="Name" style="ellipse;whiteSpace=wrap;html=1;align=center;sketch=1;hachureGap=4;jiggle=2;curveFitting=1;fontFamily=Architects Daughter;fontSource=https%3A%2F%2Ffonts.googleapis.com%2Fcss%3Ffamily%3DArchitects%2BDaughter;fontSize=20;" vertex="1" parent="1">
          <mxGeometry x="560" y="490" width="100" height="40" as="geometry" />
        </mxCell>
        <mxCell id="niXD4bAZjXb_m4Lntpnj-22" value="Address" style="ellipse;whiteSpace=wrap;html=1;align=center;sketch=1;hachureGap=4;jiggle=2;curveFitting=1;fontFamily=Architects Daughter;fontSource=https%3A%2F%2Ffonts.googleapis.com%2Fcss%3Ffamily%3DArchitects%2BDaughter;fontSize=20;" vertex="1" parent="1">
          <mxGeometry x="414" y="490" width="100" height="40" as="geometry" />
        </mxCell>
        <mxCell id="niXD4bAZjXb_m4Lntpnj-23" value="Telno" style="ellipse;shape=doubleEllipse;margin=3;whiteSpace=wrap;html=1;align=center;sketch=1;hachureGap=4;jiggle=2;curveFitting=1;fontFamily=Architects Daughter;fontSource=https%3A%2F%2Ffonts.googleapis.com%2Fcss%3Ffamily%3DArchitects%2BDaughter;fontSize=20;" vertex="1" parent="1">
          <mxGeometry x="580" y="410" width="100" height="40" as="geometry" />
        </mxCell>
        <mxCell id="niXD4bAZjXb_m4Lntpnj-24" value="" style="shape=stencil(lVfLktpADPwaX1Uazfu82fzHVi0bqBDYYtk8/j5yHINHg5viZky3PZK6JXnwTx/bl/fNIPxxPh2/b37tXs/bwX8ZRHaH7ea0O+vV4J8H//R2PG2+nY6fh9fp9/vLiByvfhx/jk/4PfFqpSojS/jPdMeRc/9ufJ3w+91hiWdy3OKZal4n5EpcG4IICXhDduRdS6iUASE5qr4h+EIi64ToqJSGEDJJWCcERzE2hJhI6jrBC9X2DSnAoCUR54aQmRIiMPnQEiLMktM3pIZQmNgDglAxBE8lAoKzMZRMjAg8S+1CqFRAHaotdBXyoNCqG4NXMSJxU8gW70GKyo3no6JlisXiC3h+IhctHnkt2Oc71hoz0Clx6F6ANEGZLT6ndbxquAs4goJ1glA8cvJFwRd8oQriZQrJ4iPwsbaiaPFIcDKXf4F3IJ/BNlPFI0/GLp8Yn8nlR85TKHTnRwaocxdc4BPI/6WRL+sFDWnzqW+E52GxeKS3MrtjqWdgsESpNySsl9HzfUPG3pDAYEKuCxh1FLZz6U7HYpIuYGQAvpFQFO/j+GgELVAQjkJ7fp0w/y20ks9qRliap+CKgfsZGYGAil2GMt5tdAiHNkE65j0Yka7YlpIvNbwdcbAhJzzmvZ8tdVmGIjRx8JTboIMmFSQpKqGtms/wSEnLZnZMlSko27hctVlSpaA6F2c7oy4vCa0e6rTWyTwHdRvvSIrBR9Tp3JzCKx7pQn2SksE7MPmqn8O74hnUrAY7mhivWrqtdng0OZJ1Gs+7y2187vEO4XWXs/EKaBRjH7TnD0BAY1+2z08gn4tBcSUUVLBHP+Tu4vXi+tX4ttvvp4/O5f/2K1NvTV+o/vkv);lineShape=1;sketch=1;hachureGap=4;jiggle=2;curveFitting=1;fontFamily=Architects Daughter;fontSource=https%3A%2F%2Ffonts.googleapis.com%2Fcss%3Ffamily%3DArchitects%2BDaughter;fontSize=20;" vertex="1" parent="1">
          <mxGeometry x="157.798902773618" y="399.4355951186676" width="12.366559134923136" height="60.619162794508156" as="geometry" />
        </mxCell>
        <mxCell id="niXD4bAZjXb_m4Lntpnj-25" value="" style="shape=stencil(lZhLctswDIZP4y0GJEESXKfpPTITp/E0jTOO08ftC9UjRQStP81OpvkJIN7ULt28Pt697HeRX8+n4/f9r8P9+XGXvuxiPDw/7k+Hsz3t0u0u3TwcT/tvp+Pb8/3l98vdtHN6+nH8Ob3h94ULJGWCIv+5LDDF+m/h62X70+F5tb2ShG57ocrb20OiUrv9IZIWAChxr0+oFGUbiIlir1GMlIFKUWcFFkAppW0gCdXUAbaSwzYgZsIemFYQkKnmHrAVAGQm7YFpJQIgU5MeWGReBQpT7R1nKwIklEzSeiATKwAaKfdAowQk1EStN6utRBBLtZL2oVELadsGNFDszapMAZxBZQASCUgfLd5xtiIgWrVR6M2qSg0cugUP2AqDBGqJ2AGRKjh0E+84W0FWao2kd1yrc3RtAZU90IDjDFB3BstpYFYD2gAUZNYRaNisppJ6AHna/nal8t0Mm2ZlDzQMcK9SYCZGhPrCNIlAnlOSAVBQXA2IwyEylsDJA6hBTKHj7God4AMJwQOCok8pZA8EUFyn4HTBVOdo2QKKegA1iMnVQwYVpFKbe+BaAqjGU7jGIUexSiqDlXBSj47LwNOraF4RH+jU3CEsmHApGxOiYAky1A3FjvD125TEseHmmf/I6iyDTjjAPwmkOdgWIM+W3upa3tdCCWW1HdEBEc4n1jaDczXD6UGzn4C0zll4HUhDqxbY5nRRYAECZTTQFJ9CVWG41ujHvipUgFmL+t5eGR66CElfmYoNNEBCbsNgGWaZ1wEZRtdKAbQUGQpNjnA+kWHAlzpH1/UbQZvftwDYcWm4BqUMr0FxGF0jHgbs0uN6kF2MUIratcrVyoAnILu4lV6lYCkKSl8Zohu6jedIXl4PLyg2mIvbjjxg5SK77Qm+3RuHAjjqsJ2hd9nfcS3HoGWC344qHc9eWd3oQUKyT2ATBwKN/SRih4HKuMEct6Ywy15tRx2fon87CrFPfuv4cLs9vH9WeTg8PV2+yqz/959hbOnyCSfd/gU=);lineShape=1;sketch=1;hachureGap=4;jiggle=2;curveFitting=1;fontFamily=Architects Daughter;fontSource=https%3A%2F%2Ffonts.googleapis.com%2Fcss%3Ffamily%3DArchitects%2BDaughter;fontSize=20;" vertex="1" parent="1">
          <mxGeometry x="212.23664057716928" y="396.23413953076624" width="64.79137448821689" height="56.020006491798995" as="geometry" />
        </mxCell>
        <mxCell id="niXD4bAZjXb_m4Lntpnj-26" value="" style="shape=stencil(lVnZUlsxDP2avGrkXX6m7X8wA5RMKWEC3f6+cjO+RLq5J+UtcXxsrceSsks3r4+3L/e7yK9vx8O3+1/7u7fHXfq0i3H//Hh/3L/pp136vEs3D4fj/dfj4cfz3en7y+3YOT59P/wcJ/w+4ZiiDFDkP3OB+d/Cl9P2p/3z2fZALbjtpWxvL/PXuT1TSOB0pprN/k5JwP5MqZv9IVHMACDUrLqhkcRtQExUogHoClcAEErJAoRK3wakSN2KlBIJuCE1CtUCOjFQOgdie0NOlIEbcpkxsAAaVeCHLNSt0iVAHUokaRZQSIBIpVKzSpdODTiuamBakWqCsVQ1NK1ItVJBgEbFBmvtFIFIbRXdLVBFAA1mmz660oGVWpkqLoACw7s1r7SuJOC4JiSWAHSlAIAwJXdDh0qLUozNaT2igwSS5PNBIoxWyZTdDcvKZUChZv2gK1CkNjliAahZAU+KeCvpSkVmXYy4ADQf2jag8wyEhVp5GvoyIBI7QJhsexmg0coeUIHSPVNsHtARoFC0wadCRmClXicxngEyCA0FuODrOJZ687GkAEEAoeBEUjJGSi9+XQAajuCJVoDY4BtmwICePQDlwwBYmlEzBJDTgdm/KIpAfH/hCpmEvgmwfK8rAdvVm6lPft50xAqA2HicZwFndthClNUVgmXKzQMyogH9mb1dO3CdAlL1AJhza0CDNeIAuBSqsHgYOhQPiCjnuq8FNIUEi1RXgIpd3dYA7DhZi4R16MErnQIGNA/oqLS/mKSodB1XOM/pO3aFaYoHdOxqcTTQr1GTJ/B+1dWuhfiPJF1dcSWFPgiQ1bOljkAi6Su0ovyGgmNVTo8UQryhT4gLP1yw689BPAA1HaMaKB6AmkV9N/0NGYsUVuGaqeCayVspzadyqyrz/B2hp2XJl7MSSIDjpK50YBgaWqm6R0iFRG/1qIWtSFq7ViSSNsSudi1Yh+DJUu8MyKzaQ7hiN84+fqtLcY4bdwKlRx9kw1vvLAhQvEh6Z0ciabRax+mdDJhMu0XHGi3Dgr2uStEWr3a8VmltYBvwg/bUjmZGi4y7dkeudWn8N+cCVqQisNPKMtn9bJDAIPhyXo0qGLLGmJ64YUjFA53m8yHH6fvNCZC9YRwBRIriqTIF2PxFbTHsgxIrLOLGnMz6IQY4YxqTOJsPoUJeCuypMuBOq8zGbYlufP487H3yiEzKK4tSBaezT+YE2YLnQ/a+HU0D2M/rEmQK9tVCnOOKre3OtdeEscEZYNNzYTuq19gPGZZZ5dZ26yaGrbDand12NMHg2TC+bw8gSdhPI/haiH1k0n51u354H+o/7J+eTv8JnP/u/wTQpdMfCOnzXw==);lineShape=1;sketch=1;hachureGap=4;jiggle=2;curveFitting=1;fontFamily=Architects Daughter;fontSource=https%3A%2F%2Ffonts.googleapis.com%2Fcss%3Ffamily%3DArchitects%2BDaughter;fontSize=20;" vertex="1" parent="1">
          <mxGeometry x="248.23537608895367" y="377.83463491739576" width="214.06817064770712" height="31.428203804700388" as="geometry" />
        </mxCell>
        <mxCell id="niXD4bAZjXb_m4Lntpnj-27" value="" style="shape=stencil(lVrJctw4DP2avqJIggTIc5b/SFWccdc4dspxZvn7AaeLighKz9W3boqPC/CwShf+8PPxy4+HSwo/315f/nz4+/r17fHCHy8pXZ8fH16vb/brwp8u/OHby+vDH68vv56/3v7/+NJn9l/fX/7qK/xzwyVi6aAU/r0NBEr8/8Dn2/Sn6/NuOlOdpxseTC/U6jQ9k+r5dKU8ry6kcj69UeFpeqMUzqfHRClO820kgPVjoTQf30ZiAYBK3GZAhfJJ0V/BRjKQkAlQdAZkKgkAlOp8aRspSMORwrwDB+IIAExt3oETtQYAQrnMgEIFKI4bhVmsbLcCUsqRZCZSDhSBprPdYb50TkP3xwAZ622ATDkDQPWatiWQ4krwptaXAOQrTHFmqy0BdyjEDpAoI4BSmvVQMqRGqdTyDJChykOABMpuB9M00IMkijP5SiMBXBImDrOPicTg0pK9E7AlAgKUZQczWnQHoZRmgIwlzgCOraLDBo8B9tgdqUEuSaU660EjRWBxtp7MUtJECuxBgyef5sHfY4D5pdmA1LwG4JIBymxAusntGGBcmtmqFVKjX3F2ZIrFqka+WXE1kCAp8fCkGyBigAXYWaw1UQHUMCHKLNbKMGTp5rY2QKaAjqTLDmYPSKzVe75aIPlMiJE9QMEOJkSeNV1ljBwDEknxABTjukwcQEmBTduJXciqlTKwB1svzzZdG3TG9jjOgGZyA1Kyx86mbaQBarQ08q8NEEkRgElmetsSGWV8hYLbgWFG1izeVA+o6EhCdVZcy1APTX020w8J2GoAR28DKFBcqz6wNxwfDODy6H4rJNY6YuYGUKwHC+zJAxoCNJ8J2EhGqXQIi6ob9Pf2uKoHQPbZegugIjK1YS87QANuw8S07oDcRpeiqzh+y+GUfnHZAmlCFtU1mGIZYL0EquI6O6sHoKB1CEAFweGRGB+psQckJCUdmfAOgNKTrrm2AO7lBnRlR+xD9e4hv9O9FpSBZzoxUnyJVRGCz+RDRBsV7RkgLWRCybEpQmUBIFXXkY3cYaRluQTcQn0R/t4lxPcF3hOTHBAcVSn3A4pPdk1wqN1iAFfLdStE3ChjvV2cg/44LwTfXM8ZQJbgDsWaF1dWRnV3lgJ5d7zteQbgJUGBYk2L4hhatSVtye2QYCCtWzzY5X0wO67LDhG6srrSO8A7WP7tmlJ2SEEA9uWlHbKiI9mJ1QMCqrTaUtYoTON0aRl1MaDSTH33xACwNJNRMewKJ5T3afGuzwSNMste1C/FH9J0L5FdAcswUbQi3JeXCWpa40KNCPNvA7i2lxWcqJbT4Gs5xU0pA7hqsXcecLslz3ow3SPyiSXsbocC3YwB3KVNlQlwSZYYZ5pBBiTiO9Nd0GiH4gG96wR8q2TfxRJcpRjAdYB6Jw7pgZfWXR49obN+pSuRezcRdUTjskMchf9ZC9UFxdIgvUsdjetdzxUlJ0W8WG0E2XQpQ6+7vnFGr42WGFcS7n1H344vAdI7m3Ofj2QjKJvp3fpZcTYCd8g+m7GRgt5BRJ8a5wQ1zc17vhxgfs/qqcGK39Rk32PiAn0rR59gMQ8xHAJSGwFqAwTo7lPx2XpSqIe0RYMNkGE1GpvvnvS3dEBKUUaXeKsHKnwXFNk7gf6mEbiZGDyXYoId0aU32GCmUbyvF9gHYd9jzrCBEH1zKUHjDyOQjekB9qOXCjTAwn6JtCZaoNvg852t1Xwynf3qAUgmUKl+OuBN8D4rwJgffb8AF6nRN5Lemy7L2YFkFucWYNGSfNoYsBvxuXiA5nHnRw/vTrcfv7+v+HZ9erp9nrF/7r/HsKHbtxz86T8=);lineShape=1;sketch=1;hachureGap=4;jiggle=2;curveFitting=1;fontFamily=Architects Daughter;fontSource=https%3A%2F%2Ffonts.googleapis.com%2Fcss%3Ffamily%3DArchitects%2BDaughter;fontSize=20;" vertex="1" parent="1">
          <mxGeometry x="145.0353103801234" y="149.03465523643672" width="47.62526270562137" height="201.4830682865645" as="geometry" />
        </mxCell>
        <mxCell id="niXD4bAZjXb_m4Lntpnj-30" value="" style="shape=stencil(lZvJct02EEW/RlsU5mHtOP/hKsuxKo7lsp3p73NRKlDkbfIy2knv8TyiG41GD8BDevfj84dvjw/R//j5/fn3x7+fPv78/JB+eYjx6evnx+9PP/HXQ3r/kN59ev7++Nv35z+/fnz5/9uH+eT864/nv+Yv/PPCeZfShKL/d33gXz749eXxL09fd48HFwY9Ptr149H54+PR5aEeb/nweHK5Xz+eXDk+nuVgsstHUavr8frx4lI9PN5dE79eXTyKGryr4uebi8fRhOiCv36+uxiOzyeXwvXzw4V+fD67Jp7HcGlqQ3VeCBBgC+UINOeFBFPAzEBTQFoa2YC+tHwO5DXiHaBMAkAnLQ1XiwCKq+1o0VhBSkvV5ciAFLqZNYM1ppYklEhvwMwooLOpAkhqSN31wkBWah1G6OCKML7pdcIbgWoA6VoCr58bGfB1M1rKWQDwbd7IoN6QToRuVQLVqHUIBwmXF2ni4nI7V8AwQFfzUMyQ4JWFLVk/iXcmNXGbU9kAeGYltF0PeKeauO4yCY13qnkY6/c2oLskvAaAcRQ6wdsKr4Gv69EvpbA+OQcCb24pLXM8ByLLkMraAM4BWOtRS6lK4wNAXiN1ad4pu0r7uXdFWCtGnI5qzduiPQfq0voGRFfUkBAiHI0vp7WJnQON5yHfxDCdnQCArobUXTmaRsYqV28YRmgdCQCgPS6XtdWfB1beRc9AFcYHoJGW6rKucwDeuzFQxALKxnsDGMI0YAiJZGha6M0x7oAo1Ip5TdEASgYYQnoTAE+a3zQkE/5MQE1ccdkIrbwGANpQ7oC6lsseEOb9Oq97QKUBzaQNN0DnuPVOS914DQBiTedxIrSKKotfS34HZGGtJXAoPdUghgRgVAbUDlTiibU2BSTO9gB0BWTj+ZobYh5K4YgMM6PcTKkcLwGQWjLBCaZS2RIAFnq4LjaUguDkOA+Y+6KAwXlc2ZznFTCOE4epVHlcNcEJgCbUWrfAeQOSjO5r5OQVc69COAAjMqDcfU2cP8BY1KZYMxdKYCxqxdXiPAmtPR8AilsBDDWkuuLgDegrgjoHGscar8ZyBZTBgIq9K1xlZUAlTQBoPUxAqXVw/lC2ZPMK6GZIagE1z14DgDINALTHzSUlhtQCu3ssKZWxt8huBoBKOADQHgegiIlriO4bA6pyAqAc1TpXufAazXhvLNosfGsrvO1i0Srja2YBzUWr3lA5f5hrUM2Dqc3UJvNpAJ3UOmRU2TrL0IIM4drgBBwzo9KB7tk02uapzgFjrdBbF0L3yO4eUqlSaE88DxikF36p51X63IAgvUYvHC9hkCpD6ZXLsxhkFeuhbzHkBugsq/dVaN8AJE1K6L4ChQ2ostTSjWl0ba3DNAMAKEc2Au9xXc80AErx+5AV3RE5tQQwxEwDoNQSUlUldOJCCAapUnwArTEghc6cWo4ozRsAzTSAooQuLtGQkqzdA6DaDAAVt4568gZpS/ARwwBKraZycg8MI0NSMgzO2KEGlaEAGARU6Vsn0BmQtXvveWeHWMrPnLyiy313DA6N8Ym/UZMBijLXsfzWDlCB6/w96hy96uGKyGZMXa2IYdbckHU4fE39AehV+r7B7S8AckUMjmemyWu9BmNNqgU5ZagMqGhjaokAvQfNmfMMqPh+2kYygNYSe9ciO3LTEIyWpHcdXNmYalXtr9NFqnKOYer9Y0uMLoHMgKoCv5r/3r5v9JoZUFHcnDlqvv6PRVr5Fcr7TfMzY5I76Smg3tCMB2/ab9hd6MYfV2N+TSbhcyctDKg24dykBgMq2AUQjQxyc98i1d2KkGrNnObfrbnEcR8GqSpAM34hobOs9Y3I+SgAVaSdMRgN6SZ8CMb3RVlIQODJO2+QjgZAJMDLiihi4WIAdXwH4Xk7Gl/X9crXBGAX4UeVaTUuJHTdg0ASEyjpqHLikCbRtth1ewqJGAN5FcKu8lHaR2e2qFKzyO0p5KNSS4ETWOTxqtCMhJh26qZr3/g9yqmRtasyMHJ0TvOz3NoxANogWlzFi6tyCwWWTWdaAMJRS1UXy1sxhbUumxZtcyq7go7qUQOgPKhWXetL5g1VmgYAarHVsopIV7U+ih1q0ZW4uA6+7OpkqliOaaIOAQBZJwtGhiy3rOY5W6xZdv0AJFMcVPNQTVYzWwCqlG0KzQBUuD5L2ckAakidPd8scOr6fTGA0lI1wUmNMvyplYshNUpnDFPjqm7QQmeOyGY7SQ0pc2JWxjKWcyCxEyhDHraZOqGCvz7OA8BTS6HJDBk6sc0jFXzPan1lQAVYxZh3KdKWAHjTYlMdgqkT08ST52cbp34A1LEqiEiussSltyvAtjqVLZViOmZBLiDbci5BFsttU3sCSmjTNp9DelNjfvZ3NUCtf3yi+ij2cEEJstBsjy/MeRATZw9ITECdCjFHMAA0MQ/2kMcE1CEPc4zkHrBCq9DBHoWZgDphZI4v3AHmOM+dlsyBoQmoiTNHkopOaXLiQHfOtNJSXCXZPaDeYA4yliArfXnzEfsFJBxZDrxPY4VIa/Wmbe7vDtBR0oQlVfURPaqgAlBuBgAfVOkyAU+dg8TcZOMlmVLLPMOkDmM2TmmwpFRwkrYy3Q5Q+zQAFrpIv5QKJ+B3RyXNnZJp8OoNiTfFaY7qDWZ/wFSqxA8A9RUxlcq8U+D0GHpTkUDy5qxxlqYRBze1k+7kx8EBFgap4qV5/vpofMlLRxa3mtsC4tBH6SvPQ9RnZ6I5axz15ZVoklcMUjmymM2Q9AICQPESAHVAIppDHq9SnQORgxNIpSpYACifjkXWW0+uZRR94cBe/Cjy3MnJ1RLdsoimPRCLrCTO6zEGULWZ0E+EVpfFQucSMOZeBSehmXtNWRYR5jWlzIAqqoXK7n5alzCNYFLLeWFGRDPzMhepNcoOckjGWm/uNZk7EPMyl7qQFjnLAqCqoSFwJDCNRb3Bc6Ecc6/Ww2ARgj7M3M0dvCKdjDkiFbI+lMg1vnnrT+Vw5l5jkD4sm+MdOu4xdVaZ5JquQ9Urn0t1Raafga0nyV3QtA+iLIl5buLoq16eDSHKXp3nLTxKzXi+uRllPGtcbpCl55PHlc2Y24hBujbPrlCnB55n1a9q6ZXe+dfVejV3cfyNIqnVoXu8b7wufvs4/ni9mf7p6cuXl4vt++/5Jjs+erkFn97/Bw==);lineShape=1;sketch=1;hachureGap=4;jiggle=2;curveFitting=1;fontFamily=Architects Daughter;fontSource=https%3A%2F%2Ffonts.googleapis.com%2Fcss%3Ffamily%3DArchitects%2BDaughter;fontSize=20;" vertex="1" parent="1">
          <mxGeometry x="245.81089266360016" y="382.6097199991582" width="214.640953262768" height="40.002764003783795" as="geometry" />
        </mxCell>
        <mxCell id="niXD4bAZjXb_m4Lntpnj-31" value="" style="shape=stencil(lVjZbttADPwavxLL5V58TtP/CBCnNurGgZP0+PtSNVbRUtYUeZNljsRjyOFqJ3evh4eX/S6G17fL+fv+1/Hx7bCTL7sYj8+H/eX4Zlc7ud/J3dP5sv92Ob8/P15/vzxMltPVj/PP6Qm/rzhV4jyhYvhzvROphn83vl7tT8fnhX1TaqN9pSjAnkl0sGemqtuAmkl5BGSStA0ojTiNAKUCQiiBNI4hJ2IAyEJlfEO0rMVtQCqkY5IkUSkAECiPQdsdqdsAe14rI6BQaADAPYkdkK0OvA2Ijer4hlxh0EYEHitdIglwKZrHdQRUShkAcqfazL1IjGJIlMega6GIXBJqo0stUERBC7EDpB7VbQD7GFrtib4J4EQ61kEb7AcWUvUABR3HVqaRrTYUMgia55wsAA0EXam5lg6BAuq4Tv7FCxQUelWFKQIUMiXx9gHYB988ltIEijZHN9tbkQGzQ3/awj4gUlBx8RZKgBNCyVEid1Zt5L9mb19A3zTf+pM9ZlBuHtAAIYyjJfuIGXhkbeNdKlSBUJnKhORrIIhDuc+eBSmQjJhLsmrMimKIq9ZXEkQLU7ZVH1TQmK1XadlnwKNyo88Qj8Sr1OQP4gVp8vYR+B9W/jfIU+tLZ1/haFwPugr147P2pZN+IQZoLlo2nL1g8Qh9kM8CaAVDXWAVGN9gihnA5DW1EafJDLXAusDNFlP9iN5QvGLaXoFWHW5+r8iFCqiyla2O08h2IzRcbK+IIyBluAVb4eqYVlE4XCT3YTUDBCpaspy4Pb7C1k/akzgDYt+WbmtC8VziWddvk3s1go0saOWsoe/tH3sCMUirkTm6pbYL++1xZ6o9hhCoIVlTT+4AU6T2d3D2aHwp+/kYILN11Wx4jVI7Jazswfg1iYzV2TOKt1L2/iN9mqZzcvYF5Uf9nsZdpLfsm2McPFAs1tAPACLEJF/+tCyA0Z89Xf/f3i4+jvJPx9Pp+iVg+b8/+tut62cDuf8L);lineShape=1;sketch=1;hachureGap=4;jiggle=2;curveFitting=1;fontFamily=Architects Daughter;fontSource=https%3A%2F%2Ffonts.googleapis.com%2Fcss%3Ffamily%3DArchitects%2BDaughter;fontSize=20;" vertex="1" parent="1">
          <mxGeometry x="87.46356264449992" y="146.5819823116285" width="9.955277462138952" height="34.48674531793995" as="geometry" />
        </mxCell>
        <mxCell id="niXD4bAZjXb_m4Lntpnj-32" value="" style="shape=stencil(lVdJcttADHwNr6jBYDacHecfrrIcsaJILlnZfh8wLNoGKGHEG0U1OI2tgRno4W3/9LobYni7nE/fd7/H58t+oC9DjONxvzuPF3ka6HGgh5fTefftfPp5fJ5/vz5NyOnpx+nX9IU/s12BHCejGP7OL7gCtv9vvs74w3j8hK8QDT5AcfANUlD4RtDSbbzwKQpfG7Tq4Qk1PgJHD980vsiJ2fM3G3yAgB6+ssJnguLim8YniTC78dd8EkIiz9+gv0/F5Z+g6nwRQgi38QSk8yUnYrmNR2CDRyhOvgK0pvBYgJ16Cwvbd/4QHTpxOfydzlLf19kHiPrzCNFhM7mbFD4s9X09mgUKGTw62coRKhq8l63SbDmLQ071tAhUDb463chxae6P+GQnPizNTSb+XnyYrb9+d3EG0uWTlgBf91fkROc3Q3biWQmSkQdAR91yg9AMPjnxkebmsAE/yWfdwAclfLzB32TbxQ9nWKTsvmwhoCbvF0NdhOa+WsMKxfaiV8sifDkYvNcrIty0qRdFOtngvV6XQRhsL3rhaWxHna9VMvgNn54WbtTazQbS7ajLrSP+IidBp7gzXbjYmuiMr0lQNs1HJmCjWP4AFgk1G0RnwosBmpXAXyHEwOwQnR1FDJKm1FmCxGk0Bv6WxSsd6qxxYpB04jp7IkshbFpEpzxoqe5suhMlY+Cv0us8iEHzOrpZReLmyrWM76yjJC0VPEldrX9ikJ08lAwpWgMvrDlDNBtC8HUyCaeyyYLSMgjuJBVXXd1xW2ZJKlsCi6th0knd6h7RqY2t97g+Xh4+Lo0v4+Ew3zk//28vmfJqvqDS4z8=);lineShape=1;sketch=1;hachureGap=4;jiggle=2;curveFitting=1;fontFamily=Architects Daughter;fontSource=https%3A%2F%2Ffonts.googleapis.com%2Fcss%3Ffamily%3DArchitects%2BDaughter;fontSize=20;" vertex="1" parent="1">
          <mxGeometry x="95.1688905959387" y="87.2483234621152" width="1.6621654023608698" height="25.469029417298316" as="geometry" />
        </mxCell>
        <mxCell id="niXD4bAZjXb_m4Lntpnj-33" value="" style="shape=stencil(lVjbUhsxDP2avGokW749U/ofzBBKpmnChNDL31fb1Eus7B6Gt7CcI1uyjiR7E+9enx9etpvAr+fT8fv21+7x/LyJXzYh7A7P29PubL828X4T756Op+230/Ht8Hj5++VhQk6/fhx/ThZ+X3hMKU2kwH8uH1qhyP++fL3g97vDFV5JdcQrCcA30jDga6MC8BKJHSGTZEAolMYdVaHa1gkhUK4DoWQqCgiVtI0EoVDXCVEpjkHNibIAgsVkdDo1qsBpVSplJNiawAdtlMYV7AuXdYLZ+x/1mWBfQFhTpTiG1bxKYEs5UJSRkLqJZULqmTMThBQRKrWREAoVQCiBwnhwU76DgyuJZHQ6SP+yTKjEY1ilkoBzqEw6nrRYlMA5VBNQHAmBagSE2d5MYJittfiTrpSApE3x6uQAE6MlaqMH3OWxjDdzHo/kaRUuqMMzCFCzM2OPR/upXs3cF1zGty7dd3wG4je8E7/0tF3DN3fA1PB+2pij4cP9OF1SRPFsFJzwYcG2eKbRX6UAJGPnW6PDK/K3EFeHj8h+9vmv3cBaPtfg/M2oZSavl0AN7ccEHBw+oPMy+65C9CFgDe/yjamB+jDFRxxekb/Z56fpC+WDFfHk8cj+Tf9mEpz/4u2j+mb4nFw8+QN9qcPDkYjZF6DQp6q1BaoXmGC8egHDgvtZ/By/2WGBFaJWXyFsLFTUJZP32LqkAg1YlwyuJlpWoaZnNdmJjOGWSvFjZpjXXCaob2NTn0TDh5V9tyXLRBDWXHxjjRF2jqx+eo8FTiuZvQ8q0OmUe6ueCRmKOQnl8eASw/HG7LVRnbYmUoPtuI5bytKPcnl6z/5OlAsccKJFyd1AIqzY1mDqWIFtjkRbkpsLhSU86vkmF6eHSYOIIN6HJvDKkm/wubehZZ+9fKYyC44t+DvXVAWBfZuBbuw3dM+k5Kdk3HbE17BpASA2S2O9cQA4zP5GNwUI7If70HSFj9A+jw5bH21AyjdNyvCoGi3hkQi4vzNcvVQ07G/z+AQ089mXkI/x9uP92eVpt99fXm2u/++faezT5Ykn3v8F);lineShape=1;sketch=1;hachureGap=4;jiggle=2;curveFitting=1;fontFamily=Architects Daughter;fontSource=https%3A%2F%2Ffonts.googleapis.com%2Fcss%3Ffamily%3DArchitects%2BDaughter;fontSize=20;" vertex="1" parent="1">
          <mxGeometry x="181.02871527448474" y="83.17774378264517" width="35.426392564725234" height="37.39693653181462" as="geometry" />
        </mxCell>
        <mxCell id="niXD4bAZjXb_m4Lntpnj-34" value="" style="shape=stencil(lVjLbhsxDPwaXwlJlCjxnKb/ESBOYzSNA8d9/X25NbRZUfYUvdm7muV7SGrHd+/PD2/7XQrv59Px6/7n4fH8vONPu5QOr8/70+Fsv3Z8v+O7p+Np/+V0/P76ePn/9rCcXH59O/5YvvDrgmPStIBS+H15EKjx3wefL8dfDq+b45VyHo43CnL7eEwkOpyPhUICAKFURoBSa7cBpm8KAyAVysCClKmOAI7EwIakJKPNXImBBM5U6gDIiRqQwI1qHAGVSr4NsO+VEVASxQAA0l+vgEINxCFrT4MVoFBCYWqjlyT1yFwHVJIx0mKpAQASJ4B5CQEKyWiDmFURAJRKGwA1USigGpjimN41U0QAoeokCDGwoVl6j26tjQTkUmMPsE8oAhTSUaXlE0ilRlFGQOkJfx2gpGMcWu01eBWgsZu4AhTWg66vO0CtRDHA0Z4BUIkugDHS2iDNGKCyByjwkgFcLtmTjGwwBaIHVAUAI+/mAVAloTyppICMtUxxwBWnRsZlMhqpZPU12RCQBGtw0ccBSjCAU6n2T9xSiYMHMPJS9vVgjlbAGuZWxxoGEAQwmskeUADdm8Y1TQBkQ/PcagAYaSWe3BpRtk4dyAACVIoh9P6xCXXCLNCKBzRETJacToJC+l7cNFWQ4BptkwRFPLO6fR2YPvxwK5u81eYHpFOeuM+MQBJyJ98NIOKK+D+A9aA0dgjFI1azdHbZFCFvtOy9ZDIVeMm6pktwk6mg5pp1uXFMXGSCdK3aZ4sVYOM1kGCzhSN8mwUyMNrmmeTmGWv2IPtkqqBaYLqKdPJdAdzJ7Tog9VRbARG2xdI6S2ymPlQPJZOMFSR4JivBDw/ClNEwLZ7KJMARy+Z7V3FFIDGx+h5kCwFq7Vx6P1hXDmuLaEexJcktNThwSXoTXNemBo1OkwROkATiRH0mM4E42Dbq4mDbY0VNq39us7025FW/x+FZ3Xh6NBhn9tTeIkWgjB0fOdXSFrh/2qNDX3tvHM/ijiNmCT5UAUeKErvjAWWC77IBcnvqftscR4np984A7zy4q/pxHGWxUYf/OoPRjv1kF+DuxX7UxNc7/7wNsh8fN0lPh5eXy0XU9r2/ebJHl1srvv8D);lineShape=1;sketch=1;hachureGap=4;jiggle=2;curveFitting=1;fontFamily=Architects Daughter;fontSource=https%3A%2F%2Ffonts.googleapis.com%2Fcss%3Ffamily%3DArchitects%2BDaughter;fontSize=20;" vertex="1" parent="1">
          <mxGeometry x="321.0342574357609" y="89.03609823437682" width="28.29313333235143" height="49.68276196645684" as="geometry" />
        </mxCell>
        <mxCell id="niXD4bAZjXb_m4Lntpnj-35" value="" style="shape=stencil(lZbdUttADIWfxrdnpNX+XlN4D2YIjYc0YUKg5e3R1mOIlkSd3vnv88pHR8c7yc3L9v55MwV6OR0PT5vf88NpO8mPKYR5v90c55MeTXI7yc3j4bj5eTy87h+W8+f7/mQ/+nV462/4s3CNUEKnAr0vV2JCan+v3C3Abt6fAxmlGCAJWnWAhsoGyIKaXSCJAUoEeyUltGyAqis4QG2IFmiMFh1AVbIltYLE14FCyFYlJgLRdSITJNolGtiRKRGq7ZzqQE4jooBtI2oFO4BUkAVK84EMsrrmBhIHKGMjUkV1VIphXCGqW5zO6W1pFggITklaQK4G0CKzs0KuaMkCGSE53lARrZlU6OB8dG+TXUFbGfyBoGFG6V8zykPjCLFcB87c/OkNWoPh8hI6MBbQofJa3UdysGtbX3FZJh36YUg1GJySeqzYkr6i53KrBeXbjFYnBjQa6wBofHozmhCHoVZZHTN1QP4HkDima09Dx0whrm7+BBKyE0yc1rQ+i43ofHRBtW4tDHHaEMYwzrym7cXn1ar2AxKvKXLteWuLSODg1ZNsYgRfUc0TWz831xQcR4GYkZweBxmBBHEmRz0x/Bm0AY6garpBofHfpgdfO47HebdbNizn98cdil5adjdy+wE=);lineShape=1;sketch=1;hachureGap=4;jiggle=2;curveFitting=1;fontFamily=Architects Daughter;fontSource=https%3A%2F%2Ffonts.googleapis.com%2Fcss%3Ffamily%3DArchitects%2BDaughter;fontSize=20;" vertex="1" parent="1">
          <mxGeometry x="350.86312825748223" y="226.0554117403367" width="2.51462274023811" height="2.5223367616044925" as="geometry" />
        </mxCell>
        <mxCell id="niXD4bAZjXb_m4Lntpnj-36" value="" style="shape=stencil(lVfLctswDPwaXTEkwQd4TtP/yEyc2lPXzjhum/x94WrUmJC6Em+SiBXeC3Dgh7f90+tuCO7tejl/3/0+PF/3A38ZQjic9rvL4apPAz8O/PByvuy+Xc4/T8/j++vTTfL29OP86/aH9xFXE2V/QwX3MX7xFPLfD19H+ePhdC8fyadGvlARIM/kavt/oZAAIBCHBhCEcgQATyU3AE4UMYBbFyJTdhDgWg0pTL9YBjiSVkOqVJFJjnIbpZyx046StGn4F7f/AlwLKMQeOh1aH8RTRho00waQsA+JpDVJKgVQS945ci2iylS+yyrUxzZMtU65XASoBcYmBUSQ6iK2NhRQgIbMxMUCKtAQCwXTQZ9xWESwp1hnKgDAF8psAbkAr8nPnGYGCsgbn4UqyJuzLqt8BEGNU2XeyTtkD1MxadYQAAUhU6oWwKBWo6caLCCAbkhCfmYSAhSmyD0mSZ4afqPT2qC2e3BYb6XvLQDlTY+FLQAVhk4HiT2VJ0qLs1JFpZ3FEuVK8+gsyJ39me3MXaEA7Z86609EMt6RnzEAorGwYBHiyV4i7pWPFLpGQ57it3H2CJW+4dY7PSm23b82nm1rrs1/u4WtLBgynW7cYDQ7XSuSTFS1cQdT4mmZZWXJyxMrbNwik13A8JYaiU0LwyU4UWmz66gilrPTyUEG8mp8NvIR1I5ab1ZsHZ9AntmSrnYnsCdGW/yY3lLqk9dS99JhT0m2GLC/oleW2BFPXZXZxhPlS69EwcrDcui9cq3K68Pn/e7lcDyO18P7c3sf1E/jXZIf/wA=);lineShape=1;sketch=1;hachureGap=4;jiggle=2;curveFitting=1;fontFamily=Architects Daughter;fontSource=https%3A%2F%2Ffonts.googleapis.com%2Fcss%3Ffamily%3DArchitects%2BDaughter;fontSize=20;" vertex="1" parent="1">
          <mxGeometry x="366.57946298377874" y="177.83805260105282" width="1.2410450407433018" height="44.64739563382318" as="geometry" />
        </mxCell>
        <mxCell id="niXD4bAZjXb_m4Lntpnj-37" value="" style="shape=stencil(lVdLblsxDDyNtwQl6sd1mt4jQJzGaBoHjtPP7UvXkGzx+U2R3bM8lERyhqQ2cvf+/PC23UR+Px7237e/do/H54182cS4e33eHnZH+9rI/UbunvaH7bfD/uP18fz77eGEPH392P887fD7bMckfDKK/Oe8oJW4/Fv5esa/7F6v8Ik4zfhI0tbxjWKe8K1Sk3V8CKTzAc2OjMCgkshkUJUiuFEUSrPLVUh53UCYapsMinkFfJDmfSgWpAqCWkjLZJALVV03yIlEZ4NAEfhgF8hxMkiZQgIGSnl2WmwFnFAzxdlpscQBpy1NOicuKjEIaxPPVWMjynTLPYjdICgVdEL1UQoZkq+ZD7NB7Gy8iVfuxBkHUAYx0tAj0vFMDfDCxOjkxpB4KlQ9HuVMcxf7FT4A/ILYDGmqzYuZqYD4q5JkF8+I8RocXjPGz/tHqii/SqnOIugLa/56WVJA8akU1OEzun/ufL/gK1CMmmTZ40E3ML45fxMlxM9RpS54Rv4afaOLpwB/27KmUEb34d7sLnxoiD/WCjx/YL5suxnPlBF/xNcHhlXa8tU8HsazUPJ6D0i/1euF+wZr/F/EE95HfWsNVAE+MHuCRiiwTxtoWfSM3GOwloI8h8hihHq3ccLNH9FUCgysK3kRWFUEqmyRwpwFybBs1dJZMGQZSPB0wK5u2dgICksZOhkDi/RSdnvCkV54hsGYqtZmqDBTu+DaaFNamZ2uRm5wgsTe64ZBgd0vFoqzDw23+5Na3LRsXiF614WBwoIdRv8a8/uY6Ffm9zK7YC2roArc69XAK6wwlVLweNRBSh9Cr/AVRChTah6POn7y4ryqILdZ4cWpowfdzvENfAUJsGohiwABPC8SrDDB7Mf200wClLyop4ZHymdfKaynZMDQzz5I/4+3j8vr92n38nJ+PF//71/LtnR+acv9Xw==);lineShape=1;sketch=1;hachureGap=4;jiggle=2;curveFitting=1;fontFamily=Architects Daughter;fontSource=https%3A%2F%2Ffonts.googleapis.com%2Fcss%3Ffamily%3DArchitects%2BDaughter;fontSize=20;" vertex="1" parent="1">
          <mxGeometry x="388.9668024360019" y="112.54836677774415" width="14.132432807459054" height="29.688022941993268" as="geometry" />
        </mxCell>
        <mxCell id="niXD4bAZjXb_m4Lntpnj-38" value="" style="shape=stencil(lVfZUhtBDPwav6o0o7n0TMh/UIWJXXEwZUyOv482rg2WvNsUb8vQGuvqlmYjd6+7h5ftJvPr+XT8vv21fzzvNvJlk/P+ebc97c/2tZH7jdw9HU/bb6fj2/Pj5e+Xhwk5ff04/pxu+H2xYxpjMsr853KghVj+nXy94A/75yt8p8IOPzpJWcenTKl7g0y9AoNGQ5xBHyR53SALsXoDIRnAQKkXZ9AGVV43kEa1eQOhBlwqQqU6gzqog6zWRMUHXQUbDGLvUhmkum5gHqsvXCmUQeE6E/vOECUBWeqFmq+02Amog9VVfQxWGU3rBtY57GPIZb5i2aBQyc4gKY0ODDp1H4OxAeEH5eQ9oo4i0Dnn/x2iCvDK1H2KmBrCZ2oc8AnUzMheR8Aj9mujogFfkD+DUijAnLBlvLVYzKcgf6xhfD6NmKAhJrz3p848WsNnn59GAlhm8bLvnw6VZcqn92fMP7harxTwDZDY+qFKwFcUr/VbkHfYD9bPKWjvXPA1vqQR8g8Zv8DHCuI1vHp/hBIYNubPiHwcKP8c+c5QTzRFibMLQH5UYn/yLHnL+BrHN0NR1z7PrXe8ovtNokfIjyL/TV455D+D+xNzlHQrMCDYpw0sQy0oSv6IMs3PbuMA4rz1UPM1trmH9o9xM4ptsiIVtUFZwrDHQfccZavofMXydmA0DPtHgcJVb4hTFSrL7YbTClwcLcRQuGZiDLRIekyrbSRI3MVcCmJtWxpIq4lV8+pipUzIwOTU18EEqoDWsOU3+bSagqDC3cwzY2xGdIhro+K1cUS2GcMrKEKLASteuGrcJ64IvtwWcYBMIx3gM2m9CQAJDI0W8QwqxlEgFasFkwR/+ryCreA5FLjBpfpGHk0AO2ggntvl6v03IP5z78WP8fbx/jh92h8Ol7ft9f/jY9aOLg9huf8L);lineShape=1;sketch=1;hachureGap=4;jiggle=2;curveFitting=1;fontFamily=Architects Daughter;fontSource=https%3A%2F%2Ffonts.googleapis.com%2Fcss%3Ffamily%3DArchitects%2BDaughter;fontSize=20;" vertex="1" parent="1">
          <mxGeometry x="400.0207431651827" y="119.58138762440103" width="14.433854992792476" height="20.402006228045366" as="geometry" />
        </mxCell>
        <mxCell id="niXD4bAZjXb_m4Lntpnj-39" value="" style="shape=stencil(lVhJchsxDHyNrigS4Iazk/zDVZZjVRzLJTvb74OJwpEISq3ybUR1D4EmtuFG7t6e7l+3Gw5v74f9t+2v3cP700Y+bZh3L0/bw+7dnjbyeSN3j/vD9uth/+Pl4fj79X5BLk/f9z+XN/w+8gKluJA4/DkuaKVS/q18OeKfdy9n+EItjPhIJVzHR6EgA6EluEFsFHkgVKXcrhNYqKWRIFT1OkEChTIQSqUsgFCI60gIpOk6IUXSUdVsTmdAqCSjSalRBSZlpjw6naSvXCZU4vHgRCmCHUqkMPoguRt5mZD7+1ZChE6XRmWUlRtJvE6o0QcfZ2LgdE1U20hgEhCttXbVOyFa8PF1QgsURx9iIQWyNqY0HlxMxEAlSxd3cDFSBj607GVtpBXgaxd9jW6YoGp/jxpZPgEHrKBk9nhwympB0Bw+gnRW9XEXKAN/De/0ib3iXMNrcfgK6tGCd2FN6YY9OuYNTMzF3+LwBdnTKI36JwrIntrlO+H5RjxMeGR/9vVaSJH9efYXVTpNXk8mRfGZKHk8I31Sb0eneED9yfD/tz/FJ7QnUy4OnxC+kCSHh/FsnWDKR1BPLH5i8O/H+asen3A8T/VBb+Rj8PoDfWJY/Ts7YBRASo0d/oZBMgUoFmhKeEUJVqm54QAn2EfxoTegVdDQLbzcMVofl1aCwJRpU4jGdeUywSY4V6OVAjJpmlaWKg0OzTq9y0pTSYBKF2aJ2nv/tWnFdXobPCNwukzDh0ifzi8TpDfqlVBhKmelOjqdAlUQetlqryNkmPx5mq1thcE5pHUwXgkFli9pvr0W3F+FvaxF4Q42/+TRpJopAVmtYLmOZuHIQKWY/feBZQgiWIkcK4YKCah50qfcFa9QI+4d+AxfgT082WM1E6Qn+xa+FHHQM9fcPVUk3KRM78kBNIbbidXJYeBA8D1q6VpA0KmkGp7h+4OzBw/tU0tbmgr0132FG57BAUyfNVrh0PLRa4TbeHs43Vk87p6fj1ce5//7Ow5bOt6PyOe/);lineShape=1;sketch=1;hachureGap=4;jiggle=2;curveFitting=1;fontFamily=Architects Daughter;fontSource=https%3A%2F%2Ffonts.googleapis.com%2Fcss%3Ffamily%3DArchitects%2BDaughter;fontSize=20;" vertex="1" parent="1">
          <mxGeometry x="456.2345119462916" y="39.68060307702103" width="30.47547269905317" height="39.28379115673329" as="geometry" />
        </mxCell>
        <mxCell id="niXD4bAZjXb_m4Lntpnj-40" value="" style="shape=stencil(lVhJchsxDHyNrigS4AKeHecfrrIcq+JYLtnZfh8oKo6GmJlOdJM4aJLYGgB3cvf+/PC233F4/zgdv+5/Hh4/nnfyacd8eH3enw4f9msn9zu5ezqe9l9Ox++vj5f/bw9nyfOvb8cf5x1+XXBCIZ9BHH5fFgLl9nfh80X85fA6E89U4iAu1MK2eCMZxSvltC0emSIP8jFQBPvHTDJePwoJAii1MgIKNd0GMFNNA8AspEAHU1HHE85GK9sAEUoy2jRSqADQKIxWkkIJnJASlTAAUqTKwMtm9TYCzEpA6ZypjoDM/ZKrgBJJRivlQgocV4p3nG2RgJVqoDZaqSTKwNM1EesIqBTAlWolHkOjNIoZABrpeEKNxHEboExpDO8qFIEOmroRJ0DGJ5hZ6wgwrYDS2jxhmFYRMEYLnSE6QCNlEK2NPceo9BxcB6Su4gQoFAUALFrdlZQExFIrPpZMK0U6NG/WphRuBRTErI3qyBq2EoGn7TNXD8ggWs8XyB6gCFCpjX6IIcAMMkRcHNGwI1LygIoA2bOxARIgJgOkhSMa8lzuBWcGSDj6ZGQBM4OiDFqEqwESMmshZg8IKDZKv8AEKFSxq0vyAFTkzCZy2wmt18C5DjghcvMAQWZti6SunZ/Xe4drNM9djYKp9VZhHkxY67RICHiCki6yGiaEUlwkBEy5Kdb+O6stFBZ3gmxZKCyyGlJT7pV8Tn44q0W8IwrKiJsBTNkBYqfDdUDsKk5FaKL0rUIaRyupuQY1A0rV1cXcO5Z1QPU5Z5UX8YYuxgG1ag90sP2K64C0Z+E6YGpUJ0CBZrVuxJ+Q4AnnfsedwKRAB9tPXQcUYDdt+8Uxg4rC1tU+O9ooGZrVOlsd/VAYskBuvsHP1p+guU96zzYBpPcT6zNH7QPDNEIY8yAAk4x+sBXElTb0uLIotRPPOiB6PwgTA6VtcMujWblAP9ho6HoBGx9R22fDp+s2bEBFKWoTsmvwow13iDUoO3kbm4DO1gmMXlDY8y2ukyFhhD5bTLfpFLUhHtywDufcRXmOcFgKvuoE+JYRevhexQvwVPBdXqAEVS1+dwacEruZr+IBtS6++wrQTeYVf3dU8HlpGRT0VinZiSM3sY/I0J8O1rP8tgetf4rbj+vb2dPh5eXy9Db/7t/abOnyTif3fwA=);lineShape=1;sketch=1;hachureGap=4;jiggle=2;curveFitting=1;fontFamily=Architects Daughter;fontSource=https%3A%2F%2Ffonts.googleapis.com%2Fcss%3Ffamily%3DArchitects%2BDaughter;fontSize=20;" vertex="1" parent="1">
          <mxGeometry x="309.8197726144937" y="92.2223338275453" width="35.671527724235034" height="50.13463255181932" as="geometry" />
        </mxCell>
        <mxCell id="niXD4bAZjXb_m4Lntpnj-41" value="" style="shape=stencil(lVnJUttAEP0aX7tmX84k+Q+qMMEVgilDtr9PT5wxmm7pSboZ8d5oel908HdvT/evx4Mzb++X87fjr9PD+9PBfzo4d3p5Ol5O7/zr4D8f/N3j+XL8ejn/eHm4/v1635Dt1/fzz3bC7yuvVqq5sZz5c31iKPh/D75c8c+nlyneURzxnopZxhdPJgz4TCEv43OkGAc8X7Au41OibAe8dVSBADGTNyMhkYnLhFCo/W9KqP3JPIE1OF7JOTJABu/JCkKgWJYJrEMnCIkKuBJfIKSRUKgCoVlE70cz237JeQKbdbQzS4UM3bQuHClBLdlAdbSDr/hK7JnjG4Ijj97ANx7fECIVTHCjlkLtalgi2NG7I3srlkG4RkzdMouE0b0jXwkEKBP+a70TkiOLhZaEQGEfIUH3boQyEkr3342EbHqUbyWsCy0Igcy+K8WeabcSMkxkM4TaHX4joVjK2FslwVPcJXSJ5HaptaS9MpQeg4shKgh1zZfSmDWqoQhyK+clMyaBansNWyKI+sBFNaB4CFTEGzx27yjrQw092y4RYpCEgvJS7FX/RuAjkKVvRfZG4ESGnC/JslszWWQHPm+scdzbBGSH2ONrQkjY0qlKQkaGc5SzJMB0z2lLE8Abcg/gW29iDBngGlEWoPYCEA6OSpF4GKBklQAZxKfpaXeCRynGKDfiTgUoyFBWTuGABRy5IPEozwfy4j64seL0lhQe2Iu1Yffg2eWMJuBsZN0eiTlskt2j0haYigD7sDTjRLDuxBkvQl7XOr19bm1VRsVxU3om2R6YVYmAIt/3dDvFI8dQZQ3nrtsYuDE53qSbZl+Q32fxwE85UYjAxOWAM6lwa1xvTPewjQXN9IFra8VUiXelJFPcV/N7lG9sKpwc8Fa6FqdqH26LVNO/0nfpPg03dhqPO0eNx62pxuPeV+Nxc63wK927xuPxQOPx/KHxeMDReDxBaTwe0RR+ZQbUeDxkajyeYjV+Vd7R/1fmcC/XUiuDvu/ZbLpJgOfL3QbOzzwGjfdpuxCgzyAbs7ZsAfgo9xRtmwPuz+PAeH5bFwF/yLIAt30UkLfKCcjbvrlc7O3FDq5QQY1W7v41WdplIHEz2agiVjIqkd5QGnN6qwoo5oucRG2FO7igtnxtiAJVgJ04j2ZrekP73NhF/Nj/Iq1mZYbcO/L5vow1IuwMjcBVqI5xf2ss5vFqcWpgGStVn2+BW3PVLVXgkcWqmgcMdGvuMpz8HmBAW8NdTFLno3lGDd0r52c5Cxi4redpR+QJA9MKd51i/DH9hUv4LOV1KOqNanQN7EN3f5BZxfOPj68/j6fn5+vHo+n/5dcifnT90uQ//wU=);lineShape=1;sketch=1;hachureGap=4;jiggle=2;curveFitting=1;fontFamily=Architects Daughter;fontSource=https%3A%2F%2Ffonts.googleapis.com%2Fcss%3Ffamily%3DArchitects%2BDaughter;fontSize=20;" vertex="1" parent="1">
          <mxGeometry x="519.5656957815963" y="40.234081010811224" width="10.197656617664506" height="150.12136963176908" as="geometry" />
        </mxCell>
        <mxCell id="niXD4bAZjXb_m4Lntpnj-42" value="" style="shape=stencil(nVnbcls3DPwavWJIggTJ5zT9j8zEqTV17Yzj3v6+YFXK4p6jPUnfZBkr3haLJXjSD98eP319OKXw7e315deHP8+f3x5P+tMppfPz48Pr+c0/nfTjST98eXl9+OX15ffnz5e/v34akePTby9/jF/464KLIUgIA5bC35evguT47xc/XwBP5+cbQO/S8hKfJFQSb6JtiTcenySt8TFK6vcBrYv1FVDoCK1KiCugSwkEkEVXQMqSjACilHVKqUlv9wG1i64AVckM0CSXFVBl/EkAYQVkP2clgCqtrgCVeABYiZQLX0OVaiugSmFrcACswfeNHNwArFwtQRrh0g4gSeYjpJUaJfMpmeR1W4tJImytRQym1Dgg47ZamCm1D0jS0gpIooTe1ZmzTsmyZLKtVkUBYGJEZEylrydtTSqhhi+x6wLwSSphq29iXHepRjqCn2tZT7rq1JF9QJCyLtpPJpb7gMH+Vfn87BPhUs7SYQSTSM4hJ+mrzDh/WU7nq/ReAW2Wi12AdqkBAY2MoG1q9RXQ6TmoSV8PrgXKJQeEld5DntmUisR1W5uLAMkHzTMhrwClqjHEfaV346qhSWzd1lao3GtEIWtGyaeeQDBCnRVjF5C8ZhoCmLZ6CQxrirYmRrbVjQIURS/1/wnPPiCjE+iufOSk3bpAAvUogU0pSmwIaERb46awu79h9I51kvkK0Kkj+wBDqezOJTaCIZd6oarhgAyLvqbUXYAioJGSNQCw6D4rxj6gTDt1AyiErdGLoiKgshESuplhfNkuhc1Jd+75sEzfWPH9goIVawzAMnTO93YFbMkSK8YbWUCYrLmJZ34voAP1eGZkAm6QxzNf7xcH+P1GT8zTpGJ8JclvM9Nv4o38fsf6fxDvlMMN4hNyUiMj+Io9bWxzBGxLPTF1cwbszByQNpnMrKFPKW0Sk7EuKvqwI1q7h8kIYHnT0HAfJabhDfog83UjwAfSIrZJTKZdYSO/XBw3HYAD9f0f8UAiXg5cWBLGM6cd0KSOgkbXCz7bKyazCXG6v5uSrMxxbuaTaH/BZwuMjjNP7/ANK36gGeAq0jCe8dlLGWSAGy/mNl254FLr1o45tZgx6908VrKlLhNbP8uS2IWoRgQwazeMF3jyQu9GsaFTcxPPrmvuBQ0WzXnkREUAv5g7U+H25VedTA5uGGAABFrDvWhmuN91eplyskLy1Ku+3rsmGAD8XsGyLaIcVU4Nv33hCG4niR6NKydczDMV+Bymx7/pFXSyhlzQe42mDLuYd9SMGmdV2deYtNmlQHO6ZOwVWJt0vNdRAT9lRqlhEW/Bo43EALrXqGJtpI1qjFYYs3iGOT2abYStVrEVNtp5DNDwBukbzbpzo/G1HtxBS3IHwJueW8BBW3UA1l06aNwOwLpLB61hBzQYQacpuAfo0K3m7W3r6Gz12sq91/SEJs/o4rAuaUJqjEcAokt14wPGMwNZ9LaB7iUms5ePgH3Y8VRCdsnrDZzDu5veBxi26Ll1c2MBHRj+muTx4GX4a9X4fYV4phjujIAWXCXf+0Xv8cw0eDyoauCvYSoB18taL33TiuRWz50y3KYO4g214mA+TtEfWu9GWsJsxu7Hd+wcHZyX37TK6fv58MPPo98B8A/vr7Ffzk9Pl8fc2//j661/dXn51Y//AA==);lineShape=1;sketch=1;hachureGap=4;jiggle=2;curveFitting=1;fontFamily=Architects Daughter;fontSource=https%3A%2F%2Ffonts.googleapis.com%2Fcss%3Ffamily%3DArchitects%2BDaughter;fontSize=20;" vertex="1" parent="1">
          <mxGeometry x="515.4918244707171" y="250.63804039402157" width="11.074183485839058" height="138.2123062076671" as="geometry" />
        </mxCell>
        <mxCell id="niXD4bAZjXb_m4Lntpnj-43" value="" style="shape=stencil(lVjbUlsxDPyavGpk+apn2v4HM4SSKSUM0NvfV6epT2I5ZxneQtDGtqSVVtrFm9eH2+f9Tvj17eX4bf/rcPf2sIufdiKHp4f9y+HNPu3i5128uT++7L++HH883Z3+fr5dLJdP348/l1/4fcKpkrYFJfzn9E0gTv+++HKyfzw8XdpXymmwzxQysI8UR3ulVLftm1Ll8T5CKQJApuwekKmBGzWmpiNAKYMTaiYJA0AipbANKOp9JLV74TogURlPiBYFdAJTzCMgUQZuzYWqjIBKFVwppx7WDkhMtQGAENcREKmgE9g/OhWK4NEGCGOkU6MCHp2U2niC/UQFkTbA/1RbAUJFIIBHL5nfIki+5cYOUIgZAmQMXK5U0BssrmUEKAmIQ8qkY+CKMQ5EOiWffJa/QQFAKI+MKwWm95Jq7oRKDXgpNs9p42ABcYil06UDaoBFwPgVRk7XCDltDC5jHKyOIC9FJh6TrxZqIA5iqTGWymrZBbwkxq/xSlYLBXhJrKiMBGqBGmCciH90izCXrPSqA5Rez68DWr/xCmgwvUOh5AAK32DtwwE0wJYVUifkCoi9Ul0HhB7XFdB6LdwCuLpkbZvRCUyJPSCB5GukwdsjwlUK0+8r6j8U6mSPyEBxejBq6sEXDLNH/ZB7Wb+wD9CenYppVEHEuIfnwl5AI+HejFf7tYxvvFcn+wgSIlIu3j6gXkvJ+afAeFXfEuz3GZRT87Z4e+QfS2hXr89CdIsyeToBZagB1KV0o4RPcK3cAArebG9oE2kiuJJOhUhh0lWv8RaSgQtlL48CMxQjkXQ+AFxISCYWI8HGU1YrVIQ8VZUGS/v6ugt7xJqP2ksPz2ov3cVbrHRVgiHLErXRP9bKEMus5oy/b8MSSgjt6ni1N6kH8sEoEN0BAsVpiD2eF4ICjZvWjMXJLsWsrJNOM+mIKov6IJvsQt17yVKn0xIJEkXRN+MqcH40YtbRrZUhb4z5TkUVK0VI2K3d9EJgI0FhatbVlpIpArdGy213Quxi8jrAIu3eEKD8tQHWlcfc+i5ja0hwJ+R3mqalxjhVZIsMiIMBdBoHAxrW2DM6421HCtN0x721b81eLnA2UaJBx6Z2t4CxsRxR1ObHPA3+KDVsQnVi09yAOL1sCsYrWewF1Enzuqsay/gGCllefbICGOrlso4164qnwPWIzaPBLZGkx/56M5+miqVSAbdaYQxur5WhvLDRzO21Fg0EKGqjmUs+uxHIPV2r1hrorrGu20vv3t0er5xszHL8ZCj6NfpxliH/Nfkph6FINfsmzh5lnea+IDvbowibBs/+PkiuLTNB8fao/TcK3h4NCYva8vZoFF9mUO8f1Ad12t8x3G9cyNczAPX+Dy+/37W3D+dN+/3h8fG0qL/8v9/M21enrX78/Bc=);lineShape=1;sketch=1;hachureGap=4;jiggle=2;curveFitting=1;fontFamily=Architects Daughter;fontSource=https%3A%2F%2Ffonts.googleapis.com%2Fcss%3Ffamily%3DArchitects%2BDaughter;fontSize=20;" vertex="1" parent="1">
          <mxGeometry x="479.52463504559455" y="426.63103846307285" width="15.841571979101673" height="62.63873754768338" as="geometry" />
        </mxCell>
        <mxCell id="niXD4bAZjXb_m4Lntpnj-44" value="" style="shape=stencil(lVhJchsxDHyNriiCILicHecfrrIcqaJYLtnZfh9MFE5EzEy7fBtRaILE2uBO7l4PDy/7XQyvb5fz1/3P4+PbYSefdjEenw/7y/HNvnZyv5O7p/Nl/+Vy/v78eP398jBJTl/fzj+mHX5dcZGiTKAYfl8XAkn7u/D5Kn46Pt+IK9U4iCeStC3OTGmU50CxAECmlkdApsjbADtvDQPAVv7pXAcoKY8AWwFXlkB51CBMoQKAUhk1SCbRbUCyE9fRqkwxAIBSdG5QasAPqfUrdoCan4FZVSiXEZC63dYBpcfNDKgkwEo5UBsjLzM14LiciMcjZe0r64BCwWmoFJCG5j1dAqlsAwpTGaO1xJ4g6wChOlqppL7FOiATpxGQKYFoLWZ1dyS7NNBQ7Ypj8BUzA9BQow/valmONCTKox+qECNA7pEzA1IvC+uASqwjAFupNqpjLE1bAA2NScaMa4ECyIcWKY+Osy0URGsTKuORbCUgQPNFoBXKIPgMkNUDUMYZoDkNFl2gLnEwowSPKFiFSwhbYVDJ2qKSTSvIEc1nkK0UEBt2YpcQkx1QbJgVR8CNHbYQKXgVFZ0pr5gpo+DIvssZAHVqA8jCc6ilGCBWD4COyL1K3AAYA6q7Q4HF0v72dyikKPoK1eoBiP7YidMCkJCnG4VFzingAlM0L7K64viuujArrhuteYCCTj0BnIaGa1/zHcJW3rGSd9y8xZYfyjJHkafNJh/O0WWhgQlhdGNZaJCrPwwwguTMpLinhEUTSt0OW30xO7tGeCRrm76SMTEway2+a5nOBO5Q1TNR26IiMiC+bBgZYHQHm4HGwmR0IwFPG2VK7khmJQAwCqaOAXHnplu0L413MFKGRgijkdHxRCMDiFiyH7SKdgKyRY6rA0gPli367QqT6UwgqY3OR0fwK+yKOXor5QzNqm0xQkTIBVT9RGBbRKSBfaO2LQSYNRU/UdsWKEWTUBrNmjKcOcRq5XiHFOFEIELNza8Fz+DVj0GCR7koPTbnGTzDoZ2rHxYj96RdB2jnznO9L3Bob54vMcOBQHxwa0/AVfFAPIbFPE9siAf3CkIMom7BuufZekucnXjB4s2Jo6E4rLwogcpltdSLo6eP4BvUfLoNcVflAnwBsKBSL47mHdLkxYFl2DemAPlv9NQxwNLzwZe8d8Xt4/+j4dPxdLq+Od7+7x8Zben6QCn3fwA=);lineShape=1;sketch=1;hachureGap=4;jiggle=2;curveFitting=1;fontFamily=Architects Daughter;fontSource=https%3A%2F%2Ffonts.googleapis.com%2Fcss%3Ffamily%3DArchitects%2BDaughter;fontSize=20;" vertex="1" parent="1">
          <mxGeometry x="519.0362852341489" y="428.23420638214156" width="46.530442660946846" height="66.27427375123443" as="geometry" />
        </mxCell>
        <mxCell id="niXD4bAZjXb_m4Lntpnj-45" value="" style="shape=stencil(lVfZbhsxDPyafSV0U3pO0/8IEKc26saB415/X24NySZtTZC39ZqzvEbkaIkP79unt80S3PvpePi++b17Pm2X+GUJYfe63Rx3J3la4uMSH14Ox8234+Hn6/P599vTark+/Tj8Wr/w54zz1MoKCu7v+YUj5/6/+Ho23+9er809paTsmbwH9kypKnsfKJQ5IERi7eDyibuA6Mg7BQiBSgaAQlWnLDkwACQJqSlADFTDHJCdLVLk7vM+oFDICpA8eeCheMragwQZgYdSqAQNyBSBB/a9TQPA5BAgU9WdTpVqnAOqNE4nLXXLCJAosAYIlxoAMDWddM6UgIcmAO2hiAdA71aJNflKIpcAoPWqDwBTwQDWITGmtwCaZivXTpYpQHdaCl1AWdeQdNJNCA/IJ4Cgk26ZAgpJItZJtw9y4E61MTUcHmSCcMZFg3OmFYoGIJ9AZJIDYcoUqKGQBjlHIxhnnTv9B0DGM+qcnHnDDfGJQ2IdUmlUkQeZZHoKlEwZcaNY9smRq7jVHCwAHrlKyRzq2Pk4o6s3SZc+eWaAYpaig/N+PXIGUCiDkK7YPFotYwC7qF4Dal8BM0AydB17b1ZXy28ZZehAVHKaG+skwePYDMs1K9SIzwLkgEVdpebhhqiRml5atRCDscESgAFEyqCsciLNppZFGUFIsqmdzoEZi4dyMwWk02DLidowVRJ+R7CDRM+YkMQnIwEkWuBmCjRQVpE7WXvIlTyYAqL6zErJEZY1NKv6RM9kEJIo12QkVuz6Y6aNvZGJrXdmJr4tIHU63gf0ETGUbutbb2If9OALFfbZ9Uk97AuUfKLvjFQXpQHWj+sqYdj7roYm9man+woV5c1Q9ZkcoKnri2bYiw6H9fF64FW4eERFGU7Dq5KzuznA4vt+URvBk0Nk65W7XAw9/Prn7pEfmcvD5cr6stvvzzfe6//tFVdena/H8fEf);lineShape=1;sketch=1;hachureGap=4;jiggle=2;curveFitting=1;fontFamily=Architects Daughter;fontSource=https%3A%2F%2Ffonts.googleapis.com%2Fcss%3Ffamily%3DArchitects%2BDaughter;fontSize=20;" vertex="1" parent="1">
          <mxGeometry x="548.6099936617261" y="421.0117301479204" width="32.58026380093088" height="4.046865617533058" as="geometry" />
        </mxCell>
        <mxCell id="niXD4bAZjXb_m4Lntpnj-46" value="" style="shape=stencil(lVfLbhsxDPwaXwmJ1POcpv8RIE5t1I0Dx339fekutDa53gly2zgzkjgaSqONPLzvnt62Gw7v59Px+/b3/vm828iXDfP+dbc97c/6tZHHjTy8HE/bb6fjz9fn6e+3pwvy8vXj+Osywp+JFyj1C4nD3+mHXqjI/1++TvjD/vUGn6gEi49UAT4G4moILVOpgKAzsCVEigEQOjVbQs1U8zqBC0UxhNJHVXcJwqPEmcDUExApULQ1ZC06AkKllA0hNUjIyc+QmGJfJ5QwNBkEydQbIBTqdgYJcB+qahINQc0iQKXaKFlZdSsD8FITqs0SVAagUmtjvNmtVMCK1PvVmjVQLgBfvbnV7UAixbfi8AGsv6tCfnwkUFf9kl8P6ATFZ3Z4qI+2mjWRtibq5aDrDY5QgUt1gm4nYEoM8dV6TsaEa3gJDp/QBjeqxeErKFjx0eMbqrdSzh6PDFG9nkIZGaJQrl4f0PSKd/owZbSeQmz1j7heHd+1/OigNXyxeD3GkB9Un+7wghuyZIcPqGHasuGh39qy4SNuSGkOn3C/VD9+/6C/qtM/Iz/0MdzVD4z80Id9r3jo5+7vPSHB/f45fPBxJTI0RCveQLEMie8TAjXXMRGeoRpO2G6x5pEOPKHhhO2SLnkEFF1kXIozocEl5TIOkTlMJGooBOo2WxvlOKq6T+CRZmaCdhKQVRYqlQwzGutJbfdB84iAGi4nm51B80hGOVMzmq1B80hH0VfPWhd9GwnozuqTb0/w9pNFdtfjA3Sb+iJ5PPIF+8u1z/u+gufs8eg0ij5t3eSFFYK7nXqH1432ZlsUDFwXxmV3KygQSNOVE7TBd4FWVzw+gbZZpCe9r5Cg8+V1g0eW1vWzxwe4/s89Fj/G68f1ZfqyPxymh+3t//1LVn+aXsHy+A8=);lineShape=1;sketch=1;hachureGap=4;jiggle=2;curveFitting=1;fontFamily=Architects Daughter;fontSource=https%3A%2F%2Ffonts.googleapis.com%2Fcss%3Ffamily%3DArchitects%2BDaughter;fontSize=20;" vertex="1" parent="1">
          <mxGeometry x="547.8232771234643" y="377.17067496288837" width="29.004676507753175" height="28.202553196968438" as="geometry" />
        </mxCell>
        <mxCell id="niXD4bAZjXb_m4Lntpnj-49" value="" style="shape=stencil(rVjbbtswDP2avBKUKFHSc9f9R4GmS7AsKdLs9vejYSiJ6PgMA/bmC4/NOw+1kaeP3cv7dhP543I+fd3+3L9edhv5tIlxf9xtz/uLXW3keSNPb6fz9sv59P34Ot+/v0yS09W304/pC79mXCDmCRT59/yAKcwPPs/ih/3xTjxRkEFcKLR18UaxDeKVYloXD+LlQ6QE1Am1a3sFFJpu1wCmr+gAiJEysMBMCKNKZgNSSTLFUSVJpApcytRGlexJzQCgFNIIUJKwDshMOtqQA/RSTtRGG3Kmhv5QqZYBoEwR2KCRSh4BiRICmImjSlpJgUraSMc/lAiTz163OgLM0SBw9tpFujKshmLlMHqpCpWyDqhxAVBSBLDAOUAjEQAolMbUaIEExMG+V8MIiFRBPdj3nEotEYM4NKEqHpBAtjYr0egBigGJPQDFoS1yqWUKFQLqAlCxSt5LCtM7MPvO3SyWWKfm/FphbhigjAVhTxi7KasHKP6D6/eTkig32sLo1qv2MaBSiR5Q0B/qoiAa7GSTE4N3a8aA6FQqXclVgAucwgExqRQ9gFEcTGPn1kyCvVTGEWQVVEGvnAK3rFGcGt6tqU+x1eQr3gbGJVeaByAqcMvNO7ciLz2uUciXlm2gEqNQW6NJHlBxBakDWDfERS2LLlAxwHOymx/+F0L6GLy3Ak8h38GNPgCAzTnfBwox6DQ2SR01nmoIlITN6uwiIb3QHwPCYqhwz/nHfKP6Bm5KogwvmdQBBLZX40zOSwX3Y13Q6YlkgTho7uzijsYlkODGLN1M0Ws7XOOuaew0RkUDIrtGR8ZI5wbpg/Fv18CNTsMtKy8IO3euubZDuAaeUifYj7eU5Pm32AwAgbOtxwMiCTDa9qo2dvyoMFttc1O3mtmWAgrIdkNHFIPCVlZ9/UzbJQj0oskU+HmLwaiOFTjIO+7uu4lHUJvsWYNApsQ9hW/iGSQQd35w9T01qIyba7gmTXxUxjoZyDXuLPMmjlYSM3UUZzif2C+SDGmzvVUnjiY4+/HKkHlx3wruxNF5x7+d1vxV3C5uB0Nv+8NhPle6f+8PkuzRfAglz38A);lineShape=1;sketch=1;hachureGap=4;jiggle=2;curveFitting=1;fontFamily=Architects Daughter;fontSource=https%3A%2F%2Ffonts.googleapis.com%2Fcss%3Ffamily%3DArchitects%2BDaughter;fontSize=20;" vertex="1" parent="1">
          <mxGeometry x="408.2347442327382" y="-12.364770088200657" width="73.50648985074827" height="24.413509738104267" as="geometry" />
        </mxCell>
        <mxCell id="niXD4bAZjXb_m4Lntpnj-50" value="" style="shape=stencil(lZjZctpAEEW/Rq9dsy/PjvMfrjIOVAi4MNn+Pj2RBe4ecwe9CdRHml7njib/8LZ9et1MzrydT8fvm9+75/N28l8m53aH7ea0O/PV5B8n//ByPG2+nY4/D8/z79enZtmufhx/tSf8mblqydhGOfN3/sdQcf//+Drb73eHD/alUjbCPpCJwL5QDsI+U8nQ/v1xi721+AWZogLi4tItwFYJVCoVAImqE4CL5AIEsheAN1SR04miXJLnd3oIBAkET8ZgQPoQKrkCAZ8FECNZlAcGpNPJUB4AspJSXGrlFvC+4kspGfLYByd9yIEyKg0GkgTKEuibgCy+YinjTFfpdAmUUOIKVel0q18QVm5o1Q/cssiHGnSU+BEpASDrkVE9JZAHa8xSnBeC3UJryktiL0AljzLHLWw0gOLKiTVJAwW0XPK6IRioIEwhk1Nz5hqHTwlvdVe3V4A12UzJayCDNXHpdE5HEFZLtvPZAXujXeY8F1AZXPtO20fQPtbr3YcBD0LqusnKgAVAsHrYM4CSFi/PuxPInoJfs6Q2KO0ap2vsugeHtVVN9waUt3a7KzxUGNVRCRpAlVcc+a5UUWkndrGbAKh5oqO0sj8TJdu9AqyJ+6d2YUJDxhqtTQZjzH2yIjQn1w7itfZuuXvn1hC1UhrsPbwdr9rcmniU7TzYPnnC2FUbdBtJqyRAA5QixiKjATJIAxnTAOn0QCj1Y3UgxRhIcmMYiL0GSB8GcpKBKGfYQLA2QLbCQBIzECQwEN0MKKE0kPUMGOnD4OBgeUrKJQ2OJgyEVYcf7oe66njFt7Ukhuc3nmB+1flQDwx8/GwDsij7hOwv4+dqH1AGql6+WZJ+S19kbW/B832kkJQ9Ck+IWqbiLSoGnV9sn4I+LeD1sHjp4oP8LaaPD4pn0zpuuj9fTfdre1QPaz93jO354vpt5WW338+fZj7e199i+K/5O45//Ac=);lineShape=1;sketch=1;hachureGap=4;jiggle=2;curveFitting=1;fontFamily=Architects Daughter;fontSource=https%3A%2F%2Ffonts.googleapis.com%2Fcss%3Ffamily%3DArchitects%2BDaughter;fontSize=20;" vertex="1" parent="1">
          <mxGeometry x="495.3099620748526" y="-68.36195960597843" width="1.3800834796893469" height="68.36152130641653" as="geometry" />
        </mxCell>
        <mxCell id="niXD4bAZjXb_m4Lntpnj-51" value="" style="shape=stencil(lVjLUhtBDPwaX1Uz0jzPhPwHVZjgCsGUIa+/jzauWVuyp13cjOnenZW6W/Ju5O79+eFtu+Hw/nHYf9/+3j1+PG/ky4Z59/q8Pew+9NNG7jdy97Q/bL8d9j9fH49/vz0syOXTj/2v5Qp/jrxAiRcSh7/HL3qlkv5/8/WIf9m9nuET1W7xibjM8ZEpBENoeoMGCI1iswSm2OcEzpSqIdRMlecEEUrZEEqjGsEzR//QJZKAImWtqhhCFqoBEBple6RUKIOylkzdEQLsQ43U7DNIJgZHqoWS7YNECuAOLZBEQ2DtNCIIZXskVVcTQNCa2E4zk1RA0L7aKi16z3NCD5STIagcO6hSj9SLJdQhx+sEGWJeCYUiIqi/rEOjVgkYqOch5pWgHgQG6oWKPVKjBvqmCdFsVSNl4DfFd6ukMMR7Hd+GME94WNJGqTt8xNdv4vAB9bj7RFI8un6n7M8v+Pq1ODyKI8V3J1JikEYxBJ/BcXRwegNnG+ya7vNRbhXUpZ2MvJzhWRwepenS4ObxyDHNu15gcC0C9XjBeFd/xqGiBnM5B8fNgveCqKieakgXKRQRXkeyTZRABRm+kXhDIoEqvrLDB6yHUD0eGyZ5Q6LRp/jiz4+GseLdbI23AqJ7PNq5FrzVMxPfuP6n8HXI8WxiJCy4eDGToIPLxRDLI8RmQyzaFi9zFd1BqDtCo4KmBg+Pr4Q1xmaj3rlgaTOIldYvFiIe2/Z1gpbV5USCxm+JojU+F/gMuqO5ZGTVOrBOrWPnW6NOoNfqqpyVUMf4vL7JFj8tE8O0yN33IWl+A2nk6OM3ZygNPYDYhy4a8KBxkihYeVc8wrVNrqxaaBTZKubqfhWlMRRnv7uKPZLKsYIQyCR2Jqtn0dAPPsNOKTjBu6XrlFITvLdnwGta8FvgaY2Z4CVdPABocvBb6TImgE6DN/NpDE3w4aJAaCpfLHXL2gPPE6LHZ4wvHo9+Ya5L9xke94ttYOtUQdn12TcVt/H64fRa5Gn38nJ8q3L+f/8aRb86voKR+38=);lineShape=1;sketch=1;hachureGap=4;jiggle=2;curveFitting=1;fontFamily=Architects Daughter;fontSource=https%3A%2F%2Ffonts.googleapis.com%2Fcss%3Ffamily%3DArchitects%2BDaughter;fontSize=20;" vertex="1" parent="1">
          <mxGeometry x="527.4349246581712" y="-49.87524992413864" width="80.15618327713491" height="45.84013670748391" as="geometry" />
        </mxCell>
        <mxCell id="niXD4bAZjXb_m4Lntpnj-52" value="" style="shape=stencil(rVjJbttADP0aX4nZl3Oa/keAOLVR1w4cp8vfl1NnZA1pPbVAb7LMN+LOx9n4h7fd0+t248zb5Xz6uv2xf77sNv7Txrn9cbc97y/8tPGPG//wcjpvv5xP78fn6+/XpybZnr6dvrcTfl5xlqJrIGd+XV+UQK7+efP5Kn/YH2fykZKV8jYty1tDLkqADwDgKacR4KlmAMhUowIAlZyjWJQNwGaXyVcJCGUZ4PkLWQIyAmQKCoBsCE65NZLxAJAoqEBn8IVoyCtAAIGLU5hmAINSid0qABx7YEMylBQgWADg8xQAqZQSJZF8rh9xH1ApRAkIAJBdz/4Z4COU9wGRrJcAFOlcyIjAWSog+fi8ZAYAH2ENACSyYxPIljywoRQqYxyShW6tluxYoqFSBSpV3zXuAB97W7gPmOqrA7hTVeClGnvmTEbDHsDyoqRx36uJjFCICkhVli+jxaZ3qfvyWXZuQwZ5tPTSusln5NAqk2JqgkvyaSyESA7LV1E4a+fXMV7WdQ2XAKJZ2EgRFBoD/GixLbD22aWif7FPE/pC7kk/AVbqJpMpCoCyNEkbmkpgLHBaiw7JRn9QiCWAM8qtSKXQ63AeOGR0VA2PEtZITLbpxZJ8GTPP9VJa8mkc5Q2OQZYjYbUybRTyHp1feiOZdRYU4tob261zIUrI8qK75841FijhZN+89/5XRFXcImQ401oSiRE1jcX7gGkKT1ZnOJd5CIpC4DfIBuYqgkXeMus+gH0yFjOHHk3NRhW8cCvOPc1GWvQRfVF8pzV+RPIUo2r5iEie4mxtFAG/albIbsqIFSreWXGj18z2VrN/yZ05gZFKmp0zALFzzf8ZYNHCoDaMxjhA29A7DANQfustqakEIq33sGY0yFa96TUWBNyqd8k2glFnUttqAwAb9D7MAFTUauFumQHiphb6ZjLwkZXDZMWnhorQh9MC6GMojl2POy3yKPtHOJT3VCgvaDmvAh7qLyYJ7xoZ+F/LG7JYXtwVFEh3lL0lwwsV5U9e/NFNgYpXuygArUjlw8pdx79eIK3L88PttuplfzhcL7vm/8vbLX51vRnzj78B);lineShape=1;sketch=1;hachureGap=4;jiggle=2;curveFitting=1;fontFamily=Architects Daughter;fontSource=https%3A%2F%2Ffonts.googleapis.com%2Fcss%3Ffamily%3DArchitects%2BDaughter;fontSize=20;" vertex="1" parent="1">
          <mxGeometry x="574.5864317263902" y="14.952699049742023" width="40.433847122556244" height="9.288663327362656" as="geometry" />
        </mxCell>
        <mxCell id="niXD4bAZjXb_m4Lntpnj-53" value="Has" style="shape=rhombus;perimeter=rhombusPerimeter;whiteSpace=wrap;html=1;align=center;sketch=1;hachureGap=4;jiggle=2;curveFitting=1;fontFamily=Architects Daughter;fontSource=https%3A%2F%2Ffonts.googleapis.com%2Fcss%3Ffamily%3DArchitects%2BDaughter;fontSize=20;" vertex="1" parent="1">
          <mxGeometry x="181" y="-30" width="120" height="60" as="geometry" />
        </mxCell>
        <mxCell id="niXD4bAZjXb_m4Lntpnj-54" value="" style="shape=stencil(lVjbUhsxDP2avGpsa21Lz5T+BzOEkiklDNDb31fb1Gat3T2UtxDOiS1LOroc+Orl/ubpeEjh5fX5/PX483T7en/gT4eUTo/3x+fTq3068PWBr+7Oz8cvz+fvj7eXv59uZuT86dv5x/wLvy68QDHPpBR+X75QoaJ/v/l8wT+cHhf4SCWN+EJl2sdnCmHEM3HYx1cSGfGBKoP7RJp0IEilkgEhk0wjYaIECPZEZTRBAuUCCJny+Ea1tEtuEticEEdCogweie3Go9FFSBIgCIXxSiU3R24SJntWHgmJJAKCXckRQrvkNsHeZIy83H2/TRDi8ZWy2QD8kAMFdwJTBZ7Oker4Sjm18N0mWCzXkRCIUTZkiqPjzKoCjM6l+bUTCim6krTo74SJBBBKz69OSDSBZy1MYUzRqYvINsGMHk/gCqO11CYpnZCJAaFaqI1+4ARfac6v0QbLQZSidWqh1ghJKALH1ZXjUmnhuE0Qb3TqKbVJkJV0J3McCD6JLRA6IUCtF3vEMeOiUkQnsI+lWGF1MOl1YhxL08JtQiYdPR0nKAKyKihWMRQZrf4EhTqmidJ4QKEMTNbsdS/CQDK8EyVcEK0ep+DwDB7I8MIOjzygtRW/NzzSSOsn2N8H5YHhVRwelWdVX21Dy+09vLgIogDsjSH4FsZq4zsHuIgjRQ7QFi89LYlRwKm/T8IBYQ5gh1eENwerx6P7WAA5aSTB+OSUEWrEnAD+/v/U/r8TTJC9hncqB2u44YsPaEH3Kb73slKD8SU6PBSI6vui0A7ci4ewSmCMrx4f0f216c3CXhz/1Se8YLz6/ELNwYxfxQMSuI/iLZ5He2u74DaeSdzvhybx24ToHRC5tZF7JcxJtA09iqpq9TUsCixiUnwfO6s0sMEKfR1Vd1ZFRLAu053A+EpxJXO5zTDbDZc2me2Eilu62gpRJygmWOM7Zj5HONdZW+peySa9gGwIfhBkG6vAs1prrY4gMNuseddR7SYsj2XVA04Mx+USV4QMC1RWn0A2REVgtA2WuhrTAhrTih/IbTTMQPPy1N5kMWqimcgGyzwanXuG7A2zbgDJuM+cB0tng8Dpd1o1juYZlNPmVx79MPse7TlWyl0K7NUsmN1cVxS+ko19TjUqw2JrKe/WR7XCQdCaD9etSYSblFj9ICh4mDVx9/smvCOw8uGMfqsYOzs2dju2Ca9qvMjMLSIoJ8lPsnOLC2Sv7xsWeDSXWv8XPR51eL3SLPAKUif6BngxA+wQkq/omBCawC1vBHLTkn+FF4h3e6m5yQIe6x3d0mPgRVebtbnpw/jg8WjIDK3qLbbSaJ/z0S32+3j78LYyvzs9PFw27sv/+xW7fXVZz/P1Hw==);lineShape=1;sketch=1;hachureGap=4;jiggle=2;curveFitting=1;fontFamily=Architects Daughter;fontSource=https%3A%2F%2Ffonts.googleapis.com%2Fcss%3Ffamily%3DArchitects%2BDaughter;fontSize=20;" vertex="1" parent="1">
          <mxGeometry x="145.65005932770202" y="15.668783910963612" width="63.667664956631754" height="97.90759877827055" as="geometry" />
        </mxCell>
        <mxCell id="niXD4bAZjXb_m4Lntpnj-55" value="" style="shape=stencil(lVnZclMxDP2avGpsy4v8zPIfzFBohtIypWx/j0zGl2spOUnf0lQnlrUeyQd+8/3+w7e7QwrfX56fvtz9On58uT/w20NKx8f7u+fji3468LsDv/n09Hz3+fnpx+PH09/fPgzJ8enr08/xC79PuEC5DVAKf+YXIfz74v1J/OH4uBNP1IoRj/2yeCG24pwuizfiYMQzEO9UrXgBusdEyckXIJ+pJysvQL5Z40RKEdhSbyeLfKIAfj/x/Lkpz1SB/mr9vt63UEH6CBVe5IUakOdIcY0dtXAGCjFTM4BKmQGg2vgZLkAqCcl6hZSpghNynAG5ATp14ITMJKtRuVACQZrrzJAJyOr3DADqhlWlnCmDS5dgVcqNBGUlUzSBoa4EjitlKrABMjEwa2kzcjZAJakA0EnW0NCf6OCEGqkbgBADx9XsLi0wnWulVCyggjtUseVrAIAfWqDk7oAyrrkKNgCooPIZK0FAofo6QLMpeg0gztMCc1rUSmIBCdR5iVSziyUESCRiAQWkqGQKbAEogaRQNCppPqBLa/CxBUArNdscSoWtWcTFUpn97jygzyvuACgfulKJZgGo3PdIIVtAQiekSVZ2AJRACujdWimjE3hWoZ2nGZ2QZ+ndAB06rqvG66VrgrShayCsZq1lGvo8oE9atPX1CEulAtragTRDUGgowCSQBnwC+dC3JrsBhCK4dAzBurpjdjWOWO2qrkko+rpto2ppAVVAAXVNua6lD9uVV8+NM/EJkS2go0uLjT79poMq0LcOtQG0kqGEkFkZd2ZFDEsBZsJQxyHaOgAuNlA1HiqtJ2j0VRSu4uKbcSyJrQKaQVClbqmxdjFU7xWQkz3hSlLXtRprjqLZaoSauYPSStAVR6iZEzQ0wAnncjRMO1w8wsQGX6sbsuqkORpwUtc1mNSXiK4PR5gTtHyiDOq28e7scDGaqj0CeuLVgGpbtVyxqxvUB+tCZuIZzhOgzJGRSslWpqblGKVQtDmnZDYhR0RLypQuwyR1/EQBqC96BqSAiHii41gtzk55I4tTQH0VT1QAspJnojqFoA7hua4CUP32bPr/nHMjX6+4y/mJoHZoJT9zKABFq59qFIB2M35uugZwk9k1gJv9rgHcdDkAwA9+fh0ANPDWmcF7AKgafgbXMztIoDHlVwtoAFA2QrUDJGAlpfM2+BpeaRa7MaqYABWmsOa03gqtyUqg5qb8iHZScmY9UxFAm6YZ5XBOZ7bhnQu8Q45T493WC1EsdpyMMywC7NYzjCkWuzukCmOJ48yvDZAgv09iuUPECZSKpTMRz+CJrVljxjvjMMfb3Y4WNcWxxF7zIUa4z/Fb8oiXiX4NPwCosds1v8oj5uBeEVQejeyO+6g82re6N5CIhwH3xDIsCgpGOKNPAVEUbCKoPIq6YFlMDHDLEmwadLh+C44vzDnikrhpCXOau028wHHVKcPUQKi5q6b5JHKjJaerb3NUmBXptjjAw9QrX/KuiuuH/4+Gn44PD6c3x/3/7SOjfnV6oOR3fwE=);lineShape=1;sketch=1;hachureGap=4;jiggle=2;curveFitting=1;fontFamily=Architects Daughter;fontSource=https%3A%2F%2Ffonts.googleapis.com%2Fcss%3Ffamily%3DArchitects%2BDaughter;fontSize=20;" vertex="1" parent="1">
          <mxGeometry x="289.05859528204326" y="2.283051770938073" width="185.8979288044793" height="14.844877311241781" as="geometry" />
        </mxCell>
        <mxCell id="niXD4bAZjXb_m4Lntpnj-56" value="" style="shape=stencil(lVpJchw3EHwNrwjsy1mW/6EIURbDsqigJC+/d8I0moOs6RzyRmIqG0DtVai79O775w/f7u+i//7j6fH3+78ePv74fJd+uYvx4evn+6eHH/jrLr2/S+8+PT7d//b0+PPrx+f/v32YlPOvPx7/nF/4+xnnXfYTFP0/zwvJlfbfwq/P5F8evl6QRzd/2sh7PidPLg8ib/GcPLue+OvhnLy62Dfy7Lwgb+tjL+ShnpMPlwaRR0Eewtr8hT4J1oToaiT6/0VxnR6n5fNk9f3iKp8nC8mG6gZzMwtZhe5iZnaq84CfjYRbh9A07wprZhLSjYF1Lbouzo+fSfOjS4L/2J5UP7jWBX1mfQguqfPk9blF791Q9MWVQvTScqtLlejleRrf1y8FvE7fXQhMr+TV3WhE7xX/h+uD6cX508G+F/pYBH1c21/wMwn6tNT9hb4L/qTM9hKkfqbC/idJd5Uq60N2Vbnm5trOf7hTdd/B/GnLW1/35RD//v3hotCHHFzc6YOXDijDXvdoARdc1Q6JLT4g2AmRZXjw3SThVJXN57JM6gB059UOdfHkcEK4tOJqc36/NNxWE2YPAJkNHEcUdpa767seTUErOQw3KGp718QOBZGSIkGUql0imw4AQ3CpQNI7W2GtSXCpwFYSA5raoZhUJUl3XUx4nQBhn6WzpOeRFJfgUO2lFWCsZOwCUIV6V+jmHkLg1NQONbhAly4rqpwBOgHq+sR1QFwWfACaVO+aOGlMfTmeMwALbkhdqnkx8XDEiCQqjS2srQAMEapqZdcK5xkUWyvH2ultFQDBoRiAsIfaXYkGoOSAaDDMHYQuNYT7agDiSAB0CxBsbWEFzEuAMNEW2R4mQKhGSyZnvnFpk0TeunRevvq1O5Tl5y4ASXGpct6AQFyELrXGAQVx1asjwZGRauCQIop2v+R6AJo8Ug+rFFqAog2oI97sqQMCgEpOel5h/AAMGad7Yc8HP+KF5+uNdaneuHTnBLF5WXH2wboE/VVHGgjs+5FakRnZiJxDQ7uUbx1pien1APLeAHhh08MY0LyDahMUruMBUIXGqKtuPwBZpg7DVGLYQbUWxuDSuekYBwCFrHa45zMApT9dew0Axn5pWIiKQMF7rjeg8VWo69xidxtD+8phElcIPytRD+4gvYjmlK97gMCKiij4OXMRpMviYeLoGLLHNk+wa9Poq5C6DuhsQlD5odxA55JjHO7zFLB7JrgeVQVNwH4kuE9VEMw77IKAR29aX/1+BwSZqCUX9x1gc9JvDOMGukwepjJFBqgKfCqCuUPRR6IKoifZ85kAkkPVTckrVj2WaE63IBNKMmpNIyVAXWX8KZvIqruOWnCvu+Tmnlo3UmGAqv3eDmgrybu4tEoGbBAaRxXyyjCHFa8syARSrKgG5QzVjQGqnz+TgV2XsKJa9HBD3jgm1fMdRx12ALxsAEGZKZtG0FKOCUkZlRDwZCpC4HuU68KTqVCN7zVyTMfLxlnqSk0spBuqHJ2udGdr0z2pmSvQkXSvGH6LBId606tCq3Nor026bxQpdAfUzKr9O8ugnUso41WQs4UWAMob21IOABWzbLE4AW8qR2/tYAreWmSbzJbUt45kivZbRzJtgRs72MbDjTvY1gYAsk1mmidVl0GzPWPuUIS2zgaQ2UElTPiZHt+wIjtGmYtFrGTVk0pGcFGGrJo4ZNUgIxC+x0X7WHnjWTOROhWly/gAgN/TmVJlDlc9PxCUIivkYgqCop8gbFO3ROm9bdu4hFUXvbIxDYDqttjWd9Evoba5Po+kHgjMQ02J8hmlmLEErCj1nk8Q0RxJaGs2uXTRzcTc1+v20ZPq0pHlxmlorrfejrivlmSMy5XbM9nLyi8X075vcoYg59X5OABZPvLjxIke+aMM7DnyK2EcUpdmG5pe2LosUbLnd+zY9ENz5yQxFvlQk4yk59v/jaddGlWAtxWXTkd/6ABEWSrOx2nPAJV729fvqL23fV6PQcZp+34/jyS4ZAcEos6M7QTCHAHRIwusGlE+ctgZiqj9kh3SAJdUr8VOgUy2CknbMZM5l/KmOZY5mKIAZlBmTlKoS9tJHC+Vz476hLFWrgPMLFHoMijaYSUAqriDnYbCinp3seNWoa2m1nWAmeeaANVrMQNjE6AmwMxEGgBDyMGOvE3AW0bq5niEqsq43zqZqjI+ftudYlHhhzMZ0BflV43egV6ZghkZ67LBbIYxQa+M2XP0nOcRAvMcC6dGyPME4k+VYcTzYAeUVt+XsrCgx0lN8zDobMHS6yauOc8tcdF1q6xHDDfBHKE8Rlh63tPoQpJZ/Bvnfm+S44+XEeNPD1++PE8oX/7OI8lYeh5nTu//BQ==);lineShape=1;sketch=1;hachureGap=4;jiggle=2;curveFitting=1;fontFamily=Architects Daughter;fontSource=https%3A%2F%2Ffonts.googleapis.com%2Fcss%3Ffamily%3DArchitects%2BDaughter;fontSize=20;" vertex="1" parent="1">
          <mxGeometry x="275.50895841830925" y="10.471271970023281" width="221.26330676222008" height="11.638525575303202" as="geometry" />
        </mxCell>
      </root>
    </mxGraphModel>
  </diagram>
</mxfile>
